<svg viewBox="0 0 330 200" xmlns="http://www.w3.org/2000/svg"><g><g><g><g><g><line x1="50" y1="177" x2="45" y2="177" style="visibility: inherit;" fill="rgb(0, 0, 0)" stroke="rgb(204, 204, 204)" stroke-width="1px"></line><line x1="50" y1="163.3846153846154" x2="45" y2="163.3846153846154" style="visibility: inherit;" fill="rgb(0, 0, 0)" stroke="rgb(204, 204, 204)" stroke-width="1px"></line><line x1="50" y1="149.76923076923077" x2="45" y2="149.76923076923077" style="visibility: inherit;" fill="rgb(0, 0, 0)" stroke="rgb(204, 204, 204)" stroke-width="1px"></line><line x1="50" y1="136.15384615384616" x2="45" y2="136.15384615384616" style="visibility: inherit;" fill="rgb(0, 0, 0)" stroke="rgb(204, 204, 204)" stroke-width="1px"></line><line x1="50" y1="122.53846153846153" x2="45" y2="122.53846153846153" style="visibility: inherit;" fill="rgb(0, 0, 0)" stroke="rgb(204, 204, 204)" stroke-width="1px"></line><line x1="50" y1="108.92307692307693" x2="45" y2="108.92307692307693" style="visibility: inherit;" fill="rgb(0, 0, 0)" stroke="rgb(204, 204, 204)" stroke-width="1px"></line><line x1="50" y1="95.30769230769232" x2="45" y2="95.30769230769232" style="visibility: inherit;" fill="rgb(0, 0, 0)" stroke="rgb(204, 204, 204)" stroke-width="1px"></line><line x1="50" y1="81.69230769230768" x2="45" y2="81.69230769230768" style="visibility: inherit;" fill="rgb(0, 0, 0)" stroke="rgb(204, 204, 204)" stroke-width="1px"></line><line x1="50" y1="68.07692307692307" x2="45" y2="68.07692307692307" style="visibility: inherit;" fill="rgb(0, 0, 0)" stroke="rgb(204, 204, 204)" stroke-width="1px"></line><line x1="50" y1="54.46153846153847" x2="45" y2="54.46153846153847" style="visibility: inherit;" fill="rgb(0, 0, 0)" stroke="rgb(204, 204, 204)" stroke-width="1px"></line><line x1="50" y1="40.84615384615384" x2="45" y2="40.84615384615384" style="visibility: inherit;" fill="rgb(0, 0, 0)" stroke="rgb(204, 204, 204)" stroke-width="1px"></line><line x1="50" y1="27.230769230769234" x2="45" y2="27.230769230769234" style="visibility: inherit;" fill="rgb(0, 0, 0)" stroke="rgb(204, 204, 204)" stroke-width="1px"></line><line x1="50" y1="13.615384615384626" x2="45" y2="13.615384615384626" style="visibility: inherit;" fill="rgb(0, 0, 0)" stroke="rgb(204, 204, 204)" stroke-width="1px"></line><line x1="50" y1="0" x2="45" y2="0" style="visibility: inherit;" fill="rgb(0, 0, 0)" stroke="rgb(204, 204, 204)" stroke-width="1px"></line></g><g transform="translate(40, 0)"><text x="0" y="177" dx="0em" dy="0.3em" style="text-anchor: end; visibility: hidden; font-family: Roboto, sans-serif; font-size: 12px; font-weight: 200;" fill="rgb(255, 255, 255)" stroke="none" stroke-width="1px">0</text><text x="0" y="163.3846153846154" dx="0em" dy="0.3em" style="text-anchor: end; visibility: inherit; font-family: Roboto, sans-serif; font-size: 12px; font-weight: 200;" fill="rgb(255, 255, 255)" stroke="none" stroke-width="1px">0.02</text><text x="0" y="149.76923076923077" dx="0em" dy="0.3em" style="text-anchor: end; visibility: hidden; font-family: Roboto, sans-serif; font-size: 12px; font-weight: 200;" fill="rgb(255, 255, 255)" stroke="none" stroke-width="1px">0.04</text><text x="0" y="136.15384615384616" dx="0em" dy="0.3em" style="text-anchor: end; visibility: inherit; font-family: Roboto, sans-serif; font-size: 12px; font-weight: 200;" fill="rgb(255, 255, 255)" stroke="none" stroke-width="1px">0.06</text><text x="0" y="122.53846153846153" dx="0em" dy="0.3em" style="text-anchor: end; visibility: hidden; font-family: Roboto, sans-serif; font-size: 12px; font-weight: 200;" fill="rgb(255, 255, 255)" stroke="none" stroke-width="1px">0.08</text><text x="0" y="108.92307692307693" dx="0em" dy="0.3em" style="text-anchor: end; visibility: inherit; font-family: Roboto, sans-serif; font-size: 12px; font-weight: 200;" fill="rgb(255, 255, 255)" stroke="none" stroke-width="1px">0.1</text><text x="0" y="95.30769230769232" dx="0em" dy="0.3em" style="text-anchor: end; visibility: hidden; font-family: Roboto, sans-serif; font-size: 12px; font-weight: 200;" fill="rgb(255, 255, 255)" stroke="none" stroke-width="1px">0.12</text><text x="0" y="81.69230769230768" dx="0em" dy="0.3em" style="text-anchor: end; visibility: inherit; font-family: Roboto, sans-serif; font-size: 12px; font-weight: 200;" fill="rgb(255, 255, 255)" stroke="none" stroke-width="1px">0.14</text><text x="0" y="68.07692307692307" dx="0em" dy="0.3em" style="text-anchor: end; visibility: hidden; font-family: Roboto, sans-serif; font-size: 12px; font-weight: 200;" fill="rgb(255, 255, 255)" stroke="none" stroke-width="1px">0.16</text><text x="0" y="54.46153846153847" dx="0em" dy="0.3em" style="text-anchor: end; visibility: inherit; font-family: Roboto, sans-serif; font-size: 12px; font-weight: 200;" fill="rgb(255, 255, 255)" stroke="none" stroke-width="1px">0.18</text><text x="0" y="40.84615384615384" dx="0em" dy="0.3em" style="text-anchor: end; visibility: hidden; font-family: Roboto, sans-serif; font-size: 12px; font-weight: 200;" fill="rgb(255, 255, 255)" stroke="none" stroke-width="1px">0.2</text><text x="0" y="27.230769230769234" dx="0em" dy="0.3em" style="text-anchor: end; visibility: inherit; font-family: Roboto, sans-serif; font-size: 12px; font-weight: 200;" fill="rgb(255, 255, 255)" stroke="none" stroke-width="1px">0.22</text><text x="0" y="13.615384615384626" dx="0em" dy="0.3em" style="text-anchor: end; visibility: hidden; font-family: Roboto, sans-serif; font-size: 12px; font-weight: 200;" fill="rgb(255, 255, 255)" stroke="none" stroke-width="1px">0.24</text><text x="0" y="0" dx="0em" dy="0.3em" style="text-anchor: end; visibility: hidden; font-family: Roboto, sans-serif; font-size: 12px; font-weight: 200;" fill="rgb(255, 255, 255)" stroke="none" stroke-width="1px">0.26</text></g><line x1="50" y1="0" x2="50" y2="177" fill="rgb(0, 0, 0)" stroke="rgb(204, 204, 204)" stroke-width="1px"></line></g></g><g transform="translate(50, 0)" clip-path="url(#clip_0)"><clipPath id="clip_0"><rect width="280" height="177"></rect></clipPath><g><g><g><line x1="0" y1="0" x2="0" y2="177" fill="rgb(0, 0, 0)" stroke="rgb(189, 189, 189)" stroke-width="1px" opacity="0.25"></line><line x1="23.333333333333332" y1="0" x2="23.333333333333332" y2="177" fill="rgb(0, 0, 0)" stroke="rgb(189, 189, 189)" stroke-width="1px" opacity="0.25"></line><line x1="46.666666666666664" y1="0" x2="46.666666666666664" y2="177" fill="rgb(0, 0, 0)" stroke="rgb(189, 189, 189)" stroke-width="1px" opacity="0.25"></line><line x1="70" y1="0" x2="70" y2="177" fill="rgb(0, 0, 0)" stroke="rgb(189, 189, 189)" stroke-width="1px" opacity="0.25"></line><line x1="93.33333333333333" y1="0" x2="93.33333333333333" y2="177" fill="rgb(0, 0, 0)" stroke="rgb(189, 189, 189)" stroke-width="1px" opacity="0.25"></line><line x1="116.66666666666667" y1="0" x2="116.66666666666667" y2="177" fill="rgb(0, 0, 0)" stroke="rgb(189, 189, 189)" stroke-width="1px" opacity="0.25"></line><line x1="140" y1="0" x2="140" y2="177" fill="rgb(0, 0, 0)" stroke="rgb(189, 189, 189)" stroke-width="1px" opacity="0.25"></line><line x1="163.33333333333334" y1="0" x2="163.33333333333334" y2="177" fill="rgb(0, 0, 0)" stroke="rgb(189, 189, 189)" stroke-width="1px" opacity="0.25"></line><line x1="186.66666666666666" y1="0" x2="186.66666666666666" y2="177" fill="rgb(0, 0, 0)" stroke="rgb(189, 189, 189)" stroke-width="1px" opacity="0.25"></line><line x1="210" y1="0" x2="210" y2="177" fill="rgb(0, 0, 0)" stroke="rgb(189, 189, 189)" stroke-width="1px" opacity="0.25"></line><line x1="233.33333333333334" y1="0" x2="233.33333333333334" y2="177" fill="rgb(0, 0, 0)" stroke="rgb(189, 189, 189)" stroke-width="1px" opacity="0.25"></line><line x1="256.66666666666663" y1="0" x2="256.66666666666663" y2="177" fill="rgb(0, 0, 0)" stroke="rgb(189, 189, 189)" stroke-width="1px" opacity="0.25"></line><line x1="280" y1="0" x2="280" y2="177" fill="rgb(0, 0, 0)" stroke="rgb(189, 189, 189)" stroke-width="1px" opacity="0.25"></line></g><g><line x1="0" y1="177" x2="280" y2="177" fill="rgb(0, 0, 0)" stroke="rgb(189, 189, 189)" stroke-width="1px" opacity="0.25"></line><line x1="0" y1="163.3846153846154" x2="280" y2="163.3846153846154" fill="rgb(0, 0, 0)" stroke="rgb(189, 189, 189)" stroke-width="1px" opacity="0.25"></line><line x1="0" y1="149.76923076923077" x2="280" y2="149.76923076923077" fill="rgb(0, 0, 0)" stroke="rgb(189, 189, 189)" stroke-width="1px" opacity="0.25"></line><line x1="0" y1="136.15384615384616" x2="280" y2="136.15384615384616" fill="rgb(0, 0, 0)" stroke="rgb(189, 189, 189)" stroke-width="1px" opacity="0.25"></line><line x1="0" y1="122.53846153846153" x2="280" y2="122.53846153846153" fill="rgb(0, 0, 0)" stroke="rgb(189, 189, 189)" stroke-width="1px" opacity="0.25"></line><line x1="0" y1="108.92307692307693" x2="280" y2="108.92307692307693" fill="rgb(0, 0, 0)" stroke="rgb(189, 189, 189)" stroke-width="1px" opacity="0.25"></line><line x1="0" y1="95.30769230769232" x2="280" y2="95.30769230769232" fill="rgb(0, 0, 0)" stroke="rgb(189, 189, 189)" stroke-width="1px" opacity="0.25"></line><line x1="0" y1="81.69230769230768" x2="280" y2="81.69230769230768" fill="rgb(0, 0, 0)" stroke="rgb(189, 189, 189)" stroke-width="1px" opacity="0.25"></line><line x1="0" y1="68.07692307692307" x2="280" y2="68.07692307692307" fill="rgb(0, 0, 0)" stroke="rgb(189, 189, 189)" stroke-width="1px" opacity="0.25"></line><line x1="0" y1="54.46153846153847" x2="280" y2="54.46153846153847" fill="rgb(0, 0, 0)" stroke="rgb(189, 189, 189)" stroke-width="1px" opacity="0.25"></line><line x1="0" y1="40.84615384615384" x2="280" y2="40.84615384615384" fill="rgb(0, 0, 0)" stroke="rgb(189, 189, 189)" stroke-width="1px" opacity="0.25"></line><line x1="0" y1="27.230769230769234" x2="280" y2="27.230769230769234" fill="rgb(0, 0, 0)" stroke="rgb(189, 189, 189)" stroke-width="1px" opacity="0.25"></line><line x1="0" y1="13.615384615384626" x2="280" y2="13.615384615384626" fill="rgb(0, 0, 0)" stroke="rgb(189, 189, 189)" stroke-width="1px" opacity="0.25"></line><line x1="0" y1="0" x2="280" y2="0" fill="rgb(0, 0, 0)" stroke="rgb(189, 189, 189)" stroke-width="1px" opacity="0.25"></line></g></g></g><g><g><line x1="0" y1="177" x2="280" y2="177" fill="rgb(0, 0, 0)" stroke="rgb(153, 153, 153)" stroke-width="1.5px"></line></g></g><g><g><line x1="23.333333333333332" y1="0" x2="23.333333333333332" y2="177" fill="rgb(0, 0, 0)" stroke="rgb(153, 153, 153)" stroke-width="1.5px"></line></g></g><g><g><g><g><g><path stroke="rgb(51, 187, 238)" stroke-width="2px" d="M23.333333333333332,58.20499591414745L28,37.39705540125187L32.666666666666664,48.310743786616854L37.333333333333336,64.998124690541L42,69.95128367824141L46.666666666666664,74.67412871524346L51.33333333333333,71.65422961848421L56,77.25410537475892L60.66666666666667,72.06426364871737L65.33333333333333,69.48695660697454L70,70.86975742482393L74.66666666666667,71.38913038182773L79.33333333333333,68.72895549840838L84,69.13826487175912L88.66666666666666,70.17214714728709L93.33333333333333,71.20332639648448L98,68.70959596560584L102.66666666666666,64.91496255162455L107.33333333333334,64.72588635738L112,64.42690286118933L116.66666666666667,64.54732144589389L121.33333333333334,59.96829302688571L126,56.92264277902783L130.66666666666666,54.086121164326364L135.33333333333334,53.85797386657666L140,49.4240667346113L144.66666666666669,46.86287325928303L149.33333333333334,39.9798872219645L154,43.52224764449305L158.66666666666666,31.331097277165824L163.33333333333334,33.28257153968442L168,32.15104732358181L172.66666666666669,20.79038101689997L177.33333333333331,26.246729342893577L182,21.78566359562195L186.66666666666666,28.83249276537129L191.33333333333334,29.54198333902361L196,32.15310259866166L200.66666666666666,24.857641927667302L205.33333333333331,20.194833243972383L210,14.189032384114233L214.66666666666669,15.741047416509463L219.33333333333334,11.577764365340128L224,13.619688172531065L228.66666666666666,7.032120955777202L233.33333333333334,7.80329622522435L238,8.834692214142763L242.66666666666669,5.421347870417612L247.33333333333331,5.222459872951325L252,4.941281619669117" style="fill: none;" fill="none"></path></g><g><path stroke="rgb(204, 51, 17)" stroke-width="2px" d="M23.333333333333332,-36.582073495938204L28,25.134123061138833L32.666666666666664,54.87707134660222L37.333333333333336,73.07024484838685L42,85.43557201018452L46.666666666666664,94.10923600225573L51.33333333333333,101.44981723867231L56,107.4036727391143L60.66666666666667,111.85747481117788L65.33333333333333,115.97910564224826L70,119.45848733071132L74.66666666666667,122.13224903635154L79.33333333333333,124.90369842399522L84,127.05475354518504L88.66666666666666,129.33296837020302L93.33333333333333,131.21304110697284L98,132.6181806886224L102.66666666666666,134.22240709195253L107.33333333333334,136.0453204615671L112,137.31457545055048L116.66666666666667,138.80055828018428L121.33333333333334,139.53336443759562L126,140.32285200803668L130.66666666666666,141.4656981580927L135.33333333333334,142.8085002054787L140,144.30047634579972L144.66666666666669,144.56949261537625L149.33333333333334,145.77512678688777L154,146.27040916701273L158.66666666666666,147.18203422006295L163.33333333333334,147.20472468942708L168,147.76049044733077L172.66666666666669,150.911663105054L177.33333333333331,149.49164884902723L182,150.73667332745993L186.66666666666666,151.73861102845393L191.33333333333334,152.7138601840841L196,153.1370759632025L200.66666666666666,153.6813602988551L205.33333333333331,154.3663455843004L210,155.3455756562684L214.66666666666669,155.0708781426765L219.33333333333334,154.80951983115565L224,154.81604048974782L228.66666666666666,155.65231970512716L233.33333333333334,155.684360686671L238,155.7956291465162L242.66666666666669,157.00704327683042L247.33333333333331,158.21831174447934L252,158.58807579992776" style="fill: none;" fill="none"></path></g><g><path stroke="rgb(255, 112, 67)" stroke-width="2px" d="M23.333333333333332,25.34158569574354L28,56.86744204536078L32.666666666666664,65.78087219160804L37.333333333333336,72.66872761378325L42,80.1053424257381L46.666666666666664,82.67390559593453L51.33333333333333,80.10131520826764L56,83.08529350387636L60.66666666666667,85.41627395629718L65.33333333333333,86.14552615314632L70,84.38801925569481L74.66666666666667,79.97737151799399L79.33333333333333,77.32492216386144L84,80.79294498447835L88.66666666666666,76.23837696027586L93.33333333333333,77.5853719379707L98,75.70073150071482L102.66666666666666,77.15256406984273L107.33333333333334,78.71126158614142L112,76.50645966931334L116.66666666666667,76.36123724104797L121.33333333333334,75.16712612353992L126,73.881686094603L130.66666666666666,70.74117859065694L135.33333333333334,70.95622631019818L140,71.33880447642066L144.66666666666669,68.82930271852915L149.33333333333334,62.88049528037764L154,64.22665692900591L158.66666666666666,63.51612798496322L163.33333333333334,62.79140736137522L168,62.004991475739764L172.66666666666669,59.902583236985436L177.33333333333331,56.94521007965927L182,56.42302113717488L186.66666666666666,54.74553715245405L191.33333333333334,52.164760288320885L196,50.73766406966278L200.66666666666666,50.813314144463256L205.33333333333331,47.22711470291733L210,46.034002513732936L214.66666666666669,45.984446194680096L219.33333333333334,46.067731544163344L224,45.51881857469222L228.66666666666666,44.363209290938705L233.33333333333334,41.34980864356038L238,39.153490921722806L242.66666666666669,39.50395094117031L247.33333333333331,37.55453598124675L252,36.91558557982001" style="fill: none;" fill="none"></path></g><g><path stroke="rgb(187, 187, 187)" stroke-width="2px" d="M23.333333333333332,-58.51352035540801L28,12.276506769542536L32.666666666666664,46.50803297795534L37.333333333333336,68.21207570324219L42,82.60912223093212L46.666666666666664,94.10665154497906L51.33333333333333,102.50844092513076L56,109.3202541377255L60.66666666666667,114.44291105672336L65.33333333333333,119.32590426454648L70,123.24350799745109L74.66666666666667,126.89714123483598L79.33333333333333,130.43530345217053L84,133.09106434058594L88.66666666666666,135.9696785790405L93.33333333333333,138.31883084152847L98,140.44874273291705L102.66666666666666,142.22014173998883L107.33333333333334,144.54802566426875L112,146.3232990793421L116.66666666666667,147.52096726311518L121.33333333333334,149.26504830958612L126,150.70104286018397L130.66666666666666,152.26883691470118L135.33333333333334,153.32374638328093L140,154.07869831570366L144.66666666666669,155.10432697408956L149.33333333333334,156.6528900466489L154,157.6795211878169L158.66666666666666,158.59466738406692L163.33333333333334,158.8798030207894L168,160.2177392358896L172.66666666666669,161.69209910656127L177.33333333333331,162.4807792679441L182,162.94709788141816L186.66666666666666,163.47641482264893L191.33333333333334,163.97937952524566L196,165.05701204690897L200.66666666666666,166.24539073446434L205.33333333333331,167.3815002081462L210,168.1568686011907L214.66666666666669,168.90711750494262L219.33333333333334,169.13894555130128L224,169.98673732579036L228.66666666666666,170.36925618950696L233.33333333333334,171.15887350810794L238,172.02778141001573L242.66666666666669,172.3954529057795L247.33333333333331,172.54884353967952L252,173.12330760724245" style="fill: none;" fill="none"></path></g><g><path stroke="rgb(238, 51, 119)" stroke-width="2px" d="M23.333333333333332,24.972000161042587L28,49.05052361465419L32.666666666666664,62.863146810460506L37.333333333333336,70.36587868238973L42,76.7967325454033L46.666666666666664,84.81686977730878L51.33333333333333,88.34397753574387L56,91.26258136117866L60.66666666666667,93.44714265865632L65.33333333333333,95.29936554968376L70,93.90294018556025L74.66666666666667,95.60829922547929L79.33333333333333,94.98041203275343L84,95.76780025953632L88.66666666666666,94.8586168434048L93.33333333333333,89.81551156522453L98,91.852894589436L102.66666666666666,89.56845985576184L107.33333333333334,91.45335926527618L112,91.37477127777304L116.66666666666667,91.84009686228022L121.33333333333334,92.00235337635293L126,90.94865898118535L130.66666666666666,89.98310191039991L135.33333333333334,87.64020359521898L140,86.21420467666212L144.66666666666669,87.38941112362804L149.33333333333334,88.09309779503567L154,88.43154231477796L158.66666666666666,88.08800000656166L163.33333333333334,86.08593199253436L168,86.02293333175972L172.66666666666669,84.19388637333115L177.33333333333331,82.99532411610149L182,83.24719460603797L186.66666666666666,81.31326325299997L191.33333333333334,81.0507316308622L196,80.33637843108053L200.66666666666666,77.18689551224274L205.33333333333331,73.27300547916089L210,74.59989340396125L214.66666666666669,73.34277273575559L219.33333333333334,72.69235312996994L224,73.18323515697095L228.66666666666666,73.42753003699252L233.33333333333334,73.18174352672524L238,72.35500438831461L242.66666666666669,70.93705533725453L247.33333333333331,70.93378541477438L252,69.2193357545012" style="fill: none;" fill="none"></path></g><g><path stroke="rgb(51, 187, 238)" stroke-width="2px" d="M28,-11.645818027166216L32.666666666666664,29.25123612318344L37.333333333333336,55.21665903410086L42,73.33882347054283L46.666666666666664,86.82268480969545L51.33333333333333,96.74686933228705L56,104.30129073054998L60.66666666666667,110.78823052018697L65.33333333333333,116.11809008831203L70,120.56345360050238L74.66666666666667,124.50599663523002L79.33333333333333,127.39244427652956L84,130.59046685780734L88.66666666666666,133.37346766700517L93.33333333333333,135.6342142456664L98,138.06383955153868L102.66666666666666,140.14759645378723L107.33333333333334,141.76485698525056L112,143.45127235207923L116.66666666666667,144.87561528465L121.33333333333334,146.46638113603052L126,148.0356884061059L130.66666666666666,149.52298456189038L135.33333333333334,150.79641244001303L140,151.68349756290846L144.66666666666669,153.13951970962881L149.33333333333334,154.33113780275016L154,155.2912218138832L158.66666666666666,156.20096419562955L163.33333333333334,157.09008545130752L168,158.14370266531145L172.66666666666669,158.83445954888444L177.33333333333331,159.81088647036287L182,160.7138433070623L186.66666666666666,161.37017390259345L191.33333333333334,162.36728338994695L196,163.0760321566762L200.66666666666666,163.73362688598934L205.33333333333331,164.12775360635237L210,164.81298953885562L214.66666666666669,165.54378079135762L219.33333333333334,166.00064732520022L224,166.70025141305027L228.66666666666666,167.20941997747113L233.33333333333334,167.8921363963825L238,168.40002321939286L242.66666666666669,168.98074084871385L247.33333333333331,169.47452334170544L252,169.85803771637805" style="fill: none;" fill="none"></path></g><g><path stroke="rgb(0, 119, 187)" stroke-width="2px" d="M28,-10.875838864308113L32.666666666666664,13.14640728083661L37.333333333333336,30.00514816234893L42,45.673610588103074L46.666666666666664,58.549854243379976L51.33333333333333,66.83134816065855L56,70.75657858258539L60.66666666666667,77.02584612046095L65.33333333333333,79.34530392004866L70,80.68263927093122L74.66666666666667,83.93826064511647L79.33333333333333,86.14094463806259L84,88.18448359457243L88.66666666666666,90.22272138878844L93.33333333333333,87.81562651997265L98,89.61138593111691L102.66666666666666,92.74202377286653L107.33333333333334,95.614919679151L112,94.47356163373881L116.66666666666667,95.89023388623767L121.33333333333334,96.0989988517995L126,95.96135961809931L130.66666666666666,96.46152826658911L135.33333333333334,95.19047157129248L140,95.91948163570584L144.66666666666669,96.75666211642447L149.33333333333334,97.60023487788858L154,96.74596857972692L158.66666666666666,92.79393872103691L163.33333333333334,94.72594611424444L168,95.0115658788018L172.66666666666669,93.76321103354717L177.33333333333331,94.49076104384643L182,92.84100992360055L186.66666666666666,93.46605725952276L191.33333333333334,93.68961979990064L196,87.066624348414L200.66666666666666,89.56099292254825L205.33333333333331,91.27504596206329L210,91.62123017027366L214.66666666666669,90.06564042891647L219.33333333333334,87.3835068011942L224,89.42939743545385L228.66666666666666,89.48151936023021L233.33333333333334,88.52710800557035L238,88.3714711058325L242.66666666666669,87.76877041708262L247.33333333333331,87.39403145709854L252,87.84277453220709" style="fill: none;" fill="none"></path></g><g><path stroke="rgb(255, 112, 67)" stroke-width="2px" d="M32.666666666666664,-15.898992370679558L37.333333333333336,15.576241307028045L42,38.07179798169522L46.666666666666664,55.52801558959684L51.33333333333333,69.20420303464442L56,80.11435403209059L60.66666666666667,89.20146419178008L65.33333333333333,96.41316091279617L70,102.36616246860383L74.66666666666667,107.33132733678971L79.33333333333333,111.40696408857082L84,115.20336913644661L88.66666666666666,118.63186086423721L93.33333333333333,121.71546133209785L98,124.27080419960929L102.66666666666666,126.65857862308476L107.33333333333334,128.91450660343486L112,130.78181679310202L116.66666666666667,132.19790107947858L121.33333333333334,133.98066916260362L126,135.59893873751167L130.66666666666666,137.1197661196212L135.33333333333334,138.41486673568446L140,139.65861490345816L144.66666666666669,141.09894404017206L149.33333333333334,142.274537860517L154,143.32908636417181L158.66666666666666,144.44122050214682L163.33333333333334,145.22217935990764L168,146.2530819909732L172.66666666666669,147.119122990279L177.33333333333331,148.03474062636153L182,148.90904680613892L186.66666666666666,149.78752085597566L191.33333333333334,150.66064702235343L196,151.42755566680697L200.66666666666666,152.2728101361177L205.33333333333331,153.0249059266688L210,153.70511105375994L214.66666666666669,154.3974831730376L219.33333333333334,154.96484502269206L224,155.54092325164336L228.66666666666666,156.21428380173793L233.33333333333334,156.89030455557315L238,157.44057911411912L242.66666666666669,157.96061533637382L247.33333333333331,158.6122955392586L252,158.95308048354124" style="fill: none;" fill="none"></path></g></g></g></g><g opacity="0.2"><g><g><g><path stroke="rgb(51, 187, 238)" stroke-width="2px" d="M23.333333333333332,58.20499591414745L28,24.91229109351452L32.666666666666664,58.78788463656719L37.333333333333336,84.62248463355579L42,76.41812805258311L46.666666666666664,81.2075236256306L51.33333333333333,67.33572559173291L56,85.4187779862147L60.66666666666667,64.41025517766292L65.33333333333333,65.65995601965831L70,72.93141674995422L74.66666666666667,72.16536341263698L79.33333333333333,64.74737910582469L84,69.75142705211273L88.66666666666666,71.72175527077454L93.33333333333333,72.74936800278151L98,64.97005558243164L102.66666666666666,59.2239758876654L107.33333333333334,64.44230086986835L112,63.97845494517914L116.66666666666667,64.72794271890933L121.33333333333334,53.09990107325408L126,52.35422753829223L130.66666666666666,49.83137234357688L135.33333333333334,53.51575454152549L140,42.77322494525176L144.66666666666669,43.02108959968273L149.33333333333334,29.655418732991592L154,48.83578501527126L158.66666666666666,13.04437846403857L163.33333333333334,36.20978228633221L168,30.45376122456332L172.66666666666669,3.7493829131126404L177.33333333333331,34.43125144105692L182,15.09406516643672L186.66666666666666,39.402736338285294L191.33333333333334,30.606219188525124L196,36.069781463879806L200.66666666666666,13.914450961809907L205.33333333333331,13.200620234012604L210,5.180331106369318L214.66666666666669,18.069069963235126L219.33333333333334,5.332839791591365L224,16.682573882433086L228.66666666666666,-2.8492298676417485L233.33333333333334,8.960059129274818L238,10.381786197423935L242.66666666666669,0.3013313550215516L247.33333333333331,4.924127876758575L252,4.519514239751386" style="fill: none;" fill="none"></path></g><g><path stroke="rgb(204, 51, 17)" stroke-width="2px" d="M23.333333333333332,-36.582073495938204L28,62.163840995385094L32.666666666666664,83.43030170064705L37.333333333333336,94.46541688648554L42,101.57974315262759L46.666666666666664,106.10803582232731L51.33333333333333,111.94696585604778L56,116.08445121577152L60.66666666666667,118.4259677609572L65.33333333333333,122.09924707504419L70,124.64600212757404L74.66666666666667,126.1283411016831L79.33333333333333,129.05182324235255L84,130.27712208605732L88.66666666666666,132.7476126517241L93.33333333333333,134.03182423917147L98,134.72529545311744L102.66666666666666,136.62833938403773L107.33333333333334,138.77941281348467L112,139.21834191909204L116.66666666666667,141.02945102980505L121.33333333333334,140.6325495604139L126,141.5070677766433L130.66666666666666,143.17995384507455L135.33333333333334,144.82269373249548L140,146.5384341936845L144.66666666666669,144.97301633140216L149.33333333333334,147.58357619322265L154,147.0133322809751L158.66666666666666,148.5494712957969L163.33333333333334,147.2387603859489L168,148.59413897360747L172.66666666666669,155.63842171545213L177.33333333333331,147.3616275666998L182,152.6042099916018L186.66666666666666,153.24151755410892L191.33333333333334,154.17673390244062L196,153.77189962795148L200.66666666666666,154.49778679930247L205.33333333333331,155.39382351017915L210,156.81442076225693L214.66666666666669,154.65883187261912L219.33333333333334,154.4174823640631L224,154.82582147763324L228.66666666666666,156.90673852797883L233.33333333333334,155.73242215898173L238,155.96253183627357L242.66666666666669,158.82416447223378L247.33333333333331,160.03521444591192L252,159.14272188309295" style="fill: none;" fill="none"></path></g><g><path stroke="rgb(255, 112, 67)" stroke-width="2px" d="M23.333333333333332,25.34158569574356L28,75.78295585513115L32.666666666666664,74.33776513200539L37.333333333333336,80.76884559026131L42,89.8145867242263L46.666666666666664,86.22715314305746L51.33333333333333,76.42246979245773L56,87.43596250506549L60.66666666666667,88.85401735397485L65.33333333333333,87.22838067549927L70,81.76769936772494L74.66666666666667,73.38540246165716L79.33333333333333,73.35490884001439L84,85.98818499766864L88.66666666666666,69.41187864771256L93.33333333333333,79.60491439929375L98,72.87456836150243L102.66666666666666,79.32994430340254L107.33333333333334,81.04907040871107L112,73.19945832169974L116.66666666666667,76.14341156299298L121.33333333333334,73.37599874001282L126,71.95355142996861L130.66666666666666,66.03045453704321L135.33333333333334,71.27879636104291L140,71.91267009423329L144.66666666666669,65.06505650281906L149.33333333333334,53.95729325597103L154,66.24589816194316L158.66666666666666,62.45033496159774L163.33333333333334,61.704326666318465L168,60.82536780375701L172.66666666666669,56.74897112983924L177.33333333333331,52.50915055550063L182,55.639737745890265L186.66666666666666,52.22931121862853L191.33333333333334,48.29359503205006L196,48.597019754923316L200.66666666666666,50.9267892562426L205.33333333333331,41.847815552583114L210,44.24433423234866L214.66666666666669,45.91011171616042L219.33333333333334,46.192659568328125L224,44.695449120723296L228.66666666666666,42.629795365608665L233.33333333333334,36.82970767296279L238,35.859014339171935L242.66666666666669,40.02964097032181L247.33333333333331,34.63041354142703L252,35.957159977692825" style="fill: none;" fill="none"></path></g><g><path stroke="rgb(187, 187, 187)" stroke-width="2px" d="M23.333333333333332,-58.51352035540801L28,54.750523044512825L32.666666666666664,79.3702981380316L37.333333333333336,93.73602994817955L42,101.40590617748407L46.666666666666664,110.01187369685906L51.33333333333333,114.52313416737778L56,119.25194319509542L60.66666666666667,121.99783498736528L65.33333333333333,126.57658009460339L70,129.0843812192862L74.66666666666667,132.35770818017994L79.33333333333333,135.73099406464743L84,137.06950276115765L88.66666666666666,140.28421623374408L93.33333333333333,141.84090243108L98,143.6427092626691L102.66666666666666,144.87679049258048L107.33333333333334,148.03949692100286L112,148.9860469349302L116.66666666666667,149.31740385580522L121.33333333333334,151.88111248956275L126,152.85500633487334L130.66666666666666,154.62050942446177L135.33333333333334,154.90610308830554L140,155.21112299481263L144.66666666666669,156.6427673373658L149.33333333333334,158.9757322780788L154,159.21946695389656L158.66666666666666,159.96738617265453L163.33333333333334,159.30750638131912L168,162.22464329233537L172.66666666666669,163.9036387365598L177.33333333333331,163.66379945352674L182,163.64657578158838L186.66666666666666,164.2703902208461L191.33333333333334,164.7338265713591L196,166.67346081940028L200.66666666666666,168.02795875917835L205.33333333333331,169.08566441487235L210,169.31992118920272L214.66666666666669,170.03249085966783L219.33333333333334,169.4866876206719L224,171.25842498715681L228.66666666666666,170.9430344849825L233.33333333333334,172.34329948588632L238,173.3311432627961L242.66666666666669,172.94696014940453L247.33333333333331,172.7789294905244L252,173.9850037085752" style="fill: none;" fill="none"></path></g><g><path stroke="rgb(238, 51, 119)" stroke-width="2px" d="M23.333333333333332,24.972000161042587L28,63.497637686821136L32.666666666666664,76.12326507843459L37.333333333333336,79.18909136377849L42,85.19285534895384L46.666666666666664,95.91160681843758L51.33333333333333,93.38779806403014L56,95.5179337572593L60.66666666666667,96.66894624324945L65.33333333333333,98.04970067739487L70,91.82096761465073L74.66666666666667,98.15705729677127L79.33333333333333,94.04063140428984L84,96.94734002420536L88.66666666666666,93.49591043018378L93.33333333333333,82.25441043652022L98,94.90810697353804L102.66666666666666,86.14238777298195L107.33333333333334,94.28042123409418L112,91.25689647977168L116.66666666666667,92.53805971948L121.33333333333334,92.24573280834235L126,89.36813819179169L130.66666666666666,88.53477774216579L135.33333333333334,84.12587277476604L140,84.07521238006079L144.66666666666669,89.1522177870457L149.33333333333334,89.1486267218223L154,88.9392087826362L158.66666666666666,87.57268673410782L163.33333333333334,83.08283063540092L168,85.9284353531324L172.66666666666669,81.45031615403983L177.33333333333331,81.19748081610753L182,83.62500033011803L186.66666666666666,78.41236627331146L191.33333333333334,80.65693420171738L196,79.26484863803937L200.66666666666666,72.462671151528L205.33333333333331,67.40217044261786L210,76.59022528850116L214.66666666666669,71.45709173495953L219.33333333333334,71.71672372176097L224,73.9195581972599L228.66666666666666,73.79397235696132L233.33333333333334,72.81306376136267L238,71.11489568077602L242.66666666666669,68.81013176074394L247.33333333333331,70.92888053105428L252,66.64766126412613" style="fill: none;" fill="none"></path></g><g><path stroke="rgb(51, 187, 238)" stroke-width="2px" d="M23.333333333333332,-94.97537066844794L28,38.351913557602806L32.666666666666664,68.51240810751915L37.333333333333336,85.75199637733974L42,96.99912135876143L46.666666666666664,105.47571923182562L51.33333333333333,110.93861198654541L56,115.31570965166276L60.66666666666667,120.35520668671683L65.33333333333333,124.0323103838242L70,127.19117974891113L74.66666666666667,130.3983560422292L79.33333333333333,131.71269098611978L84,135.38123547056546L88.66666666666666,137.54469756782055L93.33333333333333,139.02373966001548L98,141.7072493743438L102.66666666666666,143.2727027415083L107.33333333333334,144.19050140908132L112,145.98074125727783L116.66666666666667,147.01205156915464L121.33333333333334,148.85247756827337L126,150.38961832798446L130.66666666666666,151.75391117712627L135.33333333333334,152.70654520621667L140,153.0141214642387L144.66666666666669,155.32354920414778L149.33333333333334,156.11856311301773L154,156.73134694620967L158.66666666666666,157.5655772654483L163.33333333333334,158.42376703998218L168,159.72412827668282L172.66666666666669,159.87059479178143L177.33333333333331,161.27552678264104L182,162.06827852330528L186.66666666666666,162.35466977896598L191.33333333333334,163.8629476055503L196,164.13915530019082L200.66666666666666,164.72001897629636L205.33333333333331,164.71894368557977L210,165.84084343623655L214.66666666666669,166.6399676692314L219.33333333333334,166.68594712563433L224,167.74965754452234L228.66666666666666,167.97317282397015L233.33333333333334,168.91621102464313L238,169.16185345386083L242.66666666666669,169.85181729266276L247.33333333333331,170.21519708117614L252,170.43330927837926" style="fill: none;" fill="none"></path></g><g><path stroke="rgb(0, 119, 187)" stroke-width="2px" d="M28,-6.58746789968932L32.666666666666664,36.20776358017555L37.333333333333336,49.83102743900741L42,66.13035513116763L46.666666666666664,76.36233466634384L51.33333333333333,78.67401696626956L56,76.47960221996674L60.66666666666667,86.27179799630092L65.33333333333333,82.78942843354666L70,82.67651276405041L74.66666666666667,88.80397575864426L79.33333333333333,89.43777848207034L84,91.24578852378406L88.66666666666666,93.2776822080979L93.33333333333333,84.2066818865446L98,92.30426514263337L102.66666666666666,97.43718566688207L107.33333333333334,99.92382588180212L112,92.76162889026679L116.66666666666667,98.01516457131275L121.33333333333334,96.41213943064213L126,95.75490348499554L130.66666666666666,97.2117753143494L135.33333333333334,93.28389556247456L140,97.0129936234309L144.66666666666669,98.01243069538704L149.33333333333334,98.86559272500185L154,95.46456991938445L158.66666666666666,86.86589611722873L163.33333333333334,97.62395656338104L168,95.43999546880906L172.66666666666669,91.89067891469368L177.33333333333331,95.58208600718243L182,90.36638331413269L186.66666666666666,94.40362824728855L191.33333333333334,94.02496360700863L196,77.13213123266513L200.66666666666666,93.30254576985652L205.33333333333331,93.84612551560768L210,92.14050648189509L214.66666666666669,87.73225581875214L219.33333333333334,83.36030636154689L224,92.4982333859572L228.66666666666666,89.55970224738121L233.33333333333334,87.09549097372935L238,88.13801575624026L242.66666666666669,86.86471938399168L247.33333333333331,86.83192301713504L252,88.51588914486078" style="fill: none;" fill="none"></path></g><g><path stroke="rgb(255, 112, 67)" stroke-width="2px" d="M28,-2.8085717054513664L32.666666666666664,31.556563152716713L37.333333333333336,52.59111611201213L42,67.44199677614066L46.666666666666664,79.67624877966368L51.33333333333333,88.76136990006154L56,96.02145892381668L60.66666666666667,102.60318659704464L65.33333333333333,107.12169006352241L70,111.2416715163451L74.66666666666667,114.7520544311175L79.33333333333333,117.50711155510866L84,120.89053915555661L88.66666666666666,123.77056839259771L93.33333333333333,126.33868723993118L98,128.10273716541437L102.66666666666666,130.23963400263054L107.33333333333334,132.29805490603815L112,133.582611398055L116.66666666666667,134.32194984761568L121.33333333333334,136.65476262454803L126,138.026311149964L130.66666666666666,139.40098917713533L135.33333333333334,140.3575084547584L140,141.52423185110092L144.66666666666669,143.2594340598354L149.33333333333334,144.037926786221L154,144.9109081482658L158.66666666666666,146.10942109444966L163.33333333333334,146.39361738757444L168,147.79943573245635L172.66666666666669,148.41818438584988L177.33333333333331,149.40816701490147L182,150.22050603823018L186.66666666666666,151.10523190807837L191.33333333333334,151.9703362584114L196,152.57791862636805L200.66666666666666,153.54069183537592L205.33333333333331,154.15304960998205L210,154.7254187430327L214.66666666666669,155.4360413511212L219.33333333333334,155.8158877967642L224,156.4050405948208L228.66666666666666,157.22432462670483L233.33333333333334,157.90433568622058L238,158.26599095188655L242.66666666666669,158.7406696697267L247.33333333333331,159.5898158435638L252,159.46425789995837" style="fill: none;" fill="none"></path></g></g></g></g></g></g><g transform="translate(50, 177)" clip-path="url(#clip_1)"><clipPath id="clip_1"><rect width="280" height="23"></rect></clipPath><g><g><line x1="0" y1="0" x2="0" y2="5" style="visibility: inherit;" fill="rgb(0, 0, 0)" stroke="rgb(204, 204, 204)" stroke-width="1px"></line><line x1="23.333333333333332" y1="0" x2="23.333333333333332" y2="5" style="visibility: inherit;" fill="rgb(0, 0, 0)" stroke="rgb(204, 204, 204)" stroke-width="1px"></line><line x1="46.666666666666664" y1="0" x2="46.666666666666664" y2="5" style="visibility: inherit;" fill="rgb(0, 0, 0)" stroke="rgb(204, 204, 204)" stroke-width="1px"></line><line x1="70" y1="0" x2="70" y2="5" style="visibility: inherit;" fill="rgb(0, 0, 0)" stroke="rgb(204, 204, 204)" stroke-width="1px"></line><line x1="93.33333333333333" y1="0" x2="93.33333333333333" y2="5" style="visibility: inherit;" fill="rgb(0, 0, 0)" stroke="rgb(204, 204, 204)" stroke-width="1px"></line><line x1="116.66666666666667" y1="0" x2="116.66666666666667" y2="5" style="visibility: inherit;" fill="rgb(0, 0, 0)" stroke="rgb(204, 204, 204)" stroke-width="1px"></line><line x1="140" y1="0" x2="140" y2="5" style="visibility: inherit;" fill="rgb(0, 0, 0)" stroke="rgb(204, 204, 204)" stroke-width="1px"></line><line x1="163.33333333333334" y1="0" x2="163.33333333333334" y2="5" style="visibility: inherit;" fill="rgb(0, 0, 0)" stroke="rgb(204, 204, 204)" stroke-width="1px"></line><line x1="186.66666666666666" y1="0" x2="186.66666666666666" y2="5" style="visibility: inherit;" fill="rgb(0, 0, 0)" stroke="rgb(204, 204, 204)" stroke-width="1px"></line><line x1="210" y1="0" x2="210" y2="5" style="visibility: inherit;" fill="rgb(0, 0, 0)" stroke="rgb(204, 204, 204)" stroke-width="1px"></line><line x1="233.33333333333334" y1="0" x2="233.33333333333334" y2="5" style="visibility: inherit;" fill="rgb(0, 0, 0)" stroke="rgb(204, 204, 204)" stroke-width="1px"></line><line x1="256.66666666666663" y1="0" x2="256.66666666666663" y2="5" style="visibility: inherit;" fill="rgb(0, 0, 0)" stroke="rgb(204, 204, 204)" stroke-width="1px"></line><line x1="280" y1="0" x2="280" y2="5" style="visibility: inherit;" fill="rgb(0, 0, 0)" stroke="rgb(204, 204, 204)" stroke-width="1px"></line></g><g transform="translate(0, 8)"><text x="0" y="0" dx="0em" dy="0.95em" style="text-anchor: middle; visibility: hidden; font-family: Roboto, sans-serif; font-size: 12px; font-weight: 200;" fill="rgb(255, 255, 255)" stroke="none" stroke-width="1px">-5</text><text x="23.333333333333332" y="0" dx="0em" dy="0.95em" style="text-anchor: middle; visibility: inherit; font-family: Roboto, sans-serif; font-size: 12px; font-weight: 200;" fill="rgb(255, 255, 255)" stroke="none" stroke-width="1px">0</text><text x="46.666666666666664" y="0" dx="0em" dy="0.95em" style="text-anchor: middle; visibility: inherit; font-family: Roboto, sans-serif; font-size: 12px; font-weight: 200;" fill="rgb(255, 255, 255)" stroke="none" stroke-width="1px">5</text><text x="70" y="0" dx="0em" dy="0.95em" style="text-anchor: middle; visibility: inherit; font-family: Roboto, sans-serif; font-size: 12px; font-weight: 200;" fill="rgb(255, 255, 255)" stroke="none" stroke-width="1px">10</text><text x="93.33333333333333" y="0" dx="0em" dy="0.95em" style="text-anchor: middle; visibility: inherit; font-family: Roboto, sans-serif; font-size: 12px; font-weight: 200;" fill="rgb(255, 255, 255)" stroke="none" stroke-width="1px">15</text><text x="116.66666666666667" y="0" dx="0em" dy="0.95em" style="text-anchor: middle; visibility: inherit; font-family: Roboto, sans-serif; font-size: 12px; font-weight: 200;" fill="rgb(255, 255, 255)" stroke="none" stroke-width="1px">20</text><text x="140" y="0" dx="0em" dy="0.95em" style="text-anchor: middle; visibility: inherit; font-family: Roboto, sans-serif; font-size: 12px; font-weight: 200;" fill="rgb(255, 255, 255)" stroke="none" stroke-width="1px">25</text><text x="163.33333333333334" y="0" dx="0em" dy="0.95em" style="text-anchor: middle; visibility: inherit; font-family: Roboto, sans-serif; font-size: 12px; font-weight: 200;" fill="rgb(255, 255, 255)" stroke="none" stroke-width="1px">30</text><text x="186.66666666666666" y="0" dx="0em" dy="0.95em" style="text-anchor: middle; visibility: inherit; font-family: Roboto, sans-serif; font-size: 12px; font-weight: 200;" fill="rgb(255, 255, 255)" stroke="none" stroke-width="1px">35</text><text x="210" y="0" dx="0em" dy="0.95em" style="text-anchor: middle; visibility: inherit; font-family: Roboto, sans-serif; font-size: 12px; font-weight: 200;" fill="rgb(255, 255, 255)" stroke="none" stroke-width="1px">40</text><text x="233.33333333333334" y="0" dx="0em" dy="0.95em" style="text-anchor: middle; visibility: inherit; font-family: Roboto, sans-serif; font-size: 12px; font-weight: 200;" fill="rgb(255, 255, 255)" stroke="none" stroke-width="1px">45</text><text x="256.66666666666663" y="0" dx="0em" dy="0.95em" style="text-anchor: middle; visibility: inherit; font-family: Roboto, sans-serif; font-size: 12px; font-weight: 200;" fill="rgb(255, 255, 255)" stroke="none" stroke-width="1px">50</text><text x="280" y="0" dx="0em" dy="0.95em" style="text-anchor: middle; visibility: hidden; font-family: Roboto, sans-serif; font-size: 12px; font-weight: 200;" fill="rgb(255, 255, 255)" stroke="none" stroke-width="1px">55</text></g><line x1="0" y1="0" x2="280" y2="0" fill="rgb(0, 0, 0)" stroke="rgb(204, 204, 204)" stroke-width="1px"></line></g></g></g></g></svg>