<svg viewBox="0 0 330.0000305175781 200.00001525878906" xmlns="http://www.w3.org/2000/svg"><g><g><g><g><g><line x1="60" y1="177" x2="55" y2="177" style="visibility: inherit;" fill="rgb(0, 0, 0)" stroke="rgb(204, 204, 204)" stroke-width="1px"></line><line x1="60" y1="165.2" x2="55" y2="165.2" style="visibility: inherit;" fill="rgb(0, 0, 0)" stroke="rgb(204, 204, 204)" stroke-width="1px"></line><line x1="60" y1="153.4" x2="55" y2="153.4" style="visibility: inherit;" fill="rgb(0, 0, 0)" stroke="rgb(204, 204, 204)" stroke-width="1px"></line><line x1="60" y1="141.6" x2="55" y2="141.6" style="visibility: inherit;" fill="rgb(0, 0, 0)" stroke="rgb(204, 204, 204)" stroke-width="1px"></line><line x1="60" y1="129.8" x2="55" y2="129.8" style="visibility: inherit;" fill="rgb(0, 0, 0)" stroke="rgb(204, 204, 204)" stroke-width="1px"></line><line x1="60" y1="118.00000000000001" x2="55" y2="118.00000000000001" style="visibility: inherit;" fill="rgb(0, 0, 0)" stroke="rgb(204, 204, 204)" stroke-width="1px"></line><line x1="60" y1="106.2" x2="55" y2="106.2" style="visibility: inherit;" fill="rgb(0, 0, 0)" stroke="rgb(204, 204, 204)" stroke-width="1px"></line><line x1="60" y1="94.4" x2="55" y2="94.4" style="visibility: inherit;" fill="rgb(0, 0, 0)" stroke="rgb(204, 204, 204)" stroke-width="1px"></line><line x1="60" y1="82.6" x2="55" y2="82.6" style="visibility: inherit;" fill="rgb(0, 0, 0)" stroke="rgb(204, 204, 204)" stroke-width="1px"></line><line x1="60" y1="70.8" x2="55" y2="70.8" style="visibility: inherit;" fill="rgb(0, 0, 0)" stroke="rgb(204, 204, 204)" stroke-width="1px"></line><line x1="60" y1="59.00000000000001" x2="55" y2="59.00000000000001" style="visibility: inherit;" fill="rgb(0, 0, 0)" stroke="rgb(204, 204, 204)" stroke-width="1px"></line><line x1="60" y1="47.20000000000001" x2="55" y2="47.20000000000001" style="visibility: inherit;" fill="rgb(0, 0, 0)" stroke="rgb(204, 204, 204)" stroke-width="1px"></line><line x1="60" y1="35.39999999999999" x2="55" y2="35.39999999999999" style="visibility: inherit;" fill="rgb(0, 0, 0)" stroke="rgb(204, 204, 204)" stroke-width="1px"></line><line x1="60" y1="23.599999999999994" x2="55" y2="23.599999999999994" style="visibility: inherit;" fill="rgb(0, 0, 0)" stroke="rgb(204, 204, 204)" stroke-width="1px"></line><line x1="60" y1="11.799999999999997" x2="55" y2="11.799999999999997" style="visibility: inherit;" fill="rgb(0, 0, 0)" stroke="rgb(204, 204, 204)" stroke-width="1px"></line><line x1="60" y1="0" x2="55" y2="0" style="visibility: inherit;" fill="rgb(0, 0, 0)" stroke="rgb(204, 204, 204)" stroke-width="1px"></line></g><g transform="translate(50, 0)"><text x="0" y="177" dx="0em" dy="0.3em" style="text-anchor: end; visibility: hidden; font-family: Roboto, sans-serif; font-size: 12px; font-weight: 200;" fill="rgb(255, 255, 255)" stroke="none" stroke-width="1px">0.972</text><text x="0" y="165.2" dx="0em" dy="0.3em" style="text-anchor: end; visibility: inherit; font-family: Roboto, sans-serif; font-size: 12px; font-weight: 200;" fill="rgb(255, 255, 255)" stroke="none" stroke-width="1px">0.974</text><text x="0" y="153.4" dx="0em" dy="0.3em" style="text-anchor: end; visibility: hidden; font-family: Roboto, sans-serif; font-size: 12px; font-weight: 200;" fill="rgb(255, 255, 255)" stroke="none" stroke-width="1px">0.976</text><text x="0" y="141.6" dx="0em" dy="0.3em" style="text-anchor: end; visibility: inherit; font-family: Roboto, sans-serif; font-size: 12px; font-weight: 200;" fill="rgb(255, 255, 255)" stroke="none" stroke-width="1px">0.978</text><text x="0" y="129.8" dx="0em" dy="0.3em" style="text-anchor: end; visibility: hidden; font-family: Roboto, sans-serif; font-size: 12px; font-weight: 200;" fill="rgb(255, 255, 255)" stroke="none" stroke-width="1px">0.98</text><text x="0" y="118.00000000000001" dx="0em" dy="0.3em" style="text-anchor: end; visibility: inherit; font-family: Roboto, sans-serif; font-size: 12px; font-weight: 200;" fill="rgb(255, 255, 255)" stroke="none" stroke-width="1px">0.982</text><text x="0" y="106.2" dx="0em" dy="0.3em" style="text-anchor: end; visibility: hidden; font-family: Roboto, sans-serif; font-size: 12px; font-weight: 200;" fill="rgb(255, 255, 255)" stroke="none" stroke-width="1px">0.984</text><text x="0" y="94.4" dx="0em" dy="0.3em" style="text-anchor: end; visibility: inherit; font-family: Roboto, sans-serif; font-size: 12px; font-weight: 200;" fill="rgb(255, 255, 255)" stroke="none" stroke-width="1px">0.986</text><text x="0" y="82.6" dx="0em" dy="0.3em" style="text-anchor: end; visibility: hidden; font-family: Roboto, sans-serif; font-size: 12px; font-weight: 200;" fill="rgb(255, 255, 255)" stroke="none" stroke-width="1px">0.988</text><text x="0" y="70.8" dx="0em" dy="0.3em" style="text-anchor: end; visibility: inherit; font-family: Roboto, sans-serif; font-size: 12px; font-weight: 200;" fill="rgb(255, 255, 255)" stroke="none" stroke-width="1px">0.99</text><text x="0" y="59.00000000000001" dx="0em" dy="0.3em" style="text-anchor: end; visibility: hidden; font-family: Roboto, sans-serif; font-size: 12px; font-weight: 200;" fill="rgb(255, 255, 255)" stroke="none" stroke-width="1px">0.992</text><text x="0" y="47.20000000000001" dx="0em" dy="0.3em" style="text-anchor: end; visibility: inherit; font-family: Roboto, sans-serif; font-size: 12px; font-weight: 200;" fill="rgb(255, 255, 255)" stroke="none" stroke-width="1px">0.994</text><text x="0" y="35.39999999999999" dx="0em" dy="0.3em" style="text-anchor: end; visibility: hidden; font-family: Roboto, sans-serif; font-size: 12px; font-weight: 200;" fill="rgb(255, 255, 255)" stroke="none" stroke-width="1px">0.996</text><text x="0" y="23.599999999999994" dx="0em" dy="0.3em" style="text-anchor: end; visibility: inherit; font-family: Roboto, sans-serif; font-size: 12px; font-weight: 200;" fill="rgb(255, 255, 255)" stroke="none" stroke-width="1px">0.998</text><text x="0" y="11.799999999999997" dx="0em" dy="0.3em" style="text-anchor: end; visibility: hidden; font-family: Roboto, sans-serif; font-size: 12px; font-weight: 200;" fill="rgb(255, 255, 255)" stroke="none" stroke-width="1px">1</text><text x="0" y="0" dx="0em" dy="0.3em" style="text-anchor: end; visibility: hidden; font-family: Roboto, sans-serif; font-size: 12px; font-weight: 200;" fill="rgb(255, 255, 255)" stroke="none" stroke-width="1px">1</text></g><line x1="60" y1="0" x2="60" y2="177" fill="rgb(0, 0, 0)" stroke="rgb(204, 204, 204)" stroke-width="1px"></line></g></g><g transform="translate(60, 0)" clip-path="url(#clip_0)"><clipPath id="clip_0"><rect width="270" height="177"></rect></clipPath><g><g><g><line x1="0" y1="0" x2="0" y2="177" fill="rgb(0, 0, 0)" stroke="rgb(189, 189, 189)" stroke-width="1px" opacity="0.25"></line><line x1="22.5" y1="0" x2="22.5" y2="177" fill="rgb(0, 0, 0)" stroke="rgb(189, 189, 189)" stroke-width="1px" opacity="0.25"></line><line x1="45" y1="0" x2="45" y2="177" fill="rgb(0, 0, 0)" stroke="rgb(189, 189, 189)" stroke-width="1px" opacity="0.25"></line><line x1="67.5" y1="0" x2="67.5" y2="177" fill="rgb(0, 0, 0)" stroke="rgb(189, 189, 189)" stroke-width="1px" opacity="0.25"></line><line x1="90" y1="0" x2="90" y2="177" fill="rgb(0, 0, 0)" stroke="rgb(189, 189, 189)" stroke-width="1px" opacity="0.25"></line><line x1="112.5" y1="0" x2="112.5" y2="177" fill="rgb(0, 0, 0)" stroke="rgb(189, 189, 189)" stroke-width="1px" opacity="0.25"></line><line x1="135" y1="0" x2="135" y2="177" fill="rgb(0, 0, 0)" stroke="rgb(189, 189, 189)" stroke-width="1px" opacity="0.25"></line><line x1="157.5" y1="0" x2="157.5" y2="177" fill="rgb(0, 0, 0)" stroke="rgb(189, 189, 189)" stroke-width="1px" opacity="0.25"></line><line x1="180" y1="0" x2="180" y2="177" fill="rgb(0, 0, 0)" stroke="rgb(189, 189, 189)" stroke-width="1px" opacity="0.25"></line><line x1="202.5" y1="0" x2="202.5" y2="177" fill="rgb(0, 0, 0)" stroke="rgb(189, 189, 189)" stroke-width="1px" opacity="0.25"></line><line x1="225" y1="0" x2="225" y2="177" fill="rgb(0, 0, 0)" stroke="rgb(189, 189, 189)" stroke-width="1px" opacity="0.25"></line><line x1="247.5" y1="0" x2="247.5" y2="177" fill="rgb(0, 0, 0)" stroke="rgb(189, 189, 189)" stroke-width="1px" opacity="0.25"></line><line x1="270" y1="0" x2="270" y2="177" fill="rgb(0, 0, 0)" stroke="rgb(189, 189, 189)" stroke-width="1px" opacity="0.25"></line></g><g><line x1="0" y1="177" x2="270" y2="177" fill="rgb(0, 0, 0)" stroke="rgb(189, 189, 189)" stroke-width="1px" opacity="0.25"></line><line x1="0" y1="165.2" x2="270" y2="165.2" fill="rgb(0, 0, 0)" stroke="rgb(189, 189, 189)" stroke-width="1px" opacity="0.25"></line><line x1="0" y1="153.4" x2="270" y2="153.4" fill="rgb(0, 0, 0)" stroke="rgb(189, 189, 189)" stroke-width="1px" opacity="0.25"></line><line x1="0" y1="141.6" x2="270" y2="141.6" fill="rgb(0, 0, 0)" stroke="rgb(189, 189, 189)" stroke-width="1px" opacity="0.25"></line><line x1="0" y1="129.8" x2="270" y2="129.8" fill="rgb(0, 0, 0)" stroke="rgb(189, 189, 189)" stroke-width="1px" opacity="0.25"></line><line x1="0" y1="118.00000000000001" x2="270" y2="118.00000000000001" fill="rgb(0, 0, 0)" stroke="rgb(189, 189, 189)" stroke-width="1px" opacity="0.25"></line><line x1="0" y1="106.2" x2="270" y2="106.2" fill="rgb(0, 0, 0)" stroke="rgb(189, 189, 189)" stroke-width="1px" opacity="0.25"></line><line x1="0" y1="94.4" x2="270" y2="94.4" fill="rgb(0, 0, 0)" stroke="rgb(189, 189, 189)" stroke-width="1px" opacity="0.25"></line><line x1="0" y1="82.6" x2="270" y2="82.6" fill="rgb(0, 0, 0)" stroke="rgb(189, 189, 189)" stroke-width="1px" opacity="0.25"></line><line x1="0" y1="70.8" x2="270" y2="70.8" fill="rgb(0, 0, 0)" stroke="rgb(189, 189, 189)" stroke-width="1px" opacity="0.25"></line><line x1="0" y1="59.00000000000001" x2="270" y2="59.00000000000001" fill="rgb(0, 0, 0)" stroke="rgb(189, 189, 189)" stroke-width="1px" opacity="0.25"></line><line x1="0" y1="47.20000000000001" x2="270" y2="47.20000000000001" fill="rgb(0, 0, 0)" stroke="rgb(189, 189, 189)" stroke-width="1px" opacity="0.25"></line><line x1="0" y1="35.39999999999999" x2="270" y2="35.39999999999999" fill="rgb(0, 0, 0)" stroke="rgb(189, 189, 189)" stroke-width="1px" opacity="0.25"></line><line x1="0" y1="23.599999999999994" x2="270" y2="23.599999999999994" fill="rgb(0, 0, 0)" stroke="rgb(189, 189, 189)" stroke-width="1px" opacity="0.25"></line><line x1="0" y1="11.799999999999997" x2="270" y2="11.799999999999997" fill="rgb(0, 0, 0)" stroke="rgb(189, 189, 189)" stroke-width="1px" opacity="0.25"></line><line x1="0" y1="0" x2="270" y2="0" fill="rgb(0, 0, 0)" stroke="rgb(189, 189, 189)" stroke-width="1px" opacity="0.25"></line></g></g></g><g><g><line x1="0" y1="5911.799999999995" x2="270" y2="5911.799999999995" fill="rgb(0, 0, 0)" stroke="rgb(153, 153, 153)" stroke-width="1.5px"></line></g></g><g><g><line x1="22.5" y1="0" x2="22.5" y2="177" fill="rgb(0, 0, 0)" stroke="rgb(153, 153, 153)" stroke-width="1.5px"></line></g></g><g><g><g><g><g><path stroke="rgb(255, 112, 67)" stroke-width="2px" d="M22.5,150.45014910697924L27,136.007388609647L31.5,114.52829265010637L36,105.50408765971652L40.5,99.83501226767973L45,92.39725570307318L49.5,92.81678948179596L54,88.2601515699786L58.5,89.15171247951402L63,84.33852349612663L67.5,82.06155073336859L72,80.1092802938497L76.5,77.56227424437785L81,78.59482836211615L85.5,76.0656425626134L90,74.94244889461052L94.5,74.66210693138584L99,75.477294058423L103.5,74.58970257112307L108,73.27040321269872L112.5,73.8555922244463L117,74.60000741718018L121.5,74.84999629652533L126,74.60668167214702L130.5,74.65734660689331L135,74.09778723195159L139.5,74.15535744524223L144,74.38655206868502L148.5,74.32861626701461L153,73.90054988789558L157.5,74.03701499798787L162,73.92224162439365L166.5,74.24668244969266L171,74.04804209885963L175.5,73.92885789200166L180,73.46404254031307L184.5,73.18515333236729L189,73.6077770481388L193.5,73.07460095822547L198,73.14814079735461L202.5,72.79881920866282L207,72.58922625562658L211.5,72.46347048386903L216,72.58481010024823L220.5,72.65761387006253L225,72.50450305255836L229.5,72.80608205386642L234,72.79037704222584L238.5,72.58416095586226L243,72.85387679583893" style="fill: none;" fill="none"></path></g><g><path stroke="rgb(187, 187, 187)" stroke-width="2px" d="M27,251.65659927129659L31.5,168.53888690617626L36,123.28319310125177L40.5,93.5892683619516L45,71.34053420433398L49.5,56.044518064868896L54,43.79507577055818L58.5,35.3865004462586L63,29.357141591564996L67.5,24.331951942526025L72,21.032768503389484L76.5,18.46713190744494L81,16.48701088262931L85.5,14.808069528978361L90,13.850457413483195L94.5,13.276063071314562L99,12.98058645281749L103.5,12.65589172889258L108,12.362757756476764L112.5,12.137649715703027L117,12.002588051716792L121.5,12.265766964639411L126,12.128692965859491L130.5,11.997215405721132L135,11.918329108867178L139.5,11.870997416876264L144,11.842598432686193L148.5,11.825559053333771L153,11.815335429740262L157.5,11.80920125703008L162,11.805520753925645L166.5,11.803312452249408L171,11.80198747131244L175.5,11.80119248277384L180,11.800715489659584L184.5,11.80042929379353L189,11.800257576275188L193.5,11.800154545765764L198,11.800092727458676L202.5,11.800055636475342L207,11.800033381884669L211.5,11.800020029130668L216,11.80001201747866L220.5,11.800007210487454L225,11.800004326293006L229.5,11.800002595775544L234,11.80000155746532L238.5,11.800000934479192L243,11.800000560687376" style="fill: none;" fill="none"></path></g><g><path stroke="rgb(0, 153, 136)" stroke-width="2px" d="M31.5,177.55189281483104L36,160.35196158237295L40.5,140.70325406621896L45,132.0026420918107L49.5,120.37269496087528L54,112.80659977534785L58.5,104.17693420151869L63,100.04451758947178L67.5,98.17322300082878L72,95.0838455559604L76.5,97.3699117470227L81,97.16518596959637L85.5,97.43594306553574L90,97.79502373019422L94.5,93.48635469519473L99,92.08165440111705L103.5,92.02572379440392L108,89.82863063887223L112.5,88.51042615737401L117,88.50628264794322L121.5,85.16039782838865L126,83.15288384775228L130.5,85.09511042609937L135,89.01372197650221L139.5,85.8581894441594L144,84.16152452491283L148.5,83.93027684669234L153,83.59487583840216L157.5,84.37689747337974L162,83.27275029648257L166.5,83.59366482257734L171,82.99946318926611L175.5,82.64294222017571L180,83.2157799673778L184.5,83.16617778465437L189,81.1697516768068L193.5,80.56185325540123L198,80.39376661610211L202.5,80.09626222009393L207,80.11441199515092L211.5,80.7152590975937L216,80.48581012160257L220.5,79.56153108629348L225,79.79357331487707L229.5,79.14618900232946L234,80.13432530174912L238.5,79.74394501930117L243,81.47638164095858" style="fill: none;" fill="none"></path></g><g><path stroke="rgb(238, 51, 119)" stroke-width="2px" d="M40.5,181.01397246560006L45,143.58982351107295L49.5,117.78310441671184L54,97.86874573900641L58.5,84.79539188390089L63,73.07895445772422L67.5,63.873990841657594L72,56.45067704920041L76.5,49.29946673090228L81,44.916178716722605L85.5,40.66518934795659L90,36.34536342900454L94.5,32.869162287408365L99,29.996987992663627L103.5,27.290548132091853L108,24.880010685609268L112.5,22.548789355036117L117,21.051761786239606L121.5,19.366941993904867L126,18.847691994666203L130.5,17.651064530654413L135,16.78567100226042L139.5,15.97145690946436L144,15.43369552030685L148.5,14.914386413291593L153,14.307822387707253L157.5,13.94388405817783L162,13.823847305389112L166.5,13.505939399088446L171,13.216868456000213L175.5,12.84677347965313L180,12.575623727786782L184.5,12.363700441567836L189,12.334872677248212L193.5,12.317576018725221L198,12.208871817296345L202.5,12.192882733157104L207,12.0849630764262L211.5,12.020211282421714L216,11.981360206030953L220.5,11.908816123610848L225,11.865289674164146L229.5,11.888407241084014L234,11.85304434464948L238.5,11.88106004337455L243,11.848636026024478" style="fill: none;" fill="none"></path></g></g></g></g><g opacity="0.2"><g><g><g><path stroke="rgb(255, 112, 67)" stroke-width="2px" d="M22.5,150.45014910697924L27,127.34173231124868L31.5,93.90836052894585L36,94.8916225910186L40.5,92.43346743583672L45,82.10816078186028L49.5,93.41672949790947L54,81.6165297508239L58.5,90.46659164428704L63,77.19149880409235L67.5,78.66674356460564L72,77.19149880409235L76.5,73.75008158683771L81,80.14163665771477L85.5,72.2748368263244L90,73.25845055580133L94.5,74.24171261787409L99,76.69986777305597L103.5,73.25845055580133L108,71.29157476425165L112.5,74.73334364891046L117,75.71660571098322L121.5,75.22497467994684L126,74.24171261787409L130.5,74.73334364891046L135,73.25845055580133L139.5,74.24171261787409L144,74.73334364891046L148.5,74.24171261787409L153,73.25845055580133L157.5,74.24171261787409L162,73.75008158683771L166.5,74.73334364891046L171,73.75008158683771L175.5,73.75008158683771L180,72.76681952476495L184.5,72.76681952476495L189,74.24171261787409L193.5,72.2748368263244L198,73.25845055580133L202.5,72.2748368263244L207,72.2748368263244L211.5,72.2748368263244L216,72.76681952476495L220.5,72.76681952476495L225,72.2748368263244L229.5,73.25845055580133L234,72.76681952476495L238.5,72.2748368263244L243,73.25845055580133" style="fill: none;" fill="none"></path></g><g><path stroke="rgb(187, 187, 187)" stroke-width="2px" d="M22.5,458.8480442047115L27,127.34173231124868L31.5,88.74588303565973L36,70.06249718666072L40.5,54.82088022232051L45,40.562525320053076L49.5,34.170970249175994L54,25.935271310806257L58.5,22.985485124587996L63,20.404246377944936L67.5,16.839745569229123L72,16.101947355270376L76.5,14.627054262161245L81,13.520708608627316L85.5,12.291631031036374L90,12.414714622497549L94.5,12.414714622497549L99,12.537446546554563L103.5,12.16889910697936L108,11.923083591461172L112.5,11.799999999999997L117,11.799999999999997L121.5,12.660530138015737L126,11.923083591461172L130.5,11.799999999999997L135,11.799999999999997L139.5,11.799999999999997L144,11.799999999999997L148.5,11.799999999999997L153,11.799999999999997L157.5,11.799999999999997L162,11.799999999999997L166.5,11.799999999999997L171,11.799999999999997L175.5,11.799999999999997L180,11.799999999999997L184.5,11.799999999999997L189,11.799999999999997L193.5,11.799999999999997L198,11.799999999999997L202.5,11.799999999999997L207,11.799999999999997L211.5,11.799999999999997L216,11.799999999999997L220.5,11.799999999999997L225,11.799999999999997L229.5,11.799999999999997L234,11.799999999999997L238.5,11.799999999999997L243,11.799999999999997" style="fill: none;" fill="none"></path></g><g><path stroke="rgb(0, 153, 136)" stroke-width="2px" d="M27,182.40827612876876L31.5,142.09171824455248L36,140.12484245300283L40.5,115.04990153312674L45,119.96656351089469L49.5,103.74168448448172L54,101.77516036033622L58.5,91.44985370635979L63,93.90836052894585L67.5,95.38325362205498L72,90.46659164428704L76.5,100.79154663085929L81,96.85849838256827L85.5,97.84176044464103L90,98.3333914756774L94.5,87.0251744270324L99,89.97496061325067L103.5,91.94183640480034L108,86.53319172859186L112.5,86.53319172859186L117,88.50006752014154L121.5,80.14163665771477L126,80.14163665771477L130.5,88.00843648910515L135,94.8916225910186L139.5,81.12489871978752L144,81.6165297508239L148.5,83.5834055423736L153,83.09177451133722L157.5,85.5499296665191L162,81.6165297508239L166.5,84.07503657340997L171,82.10816078186028L175.5,82.10816078186028L180,84.07503657340997L184.5,83.09177451133722L189,78.17511253356926L193.5,79.6500056266784L198,80.14163665771477L202.5,79.6500056266784L207,80.14163665771477L211.5,81.6165297508239L216,80.14163665771477L220.5,78.17511253356926L225,80.14163665771477L229.5,78.17511253356926L234,81.6165297508239L238.5,79.15837459564202L243,84.07503657340997" style="fill: none;" fill="none"></path></g><g><path stroke="rgb(238, 51, 119)" stroke-width="2px" d="M27,246.324881839752L31.5,158.56241278648363L36,126.8501012802123L40.5,103.61860089302056L45,91.81875281333915L49.5,80.87908320426934L54,68.83341960906978L58.5,65.51473431587213L63,55.68141036033626L67.5,50.15003376007077L72,45.35610370635983L76.5,38.59600119590757L81,38.3498340129852L85.5,34.29370217323301L90,29.868671226501455L94.5,27.65633158683776L99,25.68945579528807L103.5,23.231300640106184L108,21.264424848556516L112.5,19.05208520889282L117,18.80626969337463L121.5,16.839745569229123L126,18.068823146820066L130.5,15.856131839752187L135,15.487584400177006L139.5,14.75013785362244L144,14.627054262161245L148.5,14.135423231124868L153,13.397976684570303L157.5,13.397976684570303L162,13.643792200088491L166.5,13.02907757759094L171,12.783262062072751L175.5,12.291631031036374L180,12.16889910697936L184.5,12.045815515518186L189,12.291631031036374L193.5,12.291631031036374L198,12.045815515518186L202.5,12.16889910697936L207,11.923083591461172L211.5,11.923083591461172L216,11.923083591461172L220.5,11.799999999999997L225,11.799999999999997L229.5,11.923083591461172L234,11.799999999999997L238.5,11.923083591461172L243,11.799999999999997" style="fill: none;" fill="none"></path></g></g></g></g></g></g><g transform="translate(60, 177)" clip-path="url(#clip_1)"><clipPath id="clip_1"><rect width="270" height="23"></rect></clipPath><g><g><line x1="0" y1="0" x2="0" y2="5" style="visibility: inherit;" fill="rgb(0, 0, 0)" stroke="rgb(204, 204, 204)" stroke-width="1px"></line><line x1="22.5" y1="0" x2="22.5" y2="5" style="visibility: inherit;" fill="rgb(0, 0, 0)" stroke="rgb(204, 204, 204)" stroke-width="1px"></line><line x1="45" y1="0" x2="45" y2="5" style="visibility: inherit;" fill="rgb(0, 0, 0)" stroke="rgb(204, 204, 204)" stroke-width="1px"></line><line x1="67.5" y1="0" x2="67.5" y2="5" style="visibility: inherit;" fill="rgb(0, 0, 0)" stroke="rgb(204, 204, 204)" stroke-width="1px"></line><line x1="90" y1="0" x2="90" y2="5" style="visibility: inherit;" fill="rgb(0, 0, 0)" stroke="rgb(204, 204, 204)" stroke-width="1px"></line><line x1="112.5" y1="0" x2="112.5" y2="5" style="visibility: inherit;" fill="rgb(0, 0, 0)" stroke="rgb(204, 204, 204)" stroke-width="1px"></line><line x1="135" y1="0" x2="135" y2="5" style="visibility: inherit;" fill="rgb(0, 0, 0)" stroke="rgb(204, 204, 204)" stroke-width="1px"></line><line x1="157.5" y1="0" x2="157.5" y2="5" style="visibility: inherit;" fill="rgb(0, 0, 0)" stroke="rgb(204, 204, 204)" stroke-width="1px"></line><line x1="180" y1="0" x2="180" y2="5" style="visibility: inherit;" fill="rgb(0, 0, 0)" stroke="rgb(204, 204, 204)" stroke-width="1px"></line><line x1="202.5" y1="0" x2="202.5" y2="5" style="visibility: inherit;" fill="rgb(0, 0, 0)" stroke="rgb(204, 204, 204)" stroke-width="1px"></line><line x1="225" y1="0" x2="225" y2="5" style="visibility: inherit;" fill="rgb(0, 0, 0)" stroke="rgb(204, 204, 204)" stroke-width="1px"></line><line x1="247.5" y1="0" x2="247.5" y2="5" style="visibility: inherit;" fill="rgb(0, 0, 0)" stroke="rgb(204, 204, 204)" stroke-width="1px"></line><line x1="270" y1="0" x2="270" y2="5" style="visibility: inherit;" fill="rgb(0, 0, 0)" stroke="rgb(204, 204, 204)" stroke-width="1px"></line></g><g transform="translate(0, 8)"><text x="0" y="0" dx="0em" dy="0.95em" style="text-anchor: middle; visibility: hidden; font-family: Roboto, sans-serif; font-size: 12px; font-weight: 200;" fill="rgb(255, 255, 255)" stroke="none" stroke-width="1px">-5</text><text x="22.5" y="0" dx="0em" dy="0.95em" style="text-anchor: middle; visibility: inherit; font-family: Roboto, sans-serif; font-size: 12px; font-weight: 200;" fill="rgb(255, 255, 255)" stroke="none" stroke-width="1px">0</text><text x="45" y="0" dx="0em" dy="0.95em" style="text-anchor: middle; visibility: inherit; font-family: Roboto, sans-serif; font-size: 12px; font-weight: 200;" fill="rgb(255, 255, 255)" stroke="none" stroke-width="1px">5</text><text x="67.5" y="0" dx="0em" dy="0.95em" style="text-anchor: middle; visibility: inherit; font-family: Roboto, sans-serif; font-size: 12px; font-weight: 200;" fill="rgb(255, 255, 255)" stroke="none" stroke-width="1px">10</text><text x="90" y="0" dx="0em" dy="0.95em" style="text-anchor: middle; visibility: inherit; font-family: Roboto, sans-serif; font-size: 12px; font-weight: 200;" fill="rgb(255, 255, 255)" stroke="none" stroke-width="1px">15</text><text x="112.5" y="0" dx="0em" dy="0.95em" style="text-anchor: middle; visibility: inherit; font-family: Roboto, sans-serif; font-size: 12px; font-weight: 200;" fill="rgb(255, 255, 255)" stroke="none" stroke-width="1px">20</text><text x="135" y="0" dx="0em" dy="0.95em" style="text-anchor: middle; visibility: inherit; font-family: Roboto, sans-serif; font-size: 12px; font-weight: 200;" fill="rgb(255, 255, 255)" stroke="none" stroke-width="1px">25</text><text x="157.5" y="0" dx="0em" dy="0.95em" style="text-anchor: middle; visibility: inherit; font-family: Roboto, sans-serif; font-size: 12px; font-weight: 200;" fill="rgb(255, 255, 255)" stroke="none" stroke-width="1px">30</text><text x="180" y="0" dx="0em" dy="0.95em" style="text-anchor: middle; visibility: inherit; font-family: Roboto, sans-serif; font-size: 12px; font-weight: 200;" fill="rgb(255, 255, 255)" stroke="none" stroke-width="1px">35</text><text x="202.5" y="0" dx="0em" dy="0.95em" style="text-anchor: middle; visibility: inherit; font-family: Roboto, sans-serif; font-size: 12px; font-weight: 200;" fill="rgb(255, 255, 255)" stroke="none" stroke-width="1px">40</text><text x="225" y="0" dx="0em" dy="0.95em" style="text-anchor: middle; visibility: inherit; font-family: Roboto, sans-serif; font-size: 12px; font-weight: 200;" fill="rgb(255, 255, 255)" stroke="none" stroke-width="1px">45</text><text x="247.5" y="0" dx="0em" dy="0.95em" style="text-anchor: middle; visibility: inherit; font-family: Roboto, sans-serif; font-size: 12px; font-weight: 200;" fill="rgb(255, 255, 255)" stroke="none" stroke-width="1px">50</text><text x="270" y="0" dx="0em" dy="0.95em" style="text-anchor: middle; visibility: hidden; font-family: Roboto, sans-serif; font-size: 12px; font-weight: 200;" fill="rgb(255, 255, 255)" stroke="none" stroke-width="1px">55</text></g><line x1="0" y1="0" x2="270" y2="0" fill="rgb(0, 0, 0)" stroke="rgb(204, 204, 204)" stroke-width="1px"></line></g></g></g></g></svg>