<svg viewBox="0 0 330.0000305175781 200.00001525878906" xmlns="http://www.w3.org/2000/svg"><g><g><g><g><g><line x1="40" y1="177" x2="35" y2="177" style="visibility: inherit;" fill="rgb(0, 0, 0)" stroke="rgb(204, 204, 204)" stroke-width="1px"></line><line x1="40" y1="160.9090909090909" x2="35" y2="160.9090909090909" style="visibility: inherit;" fill="rgb(0, 0, 0)" stroke="rgb(204, 204, 204)" stroke-width="1px"></line><line x1="40" y1="144.8181818181818" x2="35" y2="144.8181818181818" style="visibility: inherit;" fill="rgb(0, 0, 0)" stroke="rgb(204, 204, 204)" stroke-width="1px"></line><line x1="40" y1="128.72727272727272" x2="35" y2="128.72727272727272" style="visibility: inherit;" fill="rgb(0, 0, 0)" stroke="rgb(204, 204, 204)" stroke-width="1px"></line><line x1="40" y1="112.63636363636364" x2="35" y2="112.63636363636364" style="visibility: inherit;" fill="rgb(0, 0, 0)" stroke="rgb(204, 204, 204)" stroke-width="1px"></line><line x1="40" y1="96.54545454545453" x2="35" y2="96.54545454545453" style="visibility: inherit;" fill="rgb(0, 0, 0)" stroke="rgb(204, 204, 204)" stroke-width="1px"></line><line x1="40" y1="80.45454545454547" x2="35" y2="80.45454545454547" style="visibility: inherit;" fill="rgb(0, 0, 0)" stroke="rgb(204, 204, 204)" stroke-width="1px"></line><line x1="40" y1="64.36363636363639" x2="35" y2="64.36363636363639" style="visibility: inherit;" fill="rgb(0, 0, 0)" stroke="rgb(204, 204, 204)" stroke-width="1px"></line><line x1="40" y1="48.272727272727266" x2="35" y2="48.272727272727266" style="visibility: inherit;" fill="rgb(0, 0, 0)" stroke="rgb(204, 204, 204)" stroke-width="1px"></line><line x1="40" y1="32.181818181818194" x2="35" y2="32.181818181818194" style="visibility: inherit;" fill="rgb(0, 0, 0)" stroke="rgb(204, 204, 204)" stroke-width="1px"></line><line x1="40" y1="16.090909090909097" x2="35" y2="16.090909090909097" style="visibility: inherit;" fill="rgb(0, 0, 0)" stroke="rgb(204, 204, 204)" stroke-width="1px"></line><line x1="40" y1="0" x2="35" y2="0" style="visibility: inherit;" fill="rgb(0, 0, 0)" stroke="rgb(204, 204, 204)" stroke-width="1px"></line></g><g transform="translate(30, 0)"><text x="0" y="177" dx="0em" dy="0.3em" style="text-anchor: end; visibility: hidden; font-family: Roboto, sans-serif; font-size: 12px; font-weight: 200;" fill="rgb(255, 255, 255)" stroke="none" stroke-width="1px">0</text><text x="0" y="160.9090909090909" dx="0em" dy="0.3em" style="text-anchor: end; visibility: inherit; font-family: Roboto, sans-serif; font-size: 12px; font-weight: 200;" fill="rgb(255, 255, 255)" stroke="none" stroke-width="1px">0.1</text><text x="0" y="144.8181818181818" dx="0em" dy="0.3em" style="text-anchor: end; visibility: hidden; font-family: Roboto, sans-serif; font-size: 12px; font-weight: 200;" fill="rgb(255, 255, 255)" stroke="none" stroke-width="1px">0.2</text><text x="0" y="128.72727272727272" dx="0em" dy="0.3em" style="text-anchor: end; visibility: inherit; font-family: Roboto, sans-serif; font-size: 12px; font-weight: 200;" fill="rgb(255, 255, 255)" stroke="none" stroke-width="1px">0.3</text><text x="0" y="112.63636363636364" dx="0em" dy="0.3em" style="text-anchor: end; visibility: hidden; font-family: Roboto, sans-serif; font-size: 12px; font-weight: 200;" fill="rgb(255, 255, 255)" stroke="none" stroke-width="1px">0.4</text><text x="0" y="96.54545454545453" dx="0em" dy="0.3em" style="text-anchor: end; visibility: inherit; font-family: Roboto, sans-serif; font-size: 12px; font-weight: 200;" fill="rgb(255, 255, 255)" stroke="none" stroke-width="1px">0.5</text><text x="0" y="80.45454545454547" dx="0em" dy="0.3em" style="text-anchor: end; visibility: hidden; font-family: Roboto, sans-serif; font-size: 12px; font-weight: 200;" fill="rgb(255, 255, 255)" stroke="none" stroke-width="1px">0.6</text><text x="0" y="64.36363636363639" dx="0em" dy="0.3em" style="text-anchor: end; visibility: inherit; font-family: Roboto, sans-serif; font-size: 12px; font-weight: 200;" fill="rgb(255, 255, 255)" stroke="none" stroke-width="1px">0.7</text><text x="0" y="48.272727272727266" dx="0em" dy="0.3em" style="text-anchor: end; visibility: hidden; font-family: Roboto, sans-serif; font-size: 12px; font-weight: 200;" fill="rgb(255, 255, 255)" stroke="none" stroke-width="1px">0.8</text><text x="0" y="32.181818181818194" dx="0em" dy="0.3em" style="text-anchor: end; visibility: inherit; font-family: Roboto, sans-serif; font-size: 12px; font-weight: 200;" fill="rgb(255, 255, 255)" stroke="none" stroke-width="1px">0.9</text><text x="0" y="16.090909090909097" dx="0em" dy="0.3em" style="text-anchor: end; visibility: hidden; font-family: Roboto, sans-serif; font-size: 12px; font-weight: 200;" fill="rgb(255, 255, 255)" stroke="none" stroke-width="1px">1</text><text x="0" y="0" dx="0em" dy="0.3em" style="text-anchor: end; visibility: hidden; font-family: Roboto, sans-serif; font-size: 12px; font-weight: 200;" fill="rgb(255, 255, 255)" stroke="none" stroke-width="1px">1.1</text></g><line x1="40" y1="0" x2="40" y2="177" fill="rgb(0, 0, 0)" stroke="rgb(204, 204, 204)" stroke-width="1px"></line></g></g><g transform="translate(40, 0)" clip-path="url(#clip_0)"><clipPath id="clip_0"><rect width="290" height="177"></rect></clipPath><g><g><g><line x1="0" y1="0" x2="0" y2="177" fill="rgb(0, 0, 0)" stroke="rgb(189, 189, 189)" stroke-width="1px" opacity="0.25"></line><line x1="24.166666666666664" y1="0" x2="24.166666666666664" y2="177" fill="rgb(0, 0, 0)" stroke="rgb(189, 189, 189)" stroke-width="1px" opacity="0.25"></line><line x1="48.33333333333333" y1="0" x2="48.33333333333333" y2="177" fill="rgb(0, 0, 0)" stroke="rgb(189, 189, 189)" stroke-width="1px" opacity="0.25"></line><line x1="72.5" y1="0" x2="72.5" y2="177" fill="rgb(0, 0, 0)" stroke="rgb(189, 189, 189)" stroke-width="1px" opacity="0.25"></line><line x1="96.66666666666666" y1="0" x2="96.66666666666666" y2="177" fill="rgb(0, 0, 0)" stroke="rgb(189, 189, 189)" stroke-width="1px" opacity="0.25"></line><line x1="120.83333333333334" y1="0" x2="120.83333333333334" y2="177" fill="rgb(0, 0, 0)" stroke="rgb(189, 189, 189)" stroke-width="1px" opacity="0.25"></line><line x1="145" y1="0" x2="145" y2="177" fill="rgb(0, 0, 0)" stroke="rgb(189, 189, 189)" stroke-width="1px" opacity="0.25"></line><line x1="169.16666666666669" y1="0" x2="169.16666666666669" y2="177" fill="rgb(0, 0, 0)" stroke="rgb(189, 189, 189)" stroke-width="1px" opacity="0.25"></line><line x1="193.33333333333331" y1="0" x2="193.33333333333331" y2="177" fill="rgb(0, 0, 0)" stroke="rgb(189, 189, 189)" stroke-width="1px" opacity="0.25"></line><line x1="217.5" y1="0" x2="217.5" y2="177" fill="rgb(0, 0, 0)" stroke="rgb(189, 189, 189)" stroke-width="1px" opacity="0.25"></line><line x1="241.66666666666669" y1="0" x2="241.66666666666669" y2="177" fill="rgb(0, 0, 0)" stroke="rgb(189, 189, 189)" stroke-width="1px" opacity="0.25"></line><line x1="265.8333333333333" y1="0" x2="265.8333333333333" y2="177" fill="rgb(0, 0, 0)" stroke="rgb(189, 189, 189)" stroke-width="1px" opacity="0.25"></line><line x1="290" y1="0" x2="290" y2="177" fill="rgb(0, 0, 0)" stroke="rgb(189, 189, 189)" stroke-width="1px" opacity="0.25"></line></g><g><line x1="0" y1="177" x2="290" y2="177" fill="rgb(0, 0, 0)" stroke="rgb(189, 189, 189)" stroke-width="1px" opacity="0.25"></line><line x1="0" y1="160.9090909090909" x2="290" y2="160.9090909090909" fill="rgb(0, 0, 0)" stroke="rgb(189, 189, 189)" stroke-width="1px" opacity="0.25"></line><line x1="0" y1="144.8181818181818" x2="290" y2="144.8181818181818" fill="rgb(0, 0, 0)" stroke="rgb(189, 189, 189)" stroke-width="1px" opacity="0.25"></line><line x1="0" y1="128.72727272727272" x2="290" y2="128.72727272727272" fill="rgb(0, 0, 0)" stroke="rgb(189, 189, 189)" stroke-width="1px" opacity="0.25"></line><line x1="0" y1="112.63636363636364" x2="290" y2="112.63636363636364" fill="rgb(0, 0, 0)" stroke="rgb(189, 189, 189)" stroke-width="1px" opacity="0.25"></line><line x1="0" y1="96.54545454545453" x2="290" y2="96.54545454545453" fill="rgb(0, 0, 0)" stroke="rgb(189, 189, 189)" stroke-width="1px" opacity="0.25"></line><line x1="0" y1="80.45454545454547" x2="290" y2="80.45454545454547" fill="rgb(0, 0, 0)" stroke="rgb(189, 189, 189)" stroke-width="1px" opacity="0.25"></line><line x1="0" y1="64.36363636363639" x2="290" y2="64.36363636363639" fill="rgb(0, 0, 0)" stroke="rgb(189, 189, 189)" stroke-width="1px" opacity="0.25"></line><line x1="0" y1="48.272727272727266" x2="290" y2="48.272727272727266" fill="rgb(0, 0, 0)" stroke="rgb(189, 189, 189)" stroke-width="1px" opacity="0.25"></line><line x1="0" y1="32.181818181818194" x2="290" y2="32.181818181818194" fill="rgb(0, 0, 0)" stroke="rgb(189, 189, 189)" stroke-width="1px" opacity="0.25"></line><line x1="0" y1="16.090909090909097" x2="290" y2="16.090909090909097" fill="rgb(0, 0, 0)" stroke="rgb(189, 189, 189)" stroke-width="1px" opacity="0.25"></line><line x1="0" y1="0" x2="290" y2="0" fill="rgb(0, 0, 0)" stroke="rgb(189, 189, 189)" stroke-width="1px" opacity="0.25"></line></g></g></g><g><g><line x1="0" y1="177" x2="290" y2="177" fill="rgb(0, 0, 0)" stroke="rgb(153, 153, 153)" stroke-width="1.5px"></line></g></g><g><g><line x1="24.166666666666664" y1="0" x2="24.166666666666664" y2="177" fill="rgb(0, 0, 0)" stroke="rgb(153, 153, 153)" stroke-width="1.5px"></line></g></g><g><g><g><g><g><path stroke="rgb(51, 187, 238)" stroke-width="2px" d="M24.166666666666664,25.94658630544488L29,26.25667303529651L33.833333333333336,25.920592929967466L38.666666666666664,25.23620433854385L43.5,24.631226638823783L48.33333333333333,23.56279520149745L53.166666666666664,23.920228302156996L58,27.761382750407748L62.833333333333336,29.244136312701094L67.66666666666667,26.999727918258593L72.5,25.284978713868032L77.33333333333333,24.190241190242322L82.16666666666667,23.309359443513497L87,22.80303710334776L91.83333333333333,22.660482384883945L96.66666666666666,22.317464744646337L101.5,22.64280587617155L106.33333333333333,22.306921496062127L111.16666666666667,22.534529349783764L116,22.247342440235393L120.83333333333334,22.37540848835665L125.66666666666667,22.007060216876262L130.5,22.032781040982677L135.33333333333334,21.946303545199846L140.16666666666666,21.862237732824138L145,21.661615699944125L149.83333333333334,22.908971985644495L154.66666666666666,22.284292962637746L159.5,22.14548412168469L164.33333333333334,21.552655686779715L169.16666666666669,21.245227944618858L174,20.910592707608476L178.83333333333334,22.050719458596554L183.66666666666666,21.415340614868487L188.5,20.95902401606159L193.33333333333331,20.604777674055068L198.16666666666666,20.97150281688407L203,21.148628083707507L207.83333333333334,20.761449934696017L212.66666666666666,20.49695972375862L217.5,20.42944847963116L222.33333333333334,20.351395163520458L227.16666666666666,20.535202003089218L232,20.484577169314402L236.83333333333334,20.63656419697354L241.66666666666669,20.797482468881913L246.5,21.19976156410649L251.33333333333334,20.89403940114932L256.1666666666667,20.565786908757133L261,20.401018735364396" style="fill: none;" fill="none"></path></g><g><path stroke="rgb(0, 119, 187)" stroke-width="2px" d="M24.166666666666664,47.337446711280144L29,37.92593981461092L33.833333333333336,33.729612240985965L38.666666666666664,29.40260179846842L43.5,26.823337817416228L48.33333333333333,25.144588557158126L53.166666666666664,24.133728810603998L58,45.624446996296115L62.833333333333336,40.655914001708304L67.66666666666667,35.833184279775345L72.5,30.776747742229027L77.33333333333333,27.46438557828007L82.16666666666667,25.282873858548225L87,23.910034680673338L91.83333333333333,23.237273107736353L96.66666666666666,22.612505004776523L101.5,22.200204038517825L106.33333333333333,21.92068537397178L111.16666666666667,21.76103770627844L116,21.846284984906582L120.83333333333334,21.634607276932076L125.66666666666667,21.47944428528388L130.5,21.43998453343585L135.33333333333334,21.385468143682342L140.16666666666666,21.390305151552226L145,21.34359146787532L149.83333333333334,21.343722305633285L154.66666666666666,21.940506589668047L159.5,21.428326379823858L164.33333333333334,20.93060769691276L169.16666666666669,20.499226570669432L174,20.189443238810018L178.83333333333334,19.900324979467843L183.66666666666666,19.750988647640735L188.5,19.59702404246899L193.33333333333331,19.449670074291124L198.16666666666666,19.359914964260142L203,19.28729053188778L207.83333333333334,19.237009894922025L212.66666666666666,19.141135974930418L217.5,19.079591105491616L222.33333333333334,19.0614355505085L227.16666666666666,19.01433837795164L232,18.9833984506201L236.83333333333334,18.91254091182312L241.66666666666669,18.813704615884056L246.5,18.81876948240599L251.33333333333334,18.805714823113043L256.1666666666667,18.760339294257857L261,18.73177124685642" style="fill: none;" fill="none"></path></g><g><path stroke="rgb(0, 153, 136)" stroke-width="2px" d="M24.166666666666664,42.03749923272568L29,37.76334958726711L33.833333333333336,35.14139506259521L38.666666666666664,33.528640522517L43.5,32.26403108385265L48.33333333333333,31.295600015885043L53.166666666666664,30.49597478168842L58,29.801650299876446L62.833333333333336,29.170448033775145L67.66666666666667,28.515217754079043L72.5,27.952360213567687L77.33333333333333,27.47082416242842L82.16666666666667,27.091272127480412L87,26.536420700608385L91.83333333333333,26.150126707047676L96.66666666666666,25.752147481167412L101.5,25.406137190628233L106.33333333333333,25.05373843643746L111.16666666666667,24.692130496361546L116,24.394720506554627L120.83333333333334,24.119737060777478L125.66666666666667,23.80992975325258L130.5,23.511411216402312L135.33333333333334,23.316207947630126L140.16666666666666,23.097176911244606L145,22.896032513690617L149.83333333333334,22.684163119291952L154.66666666666666,22.481952272392537L159.5,22.344536094963612L164.33333333333334,22.176266767413924L169.16666666666669,22.080668443014805L174,21.894583830831383L178.83333333333334,21.734660005821024L183.66666666666666,21.62261597240742L188.5,21.46956991841421L193.33333333333331,21.35628929703557L198.16666666666666,21.26686409800652L203,21.191755988418375L207.83333333333334,21.10914455310952L212.66666666666666,21.016667874722497L217.5,21.004091685065976L222.33333333333334,20.975092980822946L227.16666666666666,20.866510876124156L232,20.822814603773896L236.83333333333334,20.7375972802664L241.66666666666669,20.69719338139087L246.5,20.640771556398114L251.33333333333334,20.623008204238065L256.1666666666667,20.60698694533095L261,20.51155455546184" style="fill: none;" fill="none"></path></g><g><path stroke="rgb(51, 187, 238)" stroke-width="2px" d="M24.166666666666664,81.7652859579433L29,55.36194939234041L33.833333333333336,45.057556591361276L38.666666666666664,39.78281511171141L43.5,36.58202159218246L48.33333333333333,34.42214454848858L53.166666666666664,32.88631677291878L58,31.78687096364349L62.833333333333336,30.873648452138504L67.66666666666667,30.107692724978563L72.5,29.4586464799893L77.33333333333333,28.84093272622084L82.16666666666667,28.292595361688946L87,27.753361811342838L91.83333333333333,27.265081373520754L96.66666666666666,26.8180136104738L101.5,26.38087127290925L106.33333333333333,25.95770795006234L111.16666666666667,25.628739747503413L116,25.303980276547367L120.83333333333334,24.99381216716561L125.66666666666667,24.67496393963532L130.5,24.34286173641444L135.33333333333334,24.072532970865232L140.16666666666666,23.796361440995106L145,23.53679435952143L149.83333333333334,23.291214150015325L154.66666666666666,23.05536487249707L159.5,22.857537441638605L164.33333333333334,22.6543641066624L169.16666666666669,22.45736698516081L174,22.31503411281174L178.83333333333334,22.15588398391739L183.66666666666666,22.000051619531003L188.5,21.859621868165128L193.33333333333331,21.747205050454962L198.16666666666666,21.599298573160077L203,21.506534169831383L207.83333333333334,21.36237426952755L212.66666666666666,21.25442533907689L217.5,21.136019668371098L222.33333333333334,21.07570276123616L227.16666666666666,20.97783143305427L232,20.885586420400923L236.83333333333334,20.802080444671006L241.66666666666669,20.70236106427345L246.5,20.622415339309875L251.33333333333334,20.5664030329165L256.1666666666667,20.48988583181858L261,20.44665713496615" style="fill: none;" fill="none"></path></g><g><path stroke="rgb(238, 51, 119)" stroke-width="2px" d="M24.166666666666664,159.60840961201623L29,159.81792645765975L33.833333333333336,159.71103010784165L38.666666666666664,159.81792645765975L43.5,159.8724502724525L48.33333333333333,159.90231831277933L53.166666666666664,159.919321596818L58,159.92921373402848L62.833333333333336,159.93504159787562L67.66666666666667,159.93850049939854L72.5,159.94056240619463L77.33333333333333,159.94179475228435L82.16666666666667,159.9425324408614L87,159.94297443690172L91.83333333333333,159.94323941274703L96.66666666666666,159.94339831849564L101.5,159.94349363324932L106.33333333333333,159.943550811775L111.16666666666667,159.94358511517368L116,159.94360569587502L120.83333333333334,159.94361804381424L125.66666666666667,159.9436254524044L130.5,159.9436298974961L135.33333333333334,159.94363256452866L140.16666666666666,159.94363416474008L145,159.94363512486404L149.83333333333334,159.94363570093736L154.66666666666666,159.943636046581L159.5,159.94363625396701L164.33333333333334,160.1045453514256L169.16666666666669,160.04018182833624L174,160.0015637199466L178.83333333333334,160.64884727450112L183.66666666666666,160.36676298263697L188.5,160.197512412691L193.33333333333331,160.0959620725855L198.16666666666666,160.03503186919258L203,159.99847374739815L207.83333333333334,159.97653887440836L212.66666666666666,159.96337795064576L217.5,159.95548139639948L222.33333333333334,159.95074346385576L227.16666666666666,159.94790070433098L232,159.94619504861663L236.83333333333334,159.81108087396245L241.66666666666669,159.86410315039913L246.5,159.895916516259L251.33333333333334,159.9150045357742L256.1666666666667,159.92645734748302L261,159.9333290345082" style="fill: none;" fill="none"></path></g><g><path stroke="rgb(204, 51, 17)" stroke-width="2px" d="M24.166666666666664,155.91085344282064L29,157.70222322236407L33.833333333333336,158.30362280514888L38.666666666666664,158.62748729150223L43.5,158.65891352272655L48.33333333333333,158.70285243647405L53.166666666666664,158.68648021909473L58,158.70286779872055L62.833333333333336,158.68272229780456L67.66666666666667,158.70449234796038L72.5,158.712086567332L77.33333333333333,158.71124999916609L82.16666666666667,158.7845956034093L87,158.76412784486408L91.83333333333333,158.78673736698843L96.66666666666666,158.5682535696096L101.5,158.61825594623087L106.33333333333333,158.67507283503474L111.16666666666667,158.7131824354969L116,158.7092275726901L120.83333333333334,158.75646923316987L125.66666666666667,158.7351995159343L130.5,158.72780163428308L135.33333333333334,158.716658371854L140.16666666666666,158.7314269382697L145,158.7040831908331L149.83333333333334,158.70242735689035L154.66666666666666,158.76579718438828L159.5,158.77431926506398L164.33333333333334,158.7512735370894L169.16666666666669,158.80180939935656L174,158.76374470447533L178.83333333333334,158.72347389527692L183.66666666666666,158.72210713217564L188.5,158.69849135341414L193.33333333333331,158.69773096467657L198.16666666666666,158.71604753683417L203,158.71899212906288L207.83333333333334,158.7609861188463L212.66666666666666,158.73790992726495L217.5,158.73881410237175L222.33333333333334,158.77824302991482L227.16666666666666,158.74155953486573L232,158.7544129450549L236.83333333333334,158.75139753685033L241.66666666666669,158.74556585621906L246.5,158.73804393258544L251.33333333333334,158.72816705124754L256.1666666666667,158.7155363833843L261,158.74282196941897" style="fill: none;" fill="none"></path></g><g><path stroke="rgb(187, 187, 187)" stroke-width="2px" d="M24.166666666666664,23.653634905815125L29,23.913435194980018L33.833333333333336,22.439974257587743L38.666666666666664,21.734457179425895L43.5,21.630500338677866L48.33333333333333,20.96593082062163L53.166666666666664,20.620714746571323L58,20.136199045577225L62.833333333333336,19.81282604009421L67.66666666666667,19.63169234065589L72.5,19.835939750483533L77.33333333333333,19.646242884316987L82.16666666666667,19.511204497082005L87,19.47323789930178L91.83333333333333,19.98709242436999L96.66666666666666,19.914325569394908L101.5,19.68828579585729L106.33333333333333,19.659969941929997L111.16666666666667,19.578611703607983L116,19.342067894331052L120.83333333333334,19.312785487395434L125.66666666666667,19.33276351820584L130.5,19.242839986226357L135.33333333333334,19.113792826415665L140.16666666666666,19.057821809693575L145,19.506966937309762L149.83333333333334,19.331268988811253L154.66666666666666,19.18830757846641L159.5,20.067984768899425L164.33333333333334,19.59815370840415L169.16666666666669,19.348438464890577L174,19.359518290241787L178.83333333333334,19.114074353260506L183.66666666666666,19.369082271919847L188.5,19.253905451405497L193.33333333333331,19.120432715621103L198.16666666666666,19.34607720899815L203,19.234735331235996L207.83333333333334,19.312749399786295L212.66666666666666,19.23083222521842L217.5,19.117319112788834L222.33333333333334,19.220846678148764L227.16666666666666,19.138144022670687L232,19.061706191337997L236.83333333333334,19.015843492546846L241.66666666666669,19.068778423821467L246.5,19.551086709295838L251.33333333333334,19.577653365750614L256.1666666666667,19.303954970378577L261,19.236282062905353" style="fill: none;" fill="none"></path></g><g><path stroke="rgb(0, 153, 136)" stroke-width="2px" d="M24.166666666666664,39.037216804244316L29,28.76250230182303L33.833333333333336,24.850944585614403L38.666666666666664,22.86028149301679L43.5,21.70824741255291L48.33333333333333,20.898534636114082L53.166666666666664,20.375501046262748L58,19.967561286621343L62.833333333333336,19.68659338613815L67.66666666666667,19.488803768428994L72.5,19.30495726486022L77.33333333333333,19.139978186303992L82.16666666666667,18.987514421972122L87,18.86664270966126L91.83333333333333,18.757955623411945L96.66666666666666,18.690093706299976L101.5,18.590379262205033L106.33333333333333,18.530561398972864L111.16666666666667,18.415556091348453L116,18.358627058629853L120.83333333333334,18.274857924184552L125.66666666666667,18.215209894553585L130.5,18.14321745376435L135.33333333333334,18.07856542467396L140.16666666666666,17.994182832595754L145,17.91405551870626L149.83333333333334,17.89547710990247L154.66666666666666,17.8387424440985L159.5,17.800677311536884L164.33333333333334,17.775156616577625L169.16666666666669,17.737048479655318L174,17.682000276136172L178.83333333333334,17.64495083911394L183.66666666666666,17.602607080728347L188.5,17.56379270721467L193.33333333333331,17.497594265828806L198.16666666666666,17.455193577611986L203,17.443161283927907L207.83333333333334,17.413146187161377L212.66666666666666,17.38709225771656L217.5,17.3647539223666L222.33333333333334,17.327216306905584L227.16666666666666,17.288603994801974L232,17.231910555412966L236.83333333333334,17.19253124417399L241.66666666666669,17.171585281239043L246.5,17.16438478746209L251.33333333333334,17.156040137301698L256.1666666666667,17.145670099594156L261,17.09921988351295" style="fill: none;" fill="none"></path></g></g></g></g><g opacity="0.2"><g><g><g><path stroke="rgb(51, 187, 238)" stroke-width="2px" d="M24.166666666666664,25.946586305444903L29,26.442725073207527L33.833333333333336,25.597956028851602L38.666666666666664,24.43136335502973L43.5,23.841367754069257L48.33333333333333,22.084769888357695L53.166666666666664,24.43136335502973L58,33.361822811040014L62.833333333333336,31.430909807031817L67.66666666666667,23.6670430248434L72.5,22.72840755636043L77.33333333333333,22.55409241806379L82.16666666666667,21.990913055159844L87,22.04454553127291L91.83333333333333,22.44681787490847L96.66666666666666,21.803180206905733L101.5,23.13067989999599L106.33333333333333,21.803180206905733L111.16666666666667,22.875906456600557L116,21.81658832593399L120.83333333333334,22.567500537092045L125.66666666666667,21.45454993031243L130.5,22.07136176932944L135.33333333333334,21.81658832593399L140.16666666666666,21.736139611764393L145,21.360683506185367L149.83333333333334,24.780003222552228L154.66666666666666,21.34727538715711L159.5,21.937270988117586L164.33333333333334,20.66341336206957L169.16666666666669,20.784086433323953L174,20.40863991867414L178.83333333333334,23.760909448970466L183.66666666666666,20.462272394787203L188.5,20.274549137462287L193.33333333333331,20.0734081701799L198.16666666666666,21.521590525453753L203,21.41431598229843L207.83333333333334,20.180682713335223L212.66666666666666,20.100224408236432L217.5,20.32818161357535L222.33333333333334,20.234315189448285L227.16666666666666,20.8109122623097L232,20.40863991867414L236.83333333333334,20.86454473842276L241.66666666666669,21.038859876719403L246.5,21.803180206905733L251.33333333333334,20.435456156730673L256.1666666666667,20.0734081701799L261,20.15386647527869" style="fill: none;" fill="none"></path></g><g><path stroke="rgb(0, 119, 187)" stroke-width="2px" d="M24.166666666666664,47.337446711280144L29,32.27903567660941L33.833333333333336,29.701137770306L38.666666666666664,24.3140375180678L43.5,23.455850763754423L48.33333333333333,22.822273980487495L53.166666666666664,22.68818319927564L58,76.9581204219298L62.833333333333336,33.32829292254015L67.66666666666667,28.67199270291763L72.5,23.23795444315131L77.33333333333333,22.513868060978982L82.16666666666667,22.017729293216377L87,21.853465448726325L91.83333333333333,22.22892155430535L96.66666666666666,21.675793485207997L101.5,21.581927061080954L106.33333333333333,21.50147834691136L111.16666666666667,21.521590525453753L116,21.9741481109099L120.83333333333334,21.317102323878913L125.66666666666667,21.24670490351591L130.5,21.38079568472776L135.33333333333334,21.303694204850636L140.16666666666666,21.397560628977704L145,21.273521141572438L149.83333333333334,21.343918561935446L154.66666666666666,22.83568209951575L159.5,20.660056536847904L164.33333333333334,20.184029947627693L169.16666666666669,19.85215502435512L174,19.724768302657402L178.83333333333334,19.466647624969504L183.66666666666666,19.526984160596683L188.5,19.366077141328297L193.33333333333331,19.228639125823996L198.16666666666666,19.225282300602327L203,19.178353884003382L207.83333333333334,19.16158893975346L212.66666666666666,18.99732509526341L217.5,18.98727380145682L222.33333333333334,19.034202218055746L227.16666666666666,18.943692619150347L232,18.93698855963621L236.83333333333334,18.80625460364602L241.66666666666669,18.665450171990834L246.5,18.826366782188437L251.33333333333334,18.78613283417443L256.1666666666667,18.692276000976584L261,18.688919175754915" style="fill: none;" fill="none"></path></g><g><path stroke="rgb(0, 153, 136)" stroke-width="2px" d="M24.166666666666664,42.03749923272568L29,35.19885979999196L33.833333333333336,32.62431871891024L38.666666666666664,31.632041183384988L43.5,30.612957000732443L48.33333333333333,29.955911213701434L53.166666666666664,29.352497902783487L58,28.78931853987954L62.833333333333336,28.239547296003874L67.66666666666667,27.54227715188808L72.5,27.11317897926679L77.33333333333333,26.751140583645235L82.16666666666667,26.523183378306317L87,25.705230572006922L91.83333333333333,25.57113979079507L96.66666666666666,25.155459328131254L101.5,24.887268174778352L106.33333333333333,24.525229779156778L111.16666666666667,24.149773673577748L116,23.94863270629538L120.83333333333334,23.707276972857404L125.66666666666667,23.34522898630663L130.5,23.063639304854668L135.33333333333334,23.023405356840666L140.16666666666666,22.768631913445216L145,22.594316775148577L149.83333333333334,22.366359569809656L154.66666666666666,22.178636312484763L159.5,22.138411955399953L164.33333333333334,21.923862869089312L169.16666666666669,21.937270988117586L174,21.615456949580818L178.83333333333334,21.49477428739722L183.66666666666666,21.45454993031243L188.5,21.24000084400179L193.33333333333331,21.186368367888726L198.16666666666666,21.132726300846468L203,21.079093824733405L207.83333333333334,20.98522740060634L212.66666666666666,20.877952857451017L217.5,20.98522740060634L222.33333333333334,20.931594924493275L227.16666666666666,20.70363771915438L232,20.75727019526742L236.83333333333334,20.60977129502731L241.66666666666669,20.636587533083844L246.5,20.55613881891425L251.33333333333334,20.596363175999056L256.1666666666667,20.582955056970782L261,20.368405970660138" style="fill: none;" fill="none"></path></g><g><path stroke="rgb(51, 187, 238)" stroke-width="2px" d="M24.166666666666664,81.7652859579433L29,39.51994745297867L33.833333333333336,35.165339502421304L38.666666666666664,33.57971913164313L43.5,32.403065573085456L48.33333333333333,31.434257041324287L53.166666666666664,30.690058480609565L58,30.18386841904035L62.833333333333336,29.526822632009342L67.66666666666667,28.97033773769034L72.5,28.490963914177637L77.33333333333333,27.91772366653791L82.16666666666667,27.471879731525092L87,26.94556790048427L91.83333333333333,26.533234672112904L96.66666666666666,26.147727272727288L101.5,25.725342750549338L106.33333333333333,25.32307040691378L111.16666666666667,25.135337558659646L116,24.816870754415348L120.83333333333334,24.528577013449247L125.66666666666667,24.196702090176675L130.5,23.844714988361726L135.33333333333334,23.6670430248434L140.16666666666666,23.382106109098967L145,23.147444844245932L149.83333333333334,22.92284446412868L154.66666666666666,22.701591318303898L159.5,22.560796477577906L164.33333333333334,22.34960421648893L169.16666666666669,22.16187136823482L174,22.101534832607637L178.83333333333334,21.917158809575174L183.66666666666666,21.766303084113396L188.5,21.648977247151468L193.33333333333331,21.57857982678848L198.16666666666666,21.377438859506093L203,21.367387565699506L207.83333333333334,21.146134419874723L212.66666666666666,21.09250194376166L217.5,20.958411162549808L222.33333333333334,20.98522740060634L227.16666666666666,20.831024440852094L232,20.747218901460833L236.83333333333334,20.676821481097846L241.66666666666669,20.552781993692584L246.5,20.50249675187199L251.33333333333334,20.482384573329597L256.1666666666667,20.375110030174277L261,20.381814089688394" style="fill: none;" fill="none"></path></g><g><path stroke="rgb(238, 51, 119)" stroke-width="2px" d="M24.166666666666664,159.60840961201623L29,159.94363656504586L33.833333333333336,159.60840961201623L38.666666666666664,159.94363656504586L43.5,159.94363656504586L48.33333333333333,159.94363656504586L53.166666666666664,159.94363656504586L58,159.94363656504586L62.833333333333336,159.94363656504586L67.66666666666667,159.94363656504586L72.5,159.94363656504586L77.33333333333333,159.94363656504586L82.16666666666667,159.94363656504586L87,159.94363656504586L91.83333333333333,159.94363656504586L96.66666666666666,159.94363656504586L101.5,159.94363656504586L106.33333333333333,159.94363656504586L111.16666666666667,159.94363656504586L116,159.94363656504586L120.83333333333334,159.94363656504586L125.66666666666667,159.94363656504586L130.5,159.94363656504586L135.33333333333334,159.94363656504586L140.16666666666666,159.94363656504586L145,159.94363656504586L149.83333333333334,159.94363656504586L154.66666666666666,159.94363656504586L159.5,159.94363656504586L164.33333333333334,160.34590890868142L169.16666666666669,159.94363656504586L174,159.94363656504586L178.83333333333334,161.61977252906019L183.66666666666666,159.94363656504586L188.5,159.94363656504586L193.33333333333331,159.94363656504586L198.16666666666666,159.94363656504586L203,159.94363656504586L207.83333333333334,159.94363656504586L212.66666666666666,159.94363656504586L217.5,159.94363656504586L222.33333333333334,159.94363656504586L227.16666666666666,159.94363656504586L232,159.94363656504586L236.83333333333334,159.60840961201623L241.66666666666669,159.94363656504586L246.5,159.94363656504586L251.33333333333334,159.94363656504586L256.1666666666667,159.94363656504586L261,159.94363656504586" style="fill: none;" fill="none"></path></g><g><path stroke="rgb(204, 51, 17)" stroke-width="2px" d="M24.166666666666664,155.91085344282064L29,158.77704509009016L33.833333333333336,158.88096640462226L38.666666666666664,159.00835192745382L43.5,158.699943610213L48.33333333333333,158.76363577219573L53.166666666666664,158.66306768628684L58,158.7267610471357L62.833333333333336,158.65301159701565L67.66666666666667,158.73681833527306L72.5,158.72340901737863L77.33333333333333,158.70999969948423L82.16666666666667,158.89437452365053L87,158.73346630551598L91.83333333333333,158.82062507353046L96.66666666666666,158.24068196524274L101.5,158.69323835183275L106.33333333333333,158.76028374243867L111.16666666666667,158.77034103057602L116,158.7032956399701L120.83333333333334,158.8273291330446L125.66666666666667,158.7032956399701L130.5,158.7167049578645L135.33333333333334,158.699943610213L140.16666666666666,158.75357968292454L145,158.66306768628684L149.83333333333334,158.699943610213L154.66666666666666,158.86085182834756L159.5,158.7871023782275L164.33333333333334,158.7167049578645L169.16666666666669,158.87761317599904L174,158.70664766972715L178.83333333333334,158.66306768628684L183.66666666666666,158.72005698762158L188.5,158.66306768628684L193.33333333333331,158.6965903815898L198.16666666666666,158.7435223947872L203,158.72340901737863L207.83333333333334,158.82397710328752L212.66666666666666,158.7032956399701L217.5,158.7401703650301L222.33333333333334,158.83738642118195L227.16666666666666,158.6865342923186L232,158.77369306033307L236.83333333333334,158.74687442454425L241.66666666666669,158.73681833527306L246.5,158.7267610471357L251.33333333333334,158.71335172924128L256.1666666666667,158.6965903815898L261,158.78375034847042" style="fill: none;" fill="none"></path></g><g><path stroke="rgb(187, 187, 187)" stroke-width="2px" d="M24.166666666666664,23.653634905815146L29,24.06931536847896L33.833333333333336,21.025451757691126L38.666666666666664,20.90476909550755L43.5,21.49477428739722L48.33333333333333,20.04659193212337L53.166666666666664,20.127050237222157L58,19.429770502177167L62.833333333333336,19.335913668979316L67.66666666666667,19.36272990703585L72.5,20.140458356250434L77.33333333333333,19.36272990703585L82.16666666666667,19.30908783999357L87,19.41636238314889L91.83333333333333,20.75727019526742L96.66666666666666,19.805226607756193L101.5,19.349321788007572L106.33333333333333,19.617503350431278L111.16666666666667,19.456586740233696L116,18.98727380145682L120.83333333333334,19.26886348290878L125.66666666666667,19.36272990703585L130.5,19.1079564636404L135.33333333333334,18.920223615386284L140.16666666666666,18.973865682428546L145,20.180682713335223L149.83333333333334,19.067722515626393L154.66666666666666,18.973865682428546L159.5,21.3874997442419L164.33333333333334,18.893407377329755L169.16666666666669,18.973865682428546L174,19.376138026064105L178.83333333333334,18.745908477089625L183.66666666666666,19.75159413164313L188.5,19.081140225583866L193.33333333333331,18.920223615386284L198.16666666666666,19.684543945572596L203,19.067722515626393L207.83333333333334,19.429770502177167L212.66666666666666,19.1079564636404L217.5,18.947049444372013L222.33333333333334,19.376138026064105L227.16666666666666,19.01409003951333L232,18.947049444372013L236.83333333333334,18.947049444372013L241.66666666666669,19.148180820725184L246.5,20.274549137462287L251.33333333333334,19.617503350431278L256.1666666666667,18.893407377329755L261,19.134772701696928" style="fill: none;" fill="none"></path></g><g><path stroke="rgb(0, 153, 136)" stroke-width="2px" d="M24.166666666666664,39.037216804244316L29,22.597673600370243L33.833333333333336,21.09584917805413L38.666666666666664,20.519261696121912L43.5,20.204151717099283L48.33333333333333,19.778410369699664L53.166666666666664,19.627554644237886L58,19.372781200842436L62.833333333333336,19.27222030813045L67.66666666666667,19.19510923732413L72.5,19.030854983763273L77.33333333333333,18.893407377329755L82.16666666666667,18.759316596117902L87,18.685571941462445L91.83333333333333,18.59505275162785L96.66666666666666,18.588348692113712L101.5,18.440849791873603L106.33333333333333,18.440849791873603L111.16666666666667,18.243065649812884L116,18.273238713091082L120.83333333333334,18.149208816615033L125.66666666666667,18.125739812850973L130.5,18.035230213945574L135.33333333333334,17.981588146903313L140.16666666666666,17.867609544233854L145,17.793864889578398L149.83333333333334,17.867609544233854L154.66666666666666,17.753640532493613L159.5,17.743579647757805L164.33333333333334,17.73687558824367L169.16666666666669,17.67988628690894L174,17.59942798181015L178.83333333333334,17.58937668800356L183.66666666666666,17.539091446182947L188.5,17.505571148612297L193.33333333333331,17.398296605456977L198.16666666666666,17.39159254594284L203,17.42511284351351L207.83333333333334,17.36812354217878L212.66666666666666,17.348011363636385L217.5,17.331246419386442L222.33333333333334,17.27090988375924L227.16666666666666,17.230685526674456L232,17.146870396353997L236.83333333333334,17.133462277325723L241.66666666666669,17.14016633683986L246.5,17.15358404679733L251.33333333333334,17.143523162061527L256.1666666666667,17.13011504303327L261,17.02954455939207" style="fill: none;" fill="none"></path></g></g></g></g></g></g><g transform="translate(40, 177)" clip-path="url(#clip_1)"><clipPath id="clip_1"><rect width="290" height="23"></rect></clipPath><g><g><line x1="0" y1="0" x2="0" y2="5" style="visibility: inherit;" fill="rgb(0, 0, 0)" stroke="rgb(204, 204, 204)" stroke-width="1px"></line><line x1="24.166666666666664" y1="0" x2="24.166666666666664" y2="5" style="visibility: inherit;" fill="rgb(0, 0, 0)" stroke="rgb(204, 204, 204)" stroke-width="1px"></line><line x1="48.33333333333333" y1="0" x2="48.33333333333333" y2="5" style="visibility: inherit;" fill="rgb(0, 0, 0)" stroke="rgb(204, 204, 204)" stroke-width="1px"></line><line x1="72.5" y1="0" x2="72.5" y2="5" style="visibility: inherit;" fill="rgb(0, 0, 0)" stroke="rgb(204, 204, 204)" stroke-width="1px"></line><line x1="96.66666666666666" y1="0" x2="96.66666666666666" y2="5" style="visibility: inherit;" fill="rgb(0, 0, 0)" stroke="rgb(204, 204, 204)" stroke-width="1px"></line><line x1="120.83333333333334" y1="0" x2="120.83333333333334" y2="5" style="visibility: inherit;" fill="rgb(0, 0, 0)" stroke="rgb(204, 204, 204)" stroke-width="1px"></line><line x1="145" y1="0" x2="145" y2="5" style="visibility: inherit;" fill="rgb(0, 0, 0)" stroke="rgb(204, 204, 204)" stroke-width="1px"></line><line x1="169.16666666666669" y1="0" x2="169.16666666666669" y2="5" style="visibility: inherit;" fill="rgb(0, 0, 0)" stroke="rgb(204, 204, 204)" stroke-width="1px"></line><line x1="193.33333333333331" y1="0" x2="193.33333333333331" y2="5" style="visibility: inherit;" fill="rgb(0, 0, 0)" stroke="rgb(204, 204, 204)" stroke-width="1px"></line><line x1="217.5" y1="0" x2="217.5" y2="5" style="visibility: inherit;" fill="rgb(0, 0, 0)" stroke="rgb(204, 204, 204)" stroke-width="1px"></line><line x1="241.66666666666669" y1="0" x2="241.66666666666669" y2="5" style="visibility: inherit;" fill="rgb(0, 0, 0)" stroke="rgb(204, 204, 204)" stroke-width="1px"></line><line x1="265.8333333333333" y1="0" x2="265.8333333333333" y2="5" style="visibility: inherit;" fill="rgb(0, 0, 0)" stroke="rgb(204, 204, 204)" stroke-width="1px"></line><line x1="290" y1="0" x2="290" y2="5" style="visibility: inherit;" fill="rgb(0, 0, 0)" stroke="rgb(204, 204, 204)" stroke-width="1px"></line></g><g transform="translate(0, 8)"><text x="0" y="0" dx="0em" dy="0.95em" style="text-anchor: middle; visibility: hidden; font-family: Roboto, sans-serif; font-size: 12px; font-weight: 200;" fill="rgb(255, 255, 255)" stroke="none" stroke-width="1px">-5</text><text x="24.166666666666664" y="0" dx="0em" dy="0.95em" style="text-anchor: middle; visibility: inherit; font-family: Roboto, sans-serif; font-size: 12px; font-weight: 200;" fill="rgb(255, 255, 255)" stroke="none" stroke-width="1px">0</text><text x="48.33333333333333" y="0" dx="0em" dy="0.95em" style="text-anchor: middle; visibility: inherit; font-family: Roboto, sans-serif; font-size: 12px; font-weight: 200;" fill="rgb(255, 255, 255)" stroke="none" stroke-width="1px">5</text><text x="72.5" y="0" dx="0em" dy="0.95em" style="text-anchor: middle; visibility: inherit; font-family: Roboto, sans-serif; font-size: 12px; font-weight: 200;" fill="rgb(255, 255, 255)" stroke="none" stroke-width="1px">10</text><text x="96.66666666666666" y="0" dx="0em" dy="0.95em" style="text-anchor: middle; visibility: inherit; font-family: Roboto, sans-serif; font-size: 12px; font-weight: 200;" fill="rgb(255, 255, 255)" stroke="none" stroke-width="1px">15</text><text x="120.83333333333334" y="0" dx="0em" dy="0.95em" style="text-anchor: middle; visibility: inherit; font-family: Roboto, sans-serif; font-size: 12px; font-weight: 200;" fill="rgb(255, 255, 255)" stroke="none" stroke-width="1px">20</text><text x="145" y="0" dx="0em" dy="0.95em" style="text-anchor: middle; visibility: inherit; font-family: Roboto, sans-serif; font-size: 12px; font-weight: 200;" fill="rgb(255, 255, 255)" stroke="none" stroke-width="1px">25</text><text x="169.16666666666669" y="0" dx="0em" dy="0.95em" style="text-anchor: middle; visibility: inherit; font-family: Roboto, sans-serif; font-size: 12px; font-weight: 200;" fill="rgb(255, 255, 255)" stroke="none" stroke-width="1px">30</text><text x="193.33333333333331" y="0" dx="0em" dy="0.95em" style="text-anchor: middle; visibility: inherit; font-family: Roboto, sans-serif; font-size: 12px; font-weight: 200;" fill="rgb(255, 255, 255)" stroke="none" stroke-width="1px">35</text><text x="217.5" y="0" dx="0em" dy="0.95em" style="text-anchor: middle; visibility: inherit; font-family: Roboto, sans-serif; font-size: 12px; font-weight: 200;" fill="rgb(255, 255, 255)" stroke="none" stroke-width="1px">40</text><text x="241.66666666666669" y="0" dx="0em" dy="0.95em" style="text-anchor: middle; visibility: inherit; font-family: Roboto, sans-serif; font-size: 12px; font-weight: 200;" fill="rgb(255, 255, 255)" stroke="none" stroke-width="1px">45</text><text x="265.8333333333333" y="0" dx="0em" dy="0.95em" style="text-anchor: middle; visibility: inherit; font-family: Roboto, sans-serif; font-size: 12px; font-weight: 200;" fill="rgb(255, 255, 255)" stroke="none" stroke-width="1px">50</text><text x="290" y="0" dx="0em" dy="0.95em" style="text-anchor: middle; visibility: hidden; font-family: Roboto, sans-serif; font-size: 12px; font-weight: 200;" fill="rgb(255, 255, 255)" stroke="none" stroke-width="1px">55</text></g><line x1="0" y1="0" x2="290" y2="0" fill="rgb(0, 0, 0)" stroke="rgb(204, 204, 204)" stroke-width="1px"></line></g></g></g></g></svg>