<svg viewBox="0 0 1496 400" xmlns="http://www.w3.org/2000/svg"><g><g><g><g><g><line x1="60" y1="377" x2="55" y2="377" style="visibility: inherit;" fill="rgb(0, 0, 0)" stroke="rgb(204, 204, 204)" stroke-width="1px"></line><line x1="60" y1="350.07142857142856" x2="55" y2="350.07142857142856" style="visibility: inherit;" fill="rgb(0, 0, 0)" stroke="rgb(204, 204, 204)" stroke-width="1px"></line><line x1="60" y1="323.1428571428577" x2="55" y2="323.1428571428577" style="visibility: inherit;" fill="rgb(0, 0, 0)" stroke="rgb(204, 204, 204)" stroke-width="1px"></line><line x1="60" y1="296.2142857142862" x2="55" y2="296.2142857142862" style="visibility: inherit;" fill="rgb(0, 0, 0)" stroke="rgb(204, 204, 204)" stroke-width="1px"></line><line x1="60" y1="269.28571428571473" x2="55" y2="269.28571428571473" style="visibility: inherit;" fill="rgb(0, 0, 0)" stroke="rgb(204, 204, 204)" stroke-width="1px"></line><line x1="60" y1="242.35714285714326" x2="55" y2="242.35714285714326" style="visibility: inherit;" fill="rgb(0, 0, 0)" stroke="rgb(204, 204, 204)" stroke-width="1px"></line><line x1="60" y1="215.42857142857176" x2="55" y2="215.42857142857176" style="visibility: inherit;" fill="rgb(0, 0, 0)" stroke="rgb(204, 204, 204)" stroke-width="1px"></line><line x1="60" y1="188.50000000000028" x2="55" y2="188.50000000000028" style="visibility: inherit;" fill="rgb(0, 0, 0)" stroke="rgb(204, 204, 204)" stroke-width="1px"></line><line x1="60" y1="161.57142857142884" x2="55" y2="161.57142857142884" style="visibility: inherit;" fill="rgb(0, 0, 0)" stroke="rgb(204, 204, 204)" stroke-width="1px"></line><line x1="60" y1="134.64285714285737" x2="55" y2="134.64285714285737" style="visibility: inherit;" fill="rgb(0, 0, 0)" stroke="rgb(204, 204, 204)" stroke-width="1px"></line><line x1="60" y1="107.71428571428588" x2="55" y2="107.71428571428588" style="visibility: inherit;" fill="rgb(0, 0, 0)" stroke="rgb(204, 204, 204)" stroke-width="1px"></line><line x1="60" y1="80.78571428571442" x2="55" y2="80.78571428571442" style="visibility: inherit;" fill="rgb(0, 0, 0)" stroke="rgb(204, 204, 204)" stroke-width="1px"></line><line x1="60" y1="53.85714285714296" x2="55" y2="53.85714285714296" style="visibility: inherit;" fill="rgb(0, 0, 0)" stroke="rgb(204, 204, 204)" stroke-width="1px"></line><line x1="60" y1="26.92857142857146" x2="55" y2="26.92857142857146" style="visibility: inherit;" fill="rgb(0, 0, 0)" stroke="rgb(204, 204, 204)" stroke-width="1px"></line><line x1="60" y1="0" x2="55" y2="0" style="visibility: inherit;" fill="rgb(0, 0, 0)" stroke="rgb(204, 204, 204)" stroke-width="1px"></line></g><g transform="translate(50, 0)"><text x="0" y="377" dx="0em" dy="0.3em" style="text-anchor: end; visibility: hidden; font-family: Roboto, sans-serif; font-size: 12px; font-weight: 200;" fill="rgb(33, 33, 33)" stroke="none" stroke-width="1px">0.93</text><text x="0" y="350.07142857142856" dx="0em" dy="0.3em" style="text-anchor: end; visibility: inherit; font-family: Roboto, sans-serif; font-size: 12px; font-weight: 200;" fill="rgb(33, 33, 33)" stroke="none" stroke-width="1px">0.935</text><text x="0" y="323.1428571428577" dx="0em" dy="0.3em" style="text-anchor: end; visibility: inherit; font-family: Roboto, sans-serif; font-size: 12px; font-weight: 200;" fill="rgb(33, 33, 33)" stroke="none" stroke-width="1px">0.94</text><text x="0" y="296.2142857142862" dx="0em" dy="0.3em" style="text-anchor: end; visibility: inherit; font-family: Roboto, sans-serif; font-size: 12px; font-weight: 200;" fill="rgb(33, 33, 33)" stroke="none" stroke-width="1px">0.945</text><text x="0" y="269.28571428571473" dx="0em" dy="0.3em" style="text-anchor: end; visibility: inherit; font-family: Roboto, sans-serif; font-size: 12px; font-weight: 200;" fill="rgb(33, 33, 33)" stroke="none" stroke-width="1px">0.95</text><text x="0" y="242.35714285714326" dx="0em" dy="0.3em" style="text-anchor: end; visibility: inherit; font-family: Roboto, sans-serif; font-size: 12px; font-weight: 200;" fill="rgb(33, 33, 33)" stroke="none" stroke-width="1px">0.955</text><text x="0" y="215.42857142857176" dx="0em" dy="0.3em" style="text-anchor: end; visibility: inherit; font-family: Roboto, sans-serif; font-size: 12px; font-weight: 200;" fill="rgb(33, 33, 33)" stroke="none" stroke-width="1px">0.96</text><text x="0" y="188.50000000000028" dx="0em" dy="0.3em" style="text-anchor: end; visibility: inherit; font-family: Roboto, sans-serif; font-size: 12px; font-weight: 200;" fill="rgb(33, 33, 33)" stroke="none" stroke-width="1px">0.965</text><text x="0" y="161.57142857142884" dx="0em" dy="0.3em" style="text-anchor: end; visibility: inherit; font-family: Roboto, sans-serif; font-size: 12px; font-weight: 200;" fill="rgb(33, 33, 33)" stroke="none" stroke-width="1px">0.97</text><text x="0" y="134.64285714285737" dx="0em" dy="0.3em" style="text-anchor: end; visibility: inherit; font-family: Roboto, sans-serif; font-size: 12px; font-weight: 200;" fill="rgb(33, 33, 33)" stroke="none" stroke-width="1px">0.975</text><text x="0" y="107.71428571428588" dx="0em" dy="0.3em" style="text-anchor: end; visibility: inherit; font-family: Roboto, sans-serif; font-size: 12px; font-weight: 200;" fill="rgb(33, 33, 33)" stroke="none" stroke-width="1px">0.98</text><text x="0" y="80.78571428571442" dx="0em" dy="0.3em" style="text-anchor: end; visibility: inherit; font-family: Roboto, sans-serif; font-size: 12px; font-weight: 200;" fill="rgb(33, 33, 33)" stroke="none" stroke-width="1px">0.985</text><text x="0" y="53.85714285714296" dx="0em" dy="0.3em" style="text-anchor: end; visibility: inherit; font-family: Roboto, sans-serif; font-size: 12px; font-weight: 200;" fill="rgb(33, 33, 33)" stroke="none" stroke-width="1px">0.99</text><text x="0" y="26.92857142857146" dx="0em" dy="0.3em" style="text-anchor: end; visibility: inherit; font-family: Roboto, sans-serif; font-size: 12px; font-weight: 200;" fill="rgb(33, 33, 33)" stroke="none" stroke-width="1px">0.995</text><text x="0" y="0" dx="0em" dy="0.3em" style="text-anchor: end; visibility: hidden; font-family: Roboto, sans-serif; font-size: 12px; font-weight: 200;" fill="rgb(33, 33, 33)" stroke="none" stroke-width="1px">1</text></g><line x1="60" y1="0" x2="60" y2="377" fill="rgb(0, 0, 0)" stroke="rgb(204, 204, 204)" stroke-width="1px"></line></g></g><g transform="translate(60, 0)" clip-path="url(#clip_0)"><clipPath id="clip_0"><rect width="1436" height="377"></rect></clipPath><g><g><g><line x1="0" y1="0" x2="0" y2="377" fill="rgb(0, 0, 0)" stroke="rgb(66, 66, 66)" stroke-width="1px" opacity="0.25"></line><line x1="119.66666666666666" y1="0" x2="119.66666666666666" y2="377" fill="rgb(0, 0, 0)" stroke="rgb(66, 66, 66)" stroke-width="1px" opacity="0.25"></line><line x1="239.33333333333331" y1="0" x2="239.33333333333331" y2="377" fill="rgb(0, 0, 0)" stroke="rgb(66, 66, 66)" stroke-width="1px" opacity="0.25"></line><line x1="359" y1="0" x2="359" y2="377" fill="rgb(0, 0, 0)" stroke="rgb(66, 66, 66)" stroke-width="1px" opacity="0.25"></line><line x1="478.66666666666663" y1="0" x2="478.66666666666663" y2="377" fill="rgb(0, 0, 0)" stroke="rgb(66, 66, 66)" stroke-width="1px" opacity="0.25"></line><line x1="598.3333333333334" y1="0" x2="598.3333333333334" y2="377" fill="rgb(0, 0, 0)" stroke="rgb(66, 66, 66)" stroke-width="1px" opacity="0.25"></line><line x1="718" y1="0" x2="718" y2="377" fill="rgb(0, 0, 0)" stroke="rgb(66, 66, 66)" stroke-width="1px" opacity="0.25"></line><line x1="837.6666666666667" y1="0" x2="837.6666666666667" y2="377" fill="rgb(0, 0, 0)" stroke="rgb(66, 66, 66)" stroke-width="1px" opacity="0.25"></line><line x1="957.3333333333333" y1="0" x2="957.3333333333333" y2="377" fill="rgb(0, 0, 0)" stroke="rgb(66, 66, 66)" stroke-width="1px" opacity="0.25"></line><line x1="1077" y1="0" x2="1077" y2="377" fill="rgb(0, 0, 0)" stroke="rgb(66, 66, 66)" stroke-width="1px" opacity="0.25"></line><line x1="1196.6666666666667" y1="0" x2="1196.6666666666667" y2="377" fill="rgb(0, 0, 0)" stroke="rgb(66, 66, 66)" stroke-width="1px" opacity="0.25"></line><line x1="1316.3333333333333" y1="0" x2="1316.3333333333333" y2="377" fill="rgb(0, 0, 0)" stroke="rgb(66, 66, 66)" stroke-width="1px" opacity="0.25"></line><line x1="1436" y1="0" x2="1436" y2="377" fill="rgb(0, 0, 0)" stroke="rgb(66, 66, 66)" stroke-width="1px" opacity="0.25"></line></g><g><line x1="0" y1="377" x2="1436" y2="377" fill="rgb(0, 0, 0)" stroke="rgb(66, 66, 66)" stroke-width="1px" opacity="0.25"></line><line x1="0" y1="350.07142857142856" x2="1436" y2="350.07142857142856" fill="rgb(0, 0, 0)" stroke="rgb(66, 66, 66)" stroke-width="1px" opacity="0.25"></line><line x1="0" y1="323.1428571428577" x2="1436" y2="323.1428571428577" fill="rgb(0, 0, 0)" stroke="rgb(66, 66, 66)" stroke-width="1px" opacity="0.25"></line><line x1="0" y1="296.2142857142862" x2="1436" y2="296.2142857142862" fill="rgb(0, 0, 0)" stroke="rgb(66, 66, 66)" stroke-width="1px" opacity="0.25"></line><line x1="0" y1="269.28571428571473" x2="1436" y2="269.28571428571473" fill="rgb(0, 0, 0)" stroke="rgb(66, 66, 66)" stroke-width="1px" opacity="0.25"></line><line x1="0" y1="242.35714285714326" x2="1436" y2="242.35714285714326" fill="rgb(0, 0, 0)" stroke="rgb(66, 66, 66)" stroke-width="1px" opacity="0.25"></line><line x1="0" y1="215.42857142857176" x2="1436" y2="215.42857142857176" fill="rgb(0, 0, 0)" stroke="rgb(66, 66, 66)" stroke-width="1px" opacity="0.25"></line><line x1="0" y1="188.50000000000028" x2="1436" y2="188.50000000000028" fill="rgb(0, 0, 0)" stroke="rgb(66, 66, 66)" stroke-width="1px" opacity="0.25"></line><line x1="0" y1="161.57142857142884" x2="1436" y2="161.57142857142884" fill="rgb(0, 0, 0)" stroke="rgb(66, 66, 66)" stroke-width="1px" opacity="0.25"></line><line x1="0" y1="134.64285714285737" x2="1436" y2="134.64285714285737" fill="rgb(0, 0, 0)" stroke="rgb(66, 66, 66)" stroke-width="1px" opacity="0.25"></line><line x1="0" y1="107.71428571428588" x2="1436" y2="107.71428571428588" fill="rgb(0, 0, 0)" stroke="rgb(66, 66, 66)" stroke-width="1px" opacity="0.25"></line><line x1="0" y1="80.78571428571442" x2="1436" y2="80.78571428571442" fill="rgb(0, 0, 0)" stroke="rgb(66, 66, 66)" stroke-width="1px" opacity="0.25"></line><line x1="0" y1="53.85714285714296" x2="1436" y2="53.85714285714296" fill="rgb(0, 0, 0)" stroke="rgb(66, 66, 66)" stroke-width="1px" opacity="0.25"></line><line x1="0" y1="26.92857142857146" x2="1436" y2="26.92857142857146" fill="rgb(0, 0, 0)" stroke="rgb(66, 66, 66)" stroke-width="1px" opacity="0.25"></line><line x1="0" y1="0" x2="1436" y2="0" fill="rgb(0, 0, 0)" stroke="rgb(66, 66, 66)" stroke-width="1px" opacity="0.25"></line></g></g></g><g><g><line x1="0" y1="5385.714285714289" x2="1436" y2="5385.714285714289" fill="rgb(0, 0, 0)" stroke="rgb(153, 153, 153)" stroke-width="1.5px"></line></g></g><g><g><line x1="119.66666666666666" y1="0" x2="119.66666666666666" y2="377" fill="rgb(0, 0, 0)" stroke="rgb(153, 153, 153)" stroke-width="1.5px"></line></g></g><g><g><g><g><g><path stroke="rgb(255, 112, 67)" stroke-width="2px" d="M167.53333333333333,396.124765198711L191.46666666666667,358.0477288384151L215.4,329.47697998085994L239.33333333333331,336.7996990729861L263.26666666666665,312.8949339709077L287.2,292.5969353659757L311.1333333333333,283.1775468813042L335.06666666666666,274.6971321237881L359,284.95695689625705L382.93333333333334,277.4153651395589L406.8666666666667,273.4401669979228L430.8,289.74355143671744L454.7333333333333,272.57618850530054L478.66666666666663,260.1260722893922L502.59999999999997,256.42887262617626L526.5333333333333,251.87681915237008L550.4666666666667,263.86782112412993L574.4,255.08375381366432L598.3333333333334,355.01673022725583L622.2666666666667,337.06075143833704L646.2,296.1270803207972L670.1333333333333,276.0552609685423L694.0666666666667,265.8074717135294L718,255.7091873021418L741.9333333333334,271.372725713813L765.8666666666667,264.43406181664335L789.8000000000001,255.96234866045367L813.7333333333333,255.90601142969362L837.6666666666667,246.5368759441203L861.6,257.79069583621094L885.5333333333334,248.92439139725514L909.4666666666666,243.96363061068084L933.4,257.32394116223975L957.3333333333333,255.4662629342123L981.2666666666667,252.01788721873083L1005.1999999999999,259.28406534913813L1029.1333333333334,249.46139191096574L1053.0666666666666,244.46547025756811L1077,244.51972923982916L1100.9333333333334,242.21851585154914L1124.8666666666666,257.17442607027175L1148.8,270.0974665613028L1172.7333333333333,283.5961500055636L1196.6666666666667,281.64198496269387L1220.6,276.1608415740297L1244.5333333333333,264.434634423699L1268.4666666666667,269.24739321946157L1292.4,271.0579837102293" style="fill: none;" fill="none"></path></g><g><path stroke="rgb(187, 187, 187)" stroke-width="2px" d="M191.46666666666667,383.9677454919386L215.4,335.93035487976505L239.33333333333331,299.2114740978477L263.26666666666665,276.13794613612447L287.2,257.0996928784943L311.1333333333333,242.02971434307986L335.06666666666666,232.54370723337547L359,222.15930747335324L382.93333333333334,215.86288056418948L406.8666666666667,210.3410956488073L430.8,203.888484226997L454.7333333333333,197.50569324217528L478.66666666666663,193.54320458111314L502.59999999999997,189.01180425266477L526.5333333333333,183.77992014611667L550.4666666666667,178.666262245447L574.4,175.23910380744633L598.3333333333334,172.5545873646783L622.2666666666667,168.2959034602935L646.2,165.4714606690482L670.1333333333333,163.64211133057705L694.0666666666667,163.352436567509L718,160.30619776165676L741.9333333333334,158.43364426120618L765.8666666666667,156.72663873373367L789.8000000000001,152.96470280521032L813.7333333333333,151.0216218980274L837.6666666666667,149.9904709475531L861.6,147.03801150258462L885.5333333333334,146.88226164853356L909.4666666666666,145.71161851792752L933.4,144.87453535766713L957.3333333333333,144.77624897259363L981.2666666666667,143.1464934492449L1005.1999999999999,139.20645515656668L1029.1333333333334,140.16363876739445L1053.0666666666666,136.74351266314693L1077,136.6213706892862L1100.9333333333334,135.02211531779216L1124.8666666666666,133.03031080517744L1148.8,132.86747938806835L1172.7333333333333,131.6028319467402L1196.6666666666667,132.72903526419714L1220.6,129.32069399698338L1244.5333333333333,130.0582350077167L1268.4666666666667,129.2440556242826L1292.4,126.96031161104922" style="fill: none;" fill="none"></path></g><g><path stroke="rgb(238, 51, 119)" stroke-width="2px" d="M119.66666666666666,382.834383419582L143.6,298.96316358021346L167.53333333333333,243.978285841623L191.46666666666667,220.33896982795076L215.4,205.36160534054815L239.33333333333331,188.49474767465088L263.26666666666665,169.4734046033724L287.2,163.1546090879242L311.1333333333333,157.61843501668105L335.06666666666666,149.63659335052444L359,144.5181603754373L382.93333333333334,160.70998401171354L406.8666666666667,150.80881108174674L430.8,145.41534479131576L454.7333333333333,145.41494254348657L478.66666666666663,138.5908522959418L502.59999999999997,133.95900688825907L526.5333333333333,128.84626722880918L550.4666666666667,127.93347344492621L574.4,125.23136761915765L598.3333333333334,123.43065261699743L622.2666666666667,121.09365677354836L646.2,120.94806446204166L670.1333333333333,131.99133085210642L694.0666666666667,130.89762891809497L718,126.65093085669199L741.9333333333334,124.46193861907422L765.8666666666667,124.04622765593133L789.8000000000001,134.38871264530772L813.7333333333333,131.97703897473772L837.6666666666667,152.43189621230889L861.6,138.1352825518725L885.5333333333334,129.91646510194613L909.4666666666666,124.80553567481333L933.4,122.27763892026499L957.3333333333333,127.58282490282912L981.2666666666667,133.8177484438096L1005.1999999999999,134.3273797663549L1029.1333333333334,134.09449775871727L1053.0666666666666,129.64625259128312L1077,129.4905850709023L1100.9333333333334,130.83339934706416L1124.8666666666666,132.89579190255668L1148.8,131.08128706193125L1172.7333333333333,128.55636936998792L1196.6666666666667,127.9391011493461L1220.6,125.77350383375223L1244.5333333333333,127.88510741308299L1268.4666666666667,126.99768317647508L1292.4,128.43997581547228" style="fill: none;" fill="none"></path></g><g><path stroke="rgb(51, 187, 238)" stroke-width="2px" d="M143.6,434.6299657864227L167.53333333333333,317.29685879657256L191.46666666666667,251.5585726424429L215.4,210.19279232308284L239.33333333333331,183.1074740407844L263.26666666666665,162.14752201876453L287.2,146.1190957420804L311.1333333333333,134.59057245552464L335.06666666666666,124.81314761004944L359,117.76849316530149L382.93333333333334,109.82492521704471L406.8666666666667,104.26088184427276L430.8,99.08561741480759L454.7333333333333,94.99515324181708L478.66666666666663,91.33000194570742L502.59999999999997,86.7974091544744L526.5333333333333,83.18057097605165L550.4666666666667,81.32493041848237L574.4,78.23679907129157L598.3333333333334,76.78783647640357L622.2666666666667,72.46265831127512L646.2,70.72033507341719L670.1333333333333,68.50799581648755L694.0666666666667,66.28304243076543L718,63.73631029299296L741.9333333333334,61.6696124405901L765.8666666666667,58.769054981060165L789.8000000000001,58.240484179488725L813.7333333333333,57.42962281744597L837.6666666666667,55.23762490444618L861.6,54.41614527861666L885.5333333333334,53.74374673861677L909.4666666666666,50.602575282535106L933.4,50.28865617671963L957.3333333333333,48.21531291518956L981.2666666666667,46.25326377642117L1005.1999999999999,44.761826200944284L1029.1333333333334,44.270927157810505L1053.0666666666666,44.47010662988282L1077,42.210903632402825L1100.9333333333334,41.88763312548353L1124.8666666666666,41.82823971708335L1148.8,40.715538885228426L1172.7333333333333,39.82346568628207L1196.6666666666667,37.76225158037227L1220.6,36.615278515798565L1244.5333333333333,36.061791978132L1268.4666666666667,34.11397447012616L1292.4,34.29174335408243" style="fill: none;" fill="none"></path></g><g><path stroke="rgb(0, 119, 187)" stroke-width="2px" d="M119.66666666666666,227.54630787032005L143.6,183.50685515574122L167.53333333333333,196.58762652741905L191.46666666666667,162.55154258125464L215.4,137.79388966510206L239.33333333333331,116.88761512640336L263.26666666666665,115.32899733289968L287.2,107.66634164963773L311.1333333333333,103.5146333722065L335.06666666666666,97.43823362767715L359,92.01422090495922L382.93333333333334,88.59253236084761L406.8666666666667,85.82518155682732L430.8,94.407997184021L454.7333333333333,88.2381090275341L478.66666666666663,84.53803329037731L502.59999999999997,85.19144345043186L526.5333333333333,83.0698839061995L550.4666666666667,79.82221856456505L574.4,80.20760012588002L598.3333333333334,79.54124636587507L622.2666666666667,80.0390092681459L646.2,80.15815060099132L670.1333333333333,89.92403424663931L694.0666666666667,84.11440094929836L718,79.55143651219238L741.9333333333334,78.07036810749824L765.8666666666667,77.89990007238514L789.8000000000001,78.15664104614504L813.7333333333333,77.05398130218711L837.6666666666667,81.23956301095343L861.6,80.33994944086479L885.5333333333334,78.36396648843116L909.4666666666666,92.61746147710615L933.4,88.06424250274543L957.3333333333333,82.81903156804195L981.2666666666667,80.56945903626493L1005.1999999999999,77.96313993703173L1029.1333333333334,78.55360646719626L1053.0666666666666,77.11264999888854L1077,78.76135569541036L1100.9333333333334,81.90496549765979L1124.8666666666666,80.73919100414804L1148.8,77.52631832812871L1172.7333333333333,77.57347030945155L1196.6666666666667,77.06310069945546L1220.6,76.2183465401382L1244.5333333333333,76.78868723666513L1268.4666666666667,76.41272005803724L1292.4,80.49578411375576" style="fill: none;" fill="none"></path></g><g><path stroke="rgb(255, 112, 67)" stroke-width="2px" d="M119.66666666666666,591.5310944829672L143.6,335.00833468777756L167.53333333333333,231.17820973298979L191.46666666666667,176.70800808285037L215.4,141.86837990089904L239.33333333333331,118.9229629402219L263.26666666666665,102.6746515377185L287.2,91.3958362570637L311.1333333333333,82.30282711753003L335.06666666666666,75.23525582713563L359,69.26549535761502L382.93333333333334,63.94328901995142L406.8666666666667,59.36429713544822L430.8,56.800384094687956L454.7333333333333,53.512076459939635L478.66666666666663,50.103590038299366L502.59999999999997,48.19370537273607L526.5333333333333,46.778687947303375L550.4666666666667,44.08960745952198L574.4,41.623492371376926L598.3333333333334,39.06666420247869L622.2666666666667,37.891629519691456L646.2,35.57088026297626L670.1333333333333,33.86436125708154L694.0666666666667,32.61600169062657L718,30.1165623498497L741.9333333333334,28.347635001830053L765.8666666666667,27.376035205731377L789.8000000000001,25.85057947163636L813.7333333333333,24.531471209349892L837.6666666666667,22.79751042257289L861.6,21.757134097706647L885.5333333333334,20.010773207960312L909.4666666666666,18.962956727484727L933.4,19.007496564351815L957.3333333333333,17.8674002684211L981.2666666666667,17.048645196507675L1005.1999999999999,15.614896262077973L1029.1333333333334,15.068855004347883L1053.0666666666666,14.157755954227527L1077,13.700851923894279L1100.9333333333334,12.304702816588767L1124.8666666666666,11.781093046111902L1148.8,11.646566387162048L1172.7333333333333,10.892620697370708L1196.6666666666667,9.722081686974287L1220.6,8.84024748300266L1244.5333333333333,8.58041315730638L1268.4666666666667,8.289943666279008L1292.4,7.4424322772922125" style="fill: none;" fill="none"></path></g></g></g></g><g opacity="0.2"><g><g><g><path stroke="rgb(255, 112, 67)" stroke-width="2px" d="M119.66666666666666,487.85590444292376L143.6,334.8120348794122L167.53333333333333,399.88919326237294L191.46666666666667,313.2691340787072L215.4,292.175010272435L239.33333333333331,346.9296557562694L263.26666666666665,278.71073739869274L287.2,263.0022585392L311.1333333333333,269.28577848843184L335.06666666666666,262.1047045503346L359,300.2536381993977L382.93333333333334,266.1440185138159L406.8666666666667,267.49034949711404L430.8,314.16668806757264L454.7333333333333,246.84532369886142L478.66666666666663,241.45967875208189L502.59999999999997,250.8846376623428L526.5333333333333,245.04989470754367L550.4666666666667,281.8524973733086L574.4,241.90845574651462L598.3333333333334,504.9107142857147L622.2666666666667,310.1273741040913L646.2,234.72738180841733L670.1333333333333,245.947769709996L694.0666666666667,250.43586066791008L718,240.56180374962958L741.9333333333334,294.8679932526182L765.8666666666667,254.02607662337186L789.8000000000001,243.2547867298128L813.7333333333333,255.8215056146896L837.6666666666667,232.4831758226669L861.6,274.67142343521135L885.5333333333334,235.62493579728277L909.4666666666666,236.52248978614824L933.4,277.36440641539457L957.3333333333333,252.67974564007366L981.2666666666667,246.84532369886142L1005.1999999999999,270.18333247729726L1029.1333333333334,234.72738180841733L1053.0666666666666,236.97158779416782L1077,244.60111771311094L1100.9333333333334,238.76669577189872L1124.8666666666666,279.60829138755815L1148.8,289.4820272922518L1172.7333333333333,303.8441751684463L1196.6666666666667,278.71073739869274L1220.6,267.9391264915468L1244.5333333333333,246.84532369886142L1268.4666666666667,276.4665314129423L1292.4,273.77386944634594" style="fill: none;" fill="none"></path></g><g><path stroke="rgb(187, 187, 187)" stroke-width="2px" d="M143.6,392.70844033786256L167.53333333333333,332.9045721462797L191.46666666666667,296.4387127331327L215.4,273.2127376965116L239.33333333333331,248.41604317937595L263.26666666666665,243.14243197441118L287.2,229.34173686163786L311.1333333333333,219.80442319597532L335.06666666666666,218.45809221267717L359,206.67689357485102L382.93333333333334,206.4525050776347L406.8666666666667,202.07644786153534L430.8,194.222208431789L454.7333333333333,187.93900949614402L478.66666666666663,187.60226624352606L502.59999999999997,182.21662129674652L526.5333333333333,175.93342236110155L550.4666666666667,170.99655440875475L574.4,170.09867940630244L598.3333333333334,168.5279599257879L622.2666666666667,161.90801773752497L646.2,161.23485224587586L670.1333333333333,160.8981089932579L694.0666666666667,162.917926481792L718,155.7368525436947L741.9333333333334,155.62481880188L765.8666666666667,154.16613306318018L789.8000000000001,147.3218023777009L813.7333333333333,148.10700161116475L837.6666666666667,148.4437448637827L861.6,142.60932292257044L885.5333333333334,146.64863688605183L909.4666666666666,143.95565390586862L933.4,143.61891065325068L957.3333333333333,144.6288193975177L981.2666666666667,140.70186018943795L1005.1999999999999,133.29639775412434L1029.1333333333334,141.59941417830342L1053.0666666666666,131.6133235182082L1077,136.43815772874024L1100.9333333333334,132.62323226247523L1124.8666666666666,130.04260403769368L1148.8,132.62323226247523L1172.7333333333333,129.70586078507569L1196.6666666666667,134.41834024020613L1220.6,124.20818209648141L1244.5333333333333,131.16454652377547L1268.4666666666667,128.02278654915955L1292.4,123.53469559124545" style="fill: none;" fill="none"></path></g><g><path stroke="rgb(238, 51, 119)" stroke-width="2px" d="M119.66666666666666,382.834383419582L143.6,248.64043167659233L167.53333333333333,191.19280321257466L191.46666666666667,192.53913419587286L215.4,185.80715826579515L239.33333333333331,165.16181145395564L263.26666666666665,142.27257966995248L287.2,153.94174456596386L311.1333333333333,149.45365360804976L335.06666666666666,137.7844887120384L359,136.88693472317297L382.93333333333334,184.90960427692968L406.8666666666667,135.9893807343075L430.8,137.33571171760568L454.7333333333333,145.41433964456843L478.66666666666663,128.35952980177754L502.59999999999997,127.01319881847934L526.5333333333333,121.17845586368026L550.4666666666667,126.56442182404665L574.4,121.17845586368026L598.3333333333334,120.72967886924752L622.2666666666667,117.58823990821847L646.2,120.72967886924752L670.1333333333333,148.55609961918432L694.0666666666667,129.25708379064295L718,120.28090187481479L741.9333333333334,121.17845586368026L765.8666666666667,123.4226618494307L789.8000000000001,149.9024306024825L813.7333333333333,128.35952980177754L837.6666666666667,183.11417528561194L861.6,116.69036490576615L885.5333333333334,117.58823990821847L909.4666666666666,117.13914190019888L933.4,118.4857938970839L957.3333333333333,135.54060373987477L981.2666666666667,143.17013365881795L1005.1999999999999,135.0918267454421L1029.1333333333334,133.74517474855702L1053.0666666666666,122.973884854998L1077,129.25708379064295L1100.9333333333334,132.8476207596916L1124.8666666666666,135.9893807343075L1148.8,128.35952980177754L1172.7333333333333,124.7689928327289L1196.6666666666667,127.01319881847934L1220.6,122.52510786056527L1244.5333333333333,131.0525127819607L1268.4666666666667,125.66654682159432L1292.4,130.60341477394113" style="fill: none;" fill="none"></path></g><g><path stroke="rgb(51, 187, 238)" stroke-width="2px" d="M119.66666666666666,703.8454021726341L143.6,273.1007039546968L167.53333333333333,204.65707608631695L191.46666666666667,174.2503481251854L215.4,156.18562953812744L239.33333333333331,145.63872814178475L263.26666666666665,132.1744552680425L287.2,122.74949635778164L311.1333333333333,117.58823990821847L335.06666666666666,110.29481121471957L359,107.26540599550528L382.93333333333334,97.95280184064598L406.8666666666667,95.9329843521119L430.8,91.33285965238304L454.7333333333333,88.86426516941623L478.66666666666663,85.83485995020193L502.59999999999997,80.00043800898966L526.5333333333333,77.75623202323918L550.4666666666667,78.54175227028989L574.4,73.60488431794309L598.3333333333334,74.61447204862327L622.2666666666667,65.97503338541307L646.2,68.10688461576194L670.1333333333333,65.1895131383624L694.0666666666667,62.94562816619877L718,59.916222946984476L741.9333333333334,58.56957095009946L765.8666666666667,54.41822324480333L789.8000000000001,57.447628464017626L813.7333333333333,56.21333122253422L837.6666666666667,51.94962876183648L861.6,53.183926003319925L885.5333333333334,52.73514900888719L909.4666666666666,45.890818323407885L933.4,49.81777753148765L957.3333333333333,45.10529807635717L981.2666666666667,43.31019009862632L1005.1999999999999,42.52466985157561L1029.1333333333334,43.534578595842646L1053.0666666666666,44.76887583732609L1077,38.82209914071221L1100.9333333333334,41.40272736549382L1124.8666666666666,41.7391496045249L1148.8,39.04648763792858L1172.7333333333333,38.48535588809423L1196.6666666666667,34.670430421829266L1220.6,34.89481891904559L1244.5333333333333,35.23156217166357L1268.4666666666667,31.192248208182235L1292.4,34.55839668001451" style="fill: none;" fill="none"></path></g><g><path stroke="rgb(0, 119, 187)" stroke-width="2px" d="M119.66666666666666,227.54630787032005L143.6,157.0831835269929L167.53333333333333,209.14516704423102L191.46666666666667,122.52510786056527L215.4,105.47029801777438L239.33333333333331,87.96671118055076L263.26666666666665,113.1001489503044L287.2,96.4941161019462L311.1333333333333,97.39167009081167L335.06666666666666,88.4154881749835L359,83.92739721706943L382.93333333333334,83.47862022263669L406.8666666666667,81.68319123131894L430.8,107.26540599550528L454.7333333333333,78.99052926472262L478.66666666666663,78.99052926472262L502.59999999999997,86.17128218923301L526.5333333333333,79.88808325358805L550.4666666666667,74.95121530124125L574.4,80.78563724245348L598.3333333333334,78.54175227028989L622.2666666666667,80.78563724245348L646.2,80.33686024802078L670.1333333333333,104.57274402890896L694.0666666666667,75.39999229567398L718,72.70700931549077L741.9333333333334,75.84876929010667L765.8666666666667,77.64419828142442L789.8000000000001,78.54175227028989L813.7333333333333,75.39999229567398L837.6666666666667,87.51793418611807L861.6,78.99052926472262L885.5333333333334,75.39999229567398L909.4666666666666,113.99770293916983L933.4,81.23441423688621L957.3333333333333,74.95121530124125L981.2666666666667,77.19510027340488L1005.1999999999999,74.05366131237582L1029.1333333333334,79.43930625915532L1053.0666666666666,74.95121530124125L1077,81.23441423688621L1100.9333333333334,86.6203801972526L1124.8666666666666,78.99052926472262L1148.8,72.70700931549077L1172.7333333333333,77.64419828142442L1196.6666666666667,76.29754628453941L1220.6,74.95121530124125L1244.5333333333333,77.64419828142442L1268.4666666666667,75.84876929010667L1292.4,86.6203801972526" style="fill: none;" fill="none"></path></g><g><path stroke="rgb(255, 112, 67)" stroke-width="2px" d="M119.66666666666666,591.5310944829672L143.6,181.09467881066473L167.53333333333333,131.50128977639343L191.46666666666667,112.65105094228481L215.4,96.3817613465446L239.33333333333331,87.18119093350009L263.26666666666665,79.43930625915532L287.2,74.95121530124125L311.1333333333333,68.89240486281265L335.06666666666666,64.74073614392967L359,60.36499994141721L382.93333333333334,55.988942725317855L406.8666666666667,52.510760511670824L430.8,52.95953750610356L454.7333333333333,48.5834802900042L478.66666666666663,44.99326433454246L502.59999999999997,45.32968657357354L526.5333333333333,44.65652108192448L550.4666666666667,40.05639638219566L574.4,37.924545151846786L598.3333333333334,35.23156217166357L622.2666666666667,36.12911616052904L646.2,32.08980219704766L670.1333333333333,31.304602963583847L694.0666666666667,30.7434712137495L718,26.367413997650146L741.9333333333334,25.694248506001088L765.8666666666667,25.918637003217455L789.8000000000001,23.562397275652216L813.7333333333333,22.552809544972035L837.6666666666667,20.196569817406797L861.6,20.196569817406797L885.5333333333334,17.39123208182201L909.4666666666666,17.39123208182201L933.4,19.07430631773815L957.3333333333333,16.157255853925463L981.2666666666667,15.820512601307485L1005.1999999999999,13.464272873742246L1029.1333333333334,14.249793120792958L1053.0666666666666,12.791107382093145L1077,13.015495879309512L1100.9333333333334,10.210479157311582L1124.8666666666666,10.995678390775396L1148.8,11.444776398794986L1172.7333333333333,9.761702162878848L1196.6666666666667,7.966273171561099L1220.6,7.5174961771284075L1244.5333333333333,8.190661668777466L1268.4666666666667,7.854239429746343L1292.4,6.1711651938302055" style="fill: none;" fill="none"></path></g></g></g></g></g></g><g transform="translate(60, 377)" clip-path="url(#clip_1)"><clipPath id="clip_1"><rect width="1436" height="23"></rect></clipPath><g><g><line x1="0" y1="0" x2="0" y2="5" style="visibility: inherit;" fill="rgb(0, 0, 0)" stroke="rgb(204, 204, 204)" stroke-width="1px"></line><line x1="119.66666666666666" y1="0" x2="119.66666666666666" y2="5" style="visibility: inherit;" fill="rgb(0, 0, 0)" stroke="rgb(204, 204, 204)" stroke-width="1px"></line><line x1="239.33333333333331" y1="0" x2="239.33333333333331" y2="5" style="visibility: inherit;" fill="rgb(0, 0, 0)" stroke="rgb(204, 204, 204)" stroke-width="1px"></line><line x1="359" y1="0" x2="359" y2="5" style="visibility: inherit;" fill="rgb(0, 0, 0)" stroke="rgb(204, 204, 204)" stroke-width="1px"></line><line x1="478.66666666666663" y1="0" x2="478.66666666666663" y2="5" style="visibility: inherit;" fill="rgb(0, 0, 0)" stroke="rgb(204, 204, 204)" stroke-width="1px"></line><line x1="598.3333333333334" y1="0" x2="598.3333333333334" y2="5" style="visibility: inherit;" fill="rgb(0, 0, 0)" stroke="rgb(204, 204, 204)" stroke-width="1px"></line><line x1="718" y1="0" x2="718" y2="5" style="visibility: inherit;" fill="rgb(0, 0, 0)" stroke="rgb(204, 204, 204)" stroke-width="1px"></line><line x1="837.6666666666667" y1="0" x2="837.6666666666667" y2="5" style="visibility: inherit;" fill="rgb(0, 0, 0)" stroke="rgb(204, 204, 204)" stroke-width="1px"></line><line x1="957.3333333333333" y1="0" x2="957.3333333333333" y2="5" style="visibility: inherit;" fill="rgb(0, 0, 0)" stroke="rgb(204, 204, 204)" stroke-width="1px"></line><line x1="1077" y1="0" x2="1077" y2="5" style="visibility: inherit;" fill="rgb(0, 0, 0)" stroke="rgb(204, 204, 204)" stroke-width="1px"></line><line x1="1196.6666666666667" y1="0" x2="1196.6666666666667" y2="5" style="visibility: inherit;" fill="rgb(0, 0, 0)" stroke="rgb(204, 204, 204)" stroke-width="1px"></line><line x1="1316.3333333333333" y1="0" x2="1316.3333333333333" y2="5" style="visibility: inherit;" fill="rgb(0, 0, 0)" stroke="rgb(204, 204, 204)" stroke-width="1px"></line><line x1="1436" y1="0" x2="1436" y2="5" style="visibility: inherit;" fill="rgb(0, 0, 0)" stroke="rgb(204, 204, 204)" stroke-width="1px"></line></g><g transform="translate(0, 8)"><text x="0" y="0" dx="0em" dy="0.95em" style="text-anchor: middle; visibility: hidden; font-family: Roboto, sans-serif; font-size: 12px; font-weight: 200;" fill="rgb(33, 33, 33)" stroke="none" stroke-width="1px">-5</text><text x="119.66666666666666" y="0" dx="0em" dy="0.95em" style="text-anchor: middle; visibility: inherit; font-family: Roboto, sans-serif; font-size: 12px; font-weight: 200;" fill="rgb(33, 33, 33)" stroke="none" stroke-width="1px">0</text><text x="239.33333333333331" y="0" dx="0em" dy="0.95em" style="text-anchor: middle; visibility: inherit; font-family: Roboto, sans-serif; font-size: 12px; font-weight: 200;" fill="rgb(33, 33, 33)" stroke="none" stroke-width="1px">5</text><text x="359" y="0" dx="0em" dy="0.95em" style="text-anchor: middle; visibility: inherit; font-family: Roboto, sans-serif; font-size: 12px; font-weight: 200;" fill="rgb(33, 33, 33)" stroke="none" stroke-width="1px">10</text><text x="478.66666666666663" y="0" dx="0em" dy="0.95em" style="text-anchor: middle; visibility: inherit; font-family: Roboto, sans-serif; font-size: 12px; font-weight: 200;" fill="rgb(33, 33, 33)" stroke="none" stroke-width="1px">15</text><text x="598.3333333333334" y="0" dx="0em" dy="0.95em" style="text-anchor: middle; visibility: inherit; font-family: Roboto, sans-serif; font-size: 12px; font-weight: 200;" fill="rgb(33, 33, 33)" stroke="none" stroke-width="1px">20</text><text x="718" y="0" dx="0em" dy="0.95em" style="text-anchor: middle; visibility: inherit; font-family: Roboto, sans-serif; font-size: 12px; font-weight: 200;" fill="rgb(33, 33, 33)" stroke="none" stroke-width="1px">25</text><text x="837.6666666666667" y="0" dx="0em" dy="0.95em" style="text-anchor: middle; visibility: inherit; font-family: Roboto, sans-serif; font-size: 12px; font-weight: 200;" fill="rgb(33, 33, 33)" stroke="none" stroke-width="1px">30</text><text x="957.3333333333333" y="0" dx="0em" dy="0.95em" style="text-anchor: middle; visibility: inherit; font-family: Roboto, sans-serif; font-size: 12px; font-weight: 200;" fill="rgb(33, 33, 33)" stroke="none" stroke-width="1px">35</text><text x="1077" y="0" dx="0em" dy="0.95em" style="text-anchor: middle; visibility: inherit; font-family: Roboto, sans-serif; font-size: 12px; font-weight: 200;" fill="rgb(33, 33, 33)" stroke="none" stroke-width="1px">40</text><text x="1196.6666666666667" y="0" dx="0em" dy="0.95em" style="text-anchor: middle; visibility: inherit; font-family: Roboto, sans-serif; font-size: 12px; font-weight: 200;" fill="rgb(33, 33, 33)" stroke="none" stroke-width="1px">45</text><text x="1316.3333333333333" y="0" dx="0em" dy="0.95em" style="text-anchor: middle; visibility: inherit; font-family: Roboto, sans-serif; font-size: 12px; font-weight: 200;" fill="rgb(33, 33, 33)" stroke="none" stroke-width="1px">50</text><text x="1436" y="0" dx="0em" dy="0.95em" style="text-anchor: middle; visibility: hidden; font-family: Roboto, sans-serif; font-size: 12px; font-weight: 200;" fill="rgb(33, 33, 33)" stroke="none" stroke-width="1px">55</text></g><line x1="0" y1="0" x2="1436" y2="0" fill="rgb(0, 0, 0)" stroke="rgb(204, 204, 204)" stroke-width="1px"></line></g></g></g></g></svg>