<svg viewBox="0 0 330.0000305175781 200.00001525878906" xmlns="http://www.w3.org/2000/svg"><g><g><g><g><g><line x1="50" y1="177" x2="45" y2="177" style="visibility: inherit;" fill="rgb(0, 0, 0)" stroke="rgb(204, 204, 204)" stroke-width="1px"></line><line x1="50" y1="163.3846153846154" x2="45" y2="163.3846153846154" style="visibility: inherit;" fill="rgb(0, 0, 0)" stroke="rgb(204, 204, 204)" stroke-width="1px"></line><line x1="50" y1="149.76923076923077" x2="45" y2="149.76923076923077" style="visibility: inherit;" fill="rgb(0, 0, 0)" stroke="rgb(204, 204, 204)" stroke-width="1px"></line><line x1="50" y1="136.15384615384616" x2="45" y2="136.15384615384616" style="visibility: inherit;" fill="rgb(0, 0, 0)" stroke="rgb(204, 204, 204)" stroke-width="1px"></line><line x1="50" y1="122.53846153846153" x2="45" y2="122.53846153846153" style="visibility: inherit;" fill="rgb(0, 0, 0)" stroke="rgb(204, 204, 204)" stroke-width="1px"></line><line x1="50" y1="108.92307692307693" x2="45" y2="108.92307692307693" style="visibility: inherit;" fill="rgb(0, 0, 0)" stroke="rgb(204, 204, 204)" stroke-width="1px"></line><line x1="50" y1="95.30769230769232" x2="45" y2="95.30769230769232" style="visibility: inherit;" fill="rgb(0, 0, 0)" stroke="rgb(204, 204, 204)" stroke-width="1px"></line><line x1="50" y1="81.69230769230768" x2="45" y2="81.69230769230768" style="visibility: inherit;" fill="rgb(0, 0, 0)" stroke="rgb(204, 204, 204)" stroke-width="1px"></line><line x1="50" y1="68.07692307692307" x2="45" y2="68.07692307692307" style="visibility: inherit;" fill="rgb(0, 0, 0)" stroke="rgb(204, 204, 204)" stroke-width="1px"></line><line x1="50" y1="54.46153846153847" x2="45" y2="54.46153846153847" style="visibility: inherit;" fill="rgb(0, 0, 0)" stroke="rgb(204, 204, 204)" stroke-width="1px"></line><line x1="50" y1="40.84615384615384" x2="45" y2="40.84615384615384" style="visibility: inherit;" fill="rgb(0, 0, 0)" stroke="rgb(204, 204, 204)" stroke-width="1px"></line><line x1="50" y1="27.230769230769234" x2="45" y2="27.230769230769234" style="visibility: inherit;" fill="rgb(0, 0, 0)" stroke="rgb(204, 204, 204)" stroke-width="1px"></line><line x1="50" y1="13.615384615384626" x2="45" y2="13.615384615384626" style="visibility: inherit;" fill="rgb(0, 0, 0)" stroke="rgb(204, 204, 204)" stroke-width="1px"></line><line x1="50" y1="0" x2="45" y2="0" style="visibility: inherit;" fill="rgb(0, 0, 0)" stroke="rgb(204, 204, 204)" stroke-width="1px"></line></g><g transform="translate(40, 0)"><text x="0" y="177" dx="0em" dy="0.3em" style="text-anchor: end; visibility: hidden; font-family: Roboto, sans-serif; font-size: 12px; font-weight: 200;" fill="rgb(255, 255, 255)" stroke="none" stroke-width="1px">0</text><text x="0" y="163.3846153846154" dx="0em" dy="0.3em" style="text-anchor: end; visibility: inherit; font-family: Roboto, sans-serif; font-size: 12px; font-weight: 200;" fill="rgb(255, 255, 255)" stroke="none" stroke-width="1px">0.02</text><text x="0" y="149.76923076923077" dx="0em" dy="0.3em" style="text-anchor: end; visibility: hidden; font-family: Roboto, sans-serif; font-size: 12px; font-weight: 200;" fill="rgb(255, 255, 255)" stroke="none" stroke-width="1px">0.04</text><text x="0" y="136.15384615384616" dx="0em" dy="0.3em" style="text-anchor: end; visibility: inherit; font-family: Roboto, sans-serif; font-size: 12px; font-weight: 200;" fill="rgb(255, 255, 255)" stroke="none" stroke-width="1px">0.06</text><text x="0" y="122.53846153846153" dx="0em" dy="0.3em" style="text-anchor: end; visibility: hidden; font-family: Roboto, sans-serif; font-size: 12px; font-weight: 200;" fill="rgb(255, 255, 255)" stroke="none" stroke-width="1px">0.08</text><text x="0" y="108.92307692307693" dx="0em" dy="0.3em" style="text-anchor: end; visibility: inherit; font-family: Roboto, sans-serif; font-size: 12px; font-weight: 200;" fill="rgb(255, 255, 255)" stroke="none" stroke-width="1px">0.1</text><text x="0" y="95.30769230769232" dx="0em" dy="0.3em" style="text-anchor: end; visibility: hidden; font-family: Roboto, sans-serif; font-size: 12px; font-weight: 200;" fill="rgb(255, 255, 255)" stroke="none" stroke-width="1px">0.12</text><text x="0" y="81.69230769230768" dx="0em" dy="0.3em" style="text-anchor: end; visibility: inherit; font-family: Roboto, sans-serif; font-size: 12px; font-weight: 200;" fill="rgb(255, 255, 255)" stroke="none" stroke-width="1px">0.14</text><text x="0" y="68.07692307692307" dx="0em" dy="0.3em" style="text-anchor: end; visibility: hidden; font-family: Roboto, sans-serif; font-size: 12px; font-weight: 200;" fill="rgb(255, 255, 255)" stroke="none" stroke-width="1px">0.16</text><text x="0" y="54.46153846153847" dx="0em" dy="0.3em" style="text-anchor: end; visibility: inherit; font-family: Roboto, sans-serif; font-size: 12px; font-weight: 200;" fill="rgb(255, 255, 255)" stroke="none" stroke-width="1px">0.18</text><text x="0" y="40.84615384615384" dx="0em" dy="0.3em" style="text-anchor: end; visibility: hidden; font-family: Roboto, sans-serif; font-size: 12px; font-weight: 200;" fill="rgb(255, 255, 255)" stroke="none" stroke-width="1px">0.2</text><text x="0" y="27.230769230769234" dx="0em" dy="0.3em" style="text-anchor: end; visibility: inherit; font-family: Roboto, sans-serif; font-size: 12px; font-weight: 200;" fill="rgb(255, 255, 255)" stroke="none" stroke-width="1px">0.22</text><text x="0" y="13.615384615384626" dx="0em" dy="0.3em" style="text-anchor: end; visibility: hidden; font-family: Roboto, sans-serif; font-size: 12px; font-weight: 200;" fill="rgb(255, 255, 255)" stroke="none" stroke-width="1px">0.24</text><text x="0" y="0" dx="0em" dy="0.3em" style="text-anchor: end; visibility: hidden; font-family: Roboto, sans-serif; font-size: 12px; font-weight: 200;" fill="rgb(255, 255, 255)" stroke="none" stroke-width="1px">0.26</text></g><line x1="50" y1="0" x2="50" y2="177" fill="rgb(0, 0, 0)" stroke="rgb(204, 204, 204)" stroke-width="1px"></line></g></g><g transform="translate(50, 0)" clip-path="url(#clip_0)"><clipPath id="clip_0"><rect width="280" height="177"></rect></clipPath><g><g><g><line x1="0" y1="0" x2="0" y2="177" fill="rgb(0, 0, 0)" stroke="rgb(189, 189, 189)" stroke-width="1px" opacity="0.25"></line><line x1="23.333333333333332" y1="0" x2="23.333333333333332" y2="177" fill="rgb(0, 0, 0)" stroke="rgb(189, 189, 189)" stroke-width="1px" opacity="0.25"></line><line x1="46.666666666666664" y1="0" x2="46.666666666666664" y2="177" fill="rgb(0, 0, 0)" stroke="rgb(189, 189, 189)" stroke-width="1px" opacity="0.25"></line><line x1="70" y1="0" x2="70" y2="177" fill="rgb(0, 0, 0)" stroke="rgb(189, 189, 189)" stroke-width="1px" opacity="0.25"></line><line x1="93.33333333333333" y1="0" x2="93.33333333333333" y2="177" fill="rgb(0, 0, 0)" stroke="rgb(189, 189, 189)" stroke-width="1px" opacity="0.25"></line><line x1="116.66666666666667" y1="0" x2="116.66666666666667" y2="177" fill="rgb(0, 0, 0)" stroke="rgb(189, 189, 189)" stroke-width="1px" opacity="0.25"></line><line x1="140" y1="0" x2="140" y2="177" fill="rgb(0, 0, 0)" stroke="rgb(189, 189, 189)" stroke-width="1px" opacity="0.25"></line><line x1="163.33333333333334" y1="0" x2="163.33333333333334" y2="177" fill="rgb(0, 0, 0)" stroke="rgb(189, 189, 189)" stroke-width="1px" opacity="0.25"></line><line x1="186.66666666666666" y1="0" x2="186.66666666666666" y2="177" fill="rgb(0, 0, 0)" stroke="rgb(189, 189, 189)" stroke-width="1px" opacity="0.25"></line><line x1="210" y1="0" x2="210" y2="177" fill="rgb(0, 0, 0)" stroke="rgb(189, 189, 189)" stroke-width="1px" opacity="0.25"></line><line x1="233.33333333333334" y1="0" x2="233.33333333333334" y2="177" fill="rgb(0, 0, 0)" stroke="rgb(189, 189, 189)" stroke-width="1px" opacity="0.25"></line><line x1="256.66666666666663" y1="0" x2="256.66666666666663" y2="177" fill="rgb(0, 0, 0)" stroke="rgb(189, 189, 189)" stroke-width="1px" opacity="0.25"></line><line x1="280" y1="0" x2="280" y2="177" fill="rgb(0, 0, 0)" stroke="rgb(189, 189, 189)" stroke-width="1px" opacity="0.25"></line></g><g><line x1="0" y1="177" x2="280" y2="177" fill="rgb(0, 0, 0)" stroke="rgb(189, 189, 189)" stroke-width="1px" opacity="0.25"></line><line x1="0" y1="163.3846153846154" x2="280" y2="163.3846153846154" fill="rgb(0, 0, 0)" stroke="rgb(189, 189, 189)" stroke-width="1px" opacity="0.25"></line><line x1="0" y1="149.76923076923077" x2="280" y2="149.76923076923077" fill="rgb(0, 0, 0)" stroke="rgb(189, 189, 189)" stroke-width="1px" opacity="0.25"></line><line x1="0" y1="136.15384615384616" x2="280" y2="136.15384615384616" fill="rgb(0, 0, 0)" stroke="rgb(189, 189, 189)" stroke-width="1px" opacity="0.25"></line><line x1="0" y1="122.53846153846153" x2="280" y2="122.53846153846153" fill="rgb(0, 0, 0)" stroke="rgb(189, 189, 189)" stroke-width="1px" opacity="0.25"></line><line x1="0" y1="108.92307692307693" x2="280" y2="108.92307692307693" fill="rgb(0, 0, 0)" stroke="rgb(189, 189, 189)" stroke-width="1px" opacity="0.25"></line><line x1="0" y1="95.30769230769232" x2="280" y2="95.30769230769232" fill="rgb(0, 0, 0)" stroke="rgb(189, 189, 189)" stroke-width="1px" opacity="0.25"></line><line x1="0" y1="81.69230769230768" x2="280" y2="81.69230769230768" fill="rgb(0, 0, 0)" stroke="rgb(189, 189, 189)" stroke-width="1px" opacity="0.25"></line><line x1="0" y1="68.07692307692307" x2="280" y2="68.07692307692307" fill="rgb(0, 0, 0)" stroke="rgb(189, 189, 189)" stroke-width="1px" opacity="0.25"></line><line x1="0" y1="54.46153846153847" x2="280" y2="54.46153846153847" fill="rgb(0, 0, 0)" stroke="rgb(189, 189, 189)" stroke-width="1px" opacity="0.25"></line><line x1="0" y1="40.84615384615384" x2="280" y2="40.84615384615384" fill="rgb(0, 0, 0)" stroke="rgb(189, 189, 189)" stroke-width="1px" opacity="0.25"></line><line x1="0" y1="27.230769230769234" x2="280" y2="27.230769230769234" fill="rgb(0, 0, 0)" stroke="rgb(189, 189, 189)" stroke-width="1px" opacity="0.25"></line><line x1="0" y1="13.615384615384626" x2="280" y2="13.615384615384626" fill="rgb(0, 0, 0)" stroke="rgb(189, 189, 189)" stroke-width="1px" opacity="0.25"></line><line x1="0" y1="0" x2="280" y2="0" fill="rgb(0, 0, 0)" stroke="rgb(189, 189, 189)" stroke-width="1px" opacity="0.25"></line></g></g></g><g><g><line x1="0" y1="177" x2="280" y2="177" fill="rgb(0, 0, 0)" stroke="rgb(153, 153, 153)" stroke-width="1.5px"></line></g></g><g><g><line x1="23.333333333333332" y1="0" x2="23.333333333333332" y2="177" fill="rgb(0, 0, 0)" stroke="rgb(153, 153, 153)" stroke-width="1.5px"></line></g></g><g><g><g><g><g><path stroke="rgb(51, 187, 238)" stroke-width="2px" d="M23.333333333333332,86.64564411686017L28,96.87006111213795L32.666666666666664,108.40245571065827L37.333333333333336,115.60435343476021L42,120.4111369358819L46.666666666666664,125.2600869794777L51.33333333333333,128.7296519322183L56,131.72573558339815L60.66666666666667,132.30167751301943L65.33333333333333,134.09136728797887L70,135.68618179962678L74.66666666666667,135.99505174838248L79.33333333333333,137.9166296543572L84,135.27014881837565L88.66666666666666,137.81831784793965L93.33333333333333,135.90771991094192L98,138.8059961099493L102.66666666666666,139.49967054954922L107.33333333333334,139.46025443538622L112,140.01907200418364L116.66666666666667,139.88137957292923L121.33333333333334,140.41633189406588L126,139.9243472178742L130.66666666666666,140.76926562954873L135.33333333333334,140.44683698333586L140,140.09055978711402L144.66666666666669,139.5647005526684L149.33333333333334,139.74318638813375L154,139.02898669810978L158.66666666666666,140.1871876876561L163.33333333333334,140.43035611018777L168,141.24039021853073L172.66666666666669,140.4659091549395L177.33333333333331,140.36677374544112L182,138.73176332896875L186.66666666666666,137.8640988263249L191.33333333333334,138.89369604493834L196,138.435752809215L200.66666666666666,138.61235435012534L205.33333333333331,139.35742750021976L210,137.89918507027636L214.66666666666669,136.96683937726826L219.33333333333334,137.47212700740994L224,131.61176565832366L228.66666666666666,133.17849675988202L233.33333333333334,134.53285507810108L238,135.89734984177224L242.66666666666669,137.3105810237213L247.33333333333331,137.92151855794967L252,138.10630013956114" style="fill: none;" fill="none"></path></g><g><path stroke="rgb(204, 51, 17)" stroke-width="2px" d="M23.333333333333332,-76.53932873560831L28,30.874367908932854L32.666666666666664,73.29230648688564L37.333333333333336,97.14730169302975L42,111.89208018677381L46.666666666666664,122.21799255139392L51.33333333333333,129.49799030425436L56,134.7345262213579L60.66666666666667,138.97490449703537L65.33333333333333,141.91376916505652L70,144.74016985916867L74.66666666666667,146.9159668981593L79.33333333333333,148.87109147268296L84,150.67281019044347L88.66666666666666,151.99969871768428L93.33333333333333,153.37248869957097L98,154.5864179320046L102.66666666666666,155.76411952923107L107.33333333333334,156.7033126925194L112,157.56652144051088L116.66666666666667,158.432676158221L121.33333333333334,159.23714878689114L126,159.98099192591408L130.66666666666666,160.74139810064244L135.33333333333334,161.42087657348165L140,162.18520754158638L144.66666666666669,162.81358930102243L149.33333333333334,163.3635126253748L154,163.88672462074314L158.66666666666666,164.40594756233813L163.33333333333334,164.96929662062288L168,165.37710252508467L172.66666666666669,165.79692935655382L177.33333333333331,166.26671155603327L182,166.77281778713902L186.66666666666666,167.22934601667342L191.33333333333334,167.70940860973934L196,168.0349525068972L200.66666666666666,168.42652827685762L205.33333333333331,168.74472431802596L210,169.09699844443855L214.66666666666669,169.32528175727788L219.33333333333334,169.58861970707875L224,169.87760303046866L228.66666666666666,170.11045533307384L233.33333333333334,170.3475094355992L238,170.70845983296638L242.66666666666669,170.98241458355164L247.33333333333331,171.19568957611935L252,171.4680276935456" style="fill: none;" fill="none"></path></g><g><path stroke="rgb(255, 112, 67)" stroke-width="2px" d="M23.333333333333332,109.84795780021412L28,113.59325369562094L32.666666666666664,108.44622194745946L37.333333333333336,114.48778978444855L42,120.97624882455841L46.666666666666664,118.17603420348328L51.33333333333333,120.73884341622332L56,122.53878641711573L60.66666666666667,124.23083943268075L65.33333333333333,124.10491174213111L70,121.18295772748944L74.66666666666667,118.78463079339453L79.33333333333333,117.0316349543732L84,116.91492732120166L88.66666666666666,116.95052535912812L93.33333333333333,110.08946915647668L98,107.14045303040288L102.66666666666666,109.08102797494837L107.33333333333334,107.50045273903683L112,106.30030057103092L116.66666666666667,105.38941167122736L121.33333333333334,103.15023343550247L126,101.04112623347743L130.66666666666666,97.71268509567051L135.33333333333334,96.46792226165773L140,95.74220342576079L144.66666666666669,89.71830686140154L149.33333333333334,88.19820629667271L154,89.6585065584763L158.66666666666666,85.96673272385735L163.33333333333334,85.68950943953608L168,78.59648081856075L172.66666666666669,78.9927938703564L177.33333333333331,78.1586182566678L182,75.83446445173695L186.66666666666666,74.03364214570483L191.33333333333334,69.16312634063883L196,64.93818129404437L200.66666666666666,59.17497242182412L205.33333333333331,59.55444317876159L210,56.21518343769763L214.66666666666669,54.352665159852414L219.33333333333334,54.715529241059826L224,49.03786286350291L228.66666666666666,52.06667103444488L233.33333333333334,47.08931562914176L238,49.283462347047845L242.66666666666669,45.110729231142166L247.33333333333331,37.26687510452987L252,40.24913065681215" style="fill: none;" fill="none"></path></g><g><path stroke="rgb(187, 187, 187)" stroke-width="2px" d="M23.333333333333332,43.336504828471405L28,86.73892495251046L32.666666666666664,106.30573311340491L37.333333333333336,119.06205033043999L42,127.31954896324243L46.666666666666664,133.4622570219476L51.33333333333333,138.6859678241611L56,141.97218345567356L60.66666666666667,144.90859831276256L65.33333333333333,147.43202362569372L70,149.44561032694506L74.66666666666667,151.19146649734523L79.33333333333333,152.8212034324785L84,154.07673243425364L88.66666666666666,155.47493532821704L93.33333333333333,156.39214280308647L98,157.04865830352543L102.66666666666666,157.63198295876472L107.33333333333334,158.25674255753287L112,159.28694499820864L116.66666666666667,160.47677175559573L121.33333333333334,161.57633049987862L126,162.00459934371193L130.66666666666666,162.28831661303178L135.33333333333334,162.81424264307634L140,162.27104635564623L144.66666666666669,162.9411943038234L149.33333333333334,162.6101504945998L154,163.02123367422155L158.66666666666666,162.95977052798528L163.33333333333334,163.8551677950525L168,164.41628362164073L172.66666666666669,164.210525704392L177.33333333333331,163.91666730240937L182,164.85718067126118L186.66666666666666,164.56685572724854L191.33333333333334,164.5295143318603L196,164.9340592547298L200.66666666666666,165.84462061555334L205.33333333333331,166.26806209953446L210,165.4610057633528L214.66666666666669,164.95430345819608L219.33333333333334,165.2386705040931L224,165.3605491221391L228.66666666666666,166.04900912314133L233.33333333333334,166.3063541168035L238,165.80518349892222L242.66666666666669,166.47534463184616L247.33333333333331,165.05810140835155L252,164.97829510705674" style="fill: none;" fill="none"></path></g><g><path stroke="rgb(238, 51, 119)" stroke-width="2px" d="M23.333333333333332,66.33833258656355L28,73.19501640733617L32.666666666666664,73.03588039426826L37.333333333333336,75.98297294439134L42,75.63246790350823L46.666666666666664,79.065443580926L51.33333333333333,80.39056618602804L56,81.1283080551305L60.66666666666667,74.56750704988178L65.33333333333333,76.3054050798314L70,75.21811518900104L74.66666666666667,72.88564971565815L79.33333333333333,73.10949551026539L84,72.32768760999673L88.66666666666666,70.87581048837536L93.33333333333333,63.24573851360381L98,57.602431472908215L102.66666666666666,59.973982917800086L107.33333333333334,52.69228242039866L112,52.33622737113634L116.66666666666667,46.53924617471344L121.33333333333334,48.322775999887526L126,46.90522487341856L130.66666666666666,36.54589296051357L135.33333333333334,31.745286045307136L140,36.216823474868846L144.66666666666669,35.89640231312655L149.33333333333334,34.86231435121868L154,26.393113320682154L158.66666666666666,18.55870783685605L163.33333333333334,19.760491374064117L168,20.266389618296685L172.66666666666669,22.531981170604677L177.33333333333331,22.268868372127365L182,18.64991574525049L186.66666666666666,10.805492926120948L191.33333333333334,10.942042031135617L196,4.218083214423141L200.66666666666666,1.5651765329417895L205.33333333333331,-6.955375666196784" style="fill: none;" fill="none"></path></g><g><path stroke="rgb(51, 187, 238)" stroke-width="2px" d="M23.333333333333332,-22.850773352843042L28,33.990216135119006L32.666666666666664,61.866912527305175L37.333333333333336,79.32369766319887L42,91.82044197555325L46.666666666666664,100.09102899553677L51.33333333333333,106.90011694324465L56,112.7558253214227L60.66666666666667,117.29046823643813L65.33333333333333,121.55430862089564L70,124.58369268016592L74.66666666666667,128.00466942198878L79.33333333333333,130.81870659626222L84,133.0253831046446L88.66666666666666,134.6037550341447L93.33333333333333,136.0081733807241L98,137.52810339528503L102.66666666666666,137.94243092617873L107.33333333333334,140.55895220910855L112,141.8969623568713L116.66666666666667,144.03281848326444L121.33333333333334,144.5743859054575L126,145.4869981750038L130.66666666666666,146.90903104102202L135.33333333333334,147.19081504830763L140,148.17625313113888L144.66666666666669,149.34382262655035L149.33333333333334,151.36590477666715L154,152.59995812619928L158.66666666666666,152.6968292231725L163.33333333333334,152.80033725731315L168,153.49263754656505L172.66666666666669,154.30653261656207L177.33333333333331,154.24165080379336L182,154.46420503461633L186.66666666666666,156.26624438269528L191.33333333333334,156.10039246236272L196,156.72916658605845L200.66666666666666,156.6980006460331L205.33333333333331,155.95212660415496L210,157.18792719201292L214.66666666666669,157.65906018372823L219.33333333333334,158.9890163290828L224,160.24462613692984L228.66666666666666,159.98744090689883L233.33333333333334,159.6539006165689L238,159.792880021345L242.66666666666669,158.80412318734315L247.33333333333331,161.21343632380993L252,163.89424539591397" style="fill: none;" fill="none"></path></g><g><path stroke="rgb(0, 119, 187)" stroke-width="2px" d="M23.333333333333332,-1.138543780033411L28,19.417648097930062L32.666666666666664,26.09751320629144L37.333333333333336,41.763609757351944L42,44.03750368285053L46.666666666666664,56.99714975213977L51.33333333333333,64.83792053003017L56,69.9238300032213L60.66666666666667,77.05634352003413L65.33333333333333,80.43405208282982L70,80.17744242724456L74.66666666666667,84.96979699340686L79.33333333333333,86.44813297725962L84,88.74696134038909L88.66666666666666,91.58067181027766L93.33333333333333,93.45405800522681L98,93.66033257647726L102.66666666666666,91.36522659650522L107.33333333333334,88.30866255314317L112,92.2338260749535L116.66666666666667,94.94950087321943L121.33333333333334,95.02843828337123L126,94.50928577750015L130.66666666666666,95.30001568219645L135.33333333333334,95.93046823820785L140,96.52921823239234L144.66666666666669,96.16067761173802L149.33333333333334,95.51608750569929L154,95.8888665873717L158.66666666666666,96.144311839446L163.33333333333334,96.13535611205147L168,86.84426837705038L172.66666666666669,90.19869887114126L177.33333333333331,90.29413597978588L182,91.79960183410094L186.66666666666666,92.56537396340833L191.33333333333334,91.23096218391976L196,91.56247046158227L200.66666666666666,90.4364549535422L205.33333333333331,89.43524356319769L210,81.20127138854986L214.66666666666669,84.39941862136662L219.33333333333334,87.11575067114264L224,87.06158783018961L228.66666666666666,88.02291438302757L233.33333333333334,89.38649038780797L238,89.67642072899596L242.66666666666669,89.01869228564443L247.33333333333331,89.1500752651139L252,87.82382875993815" style="fill: none;" fill="none"></path></g><g><path stroke="rgb(255, 112, 67)" stroke-width="2px" d="M32.666666666666664,-7.204687048305319L37.333333333333336,21.66365490643926L42,42.3623158530078L46.666666666666664,58.159976863580916L51.33333333333333,70.350210413496L56,80.1840674614904L60.66666666666667,88.43739726117055L65.33333333333333,95.06241716286415L70,100.48938154860535L74.66666666666667,105.3092517179747L79.33333333333333,109.4077049167509L84,113.21802033805656L88.66666666666666,116.58167887718217L93.33333333333333,119.3887190214129L98,122.21288375451977L102.66666666666666,124.55365778663361L107.33333333333334,126.77689643876353L112,128.73775554644615L116.66666666666667,130.4696046770546L121.33333333333334,132.15117131264498L126,133.80043679299752L130.66666666666666,135.48434682819314L135.33333333333334,136.85688929169368L140,138.3246251117533L144.66666666666669,139.45787336665515L149.33333333333334,140.4739353443436L154,141.7117034351712L158.66666666666666,142.90483381131867L163.33333333333334,143.68671951057175L168,144.77767327499888L172.66666666666669,145.79896933679825L177.33333333333331,146.77680307928864L182,147.7790372383279L186.66666666666666,148.55618471342854L191.33333333333334,149.43048820060125L196,150.23201547223442L200.66666666666666,151.01516663609144L205.33333333333331,151.7487774540165L210,152.5047416114879L214.66666666666669,153.32687092675258L219.33333333333334,153.8001998440089L224,154.42786213621415L228.66666666666666,155.01716013063722L233.33333333333334,155.65686770040875L238,156.3061657965968L242.66666666666669,156.7659991790355L247.33333333333331,157.49312771249572L252,158.0052843450642" style="fill: none;" fill="none"></path></g></g></g></g><g opacity="0.2"><g><g><g><path stroke="rgb(51, 187, 238)" stroke-width="2px" d="M23.333333333333332,86.64564411686017L28,103.0047113093046L32.666666666666664,119.47355452523783L37.333333333333336,124.07378515830406L42,126.68687347494638L46.666666666666664,131.9679305117864L51.33333333333333,133.69118532767664L56,136.0940543092214L60.66666666666667,133.1510799882504L65.33333333333333,136.7488480261885L70,138.06393871685634L74.66666666666667,136.45667581489454L79.33333333333333,140.79272222805483L84,131.305612295866L88.66666666666666,141.637576115246L93.33333333333333,133.0431705071376L98,143.15218395510544L102.66666666666666,140.54000608508403L107.33333333333334,139.40113626878994L112,140.85724727924054L116.66666666666667,139.6748484774278L121.33333333333334,141.21874277293682L126,139.18637991696596L130.66666666666666,142.03663323819637L135.33333333333334,139.9631963057014L140,139.55614551214072L144.66666666666669,138.77591304652967L149.33333333333334,140.010914867314L154,137.95768782095266L158.66666666666666,141.92448853185545L163.33333333333334,140.79510866334806L168,142.45544121987547L172.66666666666669,139.3041876520102L177.33333333333331,140.2180706382944L182,136.27924777452762L186.66666666666666,136.5626020947328L191.33333333333334,140.43809185692896L196,137.748837959881L200.66666666666666,138.87725666050727L205.33333333333331,140.47503722287144L210,135.7118214282852L214.66666666666669,135.5683208388778L219.33333333333334,138.23005845225777L224,122.82122363723242L228.66666666666666,135.52859341181244L233.33333333333334,136.56439255521846L238,137.94409198715138L242.66666666666669,139.43042779656557L247.33333333333331,138.8379248592716L252,138.38347251197467" style="fill: none;" fill="none"></path></g><g><path stroke="rgb(204, 51, 17)" stroke-width="2px" d="M23.333333333333332,-76.53932873560831L28,95.32258589565754L32.666666666666664,114.01352752172029L37.333333333333336,125.20077605545521L42,131.14286298820605L46.666666666666664,136.50244668011482L51.33333333333333,139.90850357080882L56,142.36944585923965L60.66666666666667,145.2286388025834L65.33333333333333,146.27764069002407L70,148.95413565406432L74.66666666666667,150.16782186524225L79.33333333333333,151.79739451351074L84,153.37185851255288L88.66666666666666,153.98847180089126L93.33333333333333,155.43070547454633L98,156.40679808648733L102.66666666666666,157.53037290676284L107.33333333333334,158.1119593608265L112,158.86125566179936L116.66666666666667,159.73186073280297L121.33333333333334,160.44383125838178L126,161.09674194856333L130.66666666666666,161.88199835499893L135.33333333333334,162.44008945329833L140,163.33170073422102L144.66666666666669,163.75616033231984L149.33333333333334,164.18839676764148L154,164.67154213184347L158.66666666666666,165.18478168776403L163.33333333333334,165.8143200212373L168,165.98881130063762L172.66666666666669,166.42666955363865L177.33333333333331,166.97138482160292L182,167.5319771120468L186.66666666666666,167.91413834920297L191.33333333333334,168.42950249191088L196,168.52326834961198L200.66666666666666,169.0138919296173L205.33333333333331,169.2220183787151L210,169.62540963335107L214.66666666666669,169.6677067262622L219.33333333333334,169.98362663159003L224,170.3110780154283L228.66666666666666,170.45973378692108L233.33333333333334,170.70309058935024L238,171.24988542898345L242.66666666666669,171.39334670941417L247.33333333333331,171.5156020649637L252,171.87653486967946" style="fill: none;" fill="none"></path></g><g><path stroke="rgb(255, 112, 67)" stroke-width="2px" d="M23.333333333333332,109.84795780021412L28,115.84043123286503L32.666666666666664,103.50507146922442L37.333333333333336,121.59267356074774L42,129.44758094732578L46.666666666666664,114.30232930527285L51.33333333333333,124.40370159538892L56,125.16312059186971L60.66666666666667,126.72628896626142L65.33333333333333,123.91792379778164L70,116.82652861338394L74.66666666666667,115.20019198151735L79.33333333333333,114.40786503140743L84,116.74009451384728L88.66666666666666,117.00388057186053L93.33333333333333,99.80272380090678L98,102.71817676608379L102.66666666666666,111.99139767999833L107.33333333333334,105.12983066989825L112,104.50018201768398L116.66666666666667,104.02312827683413L121.33333333333334,99.7915397630288L126,97.87750707108242L130.66666666666666,92.72006281751854L135.33333333333334,94.60078685788008L140,94.65362826677469L144.66666666666669,80.68247742836292L149.33333333333334,85.91805778329189L154,91.84895560603874L158.66666666666666,80.42907401231619L163.33333333333334,85.27367460498444L168,67.956939298373L172.66666666666669,79.58726340073807L177.33333333333331,76.90735489588516L182,72.34823384422523L186.66666666666666,71.33240873309283L191.33333333333334,61.85735270839472L196,58.60076376337272L200.66666666666666,50.53015914559364L205.33333333333331,60.123649312899666L210,51.20629383279727L214.66666666666669,51.558887745325386L219.33333333333334,55.259825362608986L224,40.52136329962657L228.66666666666666,56.609883290070755L233.33333333333334,39.62328252196312L238,52.57468242370166L242.66666666666669,38.85162955751785L247.33333333333331,25.50109391487563L252,44.722513985175354" style="fill: none;" fill="none"></path></g><g><path stroke="rgb(187, 187, 187)" stroke-width="2px" d="M23.333333333333332,43.336504828471405L28,112.78037702693389L32.666666666666664,125.08986894786358L37.333333333333336,134.06347937767322L42,138.1005391782293L46.666666666666664,141.959833642038L51.33333333333333,146.15595785069925L56,146.76351739408878L60.66666666666667,149.239239857747L65.33333333333333,151.1790161253168L70,152.44772729564173L74.66666666666667,153.8007498807632L79.33333333333333,155.26048746131934L84,155.95756622489827L88.66666666666666,157.57059613414683L93.33333333333333,157.7673071296169L98,158.0331537388265L102.66666666666666,158.50682183555685L107.33333333333334,159.19378677984844L112,160.83215449463862L116.66666666666667,162.2614466387492L121.33333333333334,163.22563243485413L126,162.64699415404064L130.66666666666666,162.71388915611L135.33333333333334,163.60312795008605L140,161.4562542409851L144.66666666666669,163.94641451136422L149.33333333333334,162.11358528899459L154,163.63785806498848L158.66666666666666,162.8675758426006L163.33333333333334,165.19826339872984L168,165.25795724987984L172.66666666666669,163.90188885308228L177.33333333333331,163.47587972048385L182,166.26795068411874L186.66666666666666,164.13136831871591L191.33333333333334,164.47350223935567L196,165.54087663527864L200.66666666666666,167.21046265171697L205.33333333333331,166.90322432409113L210,164.2504212606985L214.66666666666669,164.1942500010706L219.33333333333334,165.6652210727334L224,165.54336704915534L228.66666666666666,167.08169912446576L233.33333333333334,166.69237160725663L238,165.0534275721472L242.66666666666669,167.48058633119442L247.33333333333331,162.9322365731574L252,164.85858565511612" style="fill: none;" fill="none"></path></g><g><path stroke="rgb(238, 51, 119)" stroke-width="2px" d="M23.333333333333332,66.33833258656355L28,77.30902669979976L32.666666666666664,72.88310982172305L37.333333333333336,79.44875378333606L42,75.17484852213127L46.666666666666664,83.81448481403865L51.33333333333333,82.2855127132856L56,82.20394278260379L60.66666666666667,64.89159993712718L65.33333333333333,78.88598111271858L70,73.59704199204079L74.66666666666667,69.3996446797481L79.33333333333333,73.44453330681874L84,71.15650740265846L88.66666666666666,68.69970143299835L93.33333333333333,51.806011869357185L98,49.1398589702753L102.66666666666666,63.53070794848296L107.33333333333334,41.770840968077L112,51.80217734208473L116.66666666666667,37.844092300305014L121.33333333333334,50.99801204984005L126,44.77892617078929L130.66666666666666,21.00701780731861L135.33333333333334,24.54440979315685L140,42.924110550146835L144.66666666666669,35.415771390383064L149.33333333333334,33.311183995925475L154,13.689319576208414L158.66666666666666,6.807103941073792L163.33333333333334,21.563166281351688L168,21.025236883988754L172.66666666666669,25.930368228600578L177.33333333333331,21.874199193257557L182,13.221486960466105L186.66666666666666,-0.9611411002966195L191.33333333333334,11.146865686545016L196,-5.867854948227228L214.66666666666669,-9.99009349712959L219.33333333333334,2.6522414775995182L224,-14.52364088938784" style="fill: none;" fill="none"></path></g><g><path stroke="rgb(51, 187, 238)" stroke-width="2px" d="M23.333333333333332,-22.850773352843042L28,68.09480982789627L32.666666666666664,88.6285410638039L37.333333333333336,99.85287698300985L42,108.13619134976314L46.666666666666664,111.53222825550115L51.33333333333333,116.6372216538741L56,121.29350435160673L60.66666666666667,123.97818572704608L65.33333333333333,127.88561466680125L70,129.1002924786164L74.66666666666667,133.11751773036445L79.33333333333333,135.03057403805164L84,136.33107475821788L88.66666666666666,136.9694576114416L93.33333333333333,138.11381039596523L98,139.80735523368304L102.66666666666666,138.56381702480408L107.33333333333334,144.48333553282114L112,143.90385527908802L116.66666666666667,147.23648553742814L121.33333333333334,145.38671921824033L126,146.85589856138597L130.66666666666666,149.0420634947144L135.33333333333334,147.61348905643592L140,149.65440605294245L144.66666666666669,151.09517388217725L149.33333333333334,154.39902489746993L154,154.45103701376L158.66666666666666,152.84213581509317L163.33333333333334,152.95559927419973L168,154.53108784269827L172.66666666666669,155.5273751243949L177.33333333333331,154.14432808928765L182,154.7980363712861L186.66666666666666,158.96930335834622L191.33333333333334,155.8516145844299L196,157.6723277657651L200.66666666666666,156.6512517361687L205.33333333333331,154.8333155438304L210,159.0416280713219L214.66666666666669,158.3657596707344L219.33333333333334,160.9839505461546L224,162.1280408481566L228.66666666666666,159.6016630619191L233.33333333333334,159.15359018112605L238,160.00134912849617L242.66666666666669,157.32098793639588L247.33333333333331,164.8274060284289L252,167.91545900401587" style="fill: none;" fill="none"></path></g><g><path stroke="rgb(0, 119, 187)" stroke-width="2px" d="M23.333333333333332,-1.138543780033411L28,31.75136322470813L32.666666666666664,32.510183710318344L37.333333333333336,60.18693930139908L42,47.00629959198146L46.666666666666664,74.92500573855179L51.33333333333333,76.05034819474587L56,77.33913483986488L60.66666666666667,87.57541553790753L65.33333333333333,85.4495556469147L70,79.79485537455632L74.66666666666667,92.13224906073168L79.33333333333333,88.66080992955429L84,92.19070024100634L88.66666666666666,95.82790659482663L93.33333333333333,96.26281604056175L98,93.96965714486745L102.66666666666666,87.9231503537068L107.33333333333334,83.72428212486781L112,98.12121258217556L116.66666666666667,99.02286413655833L121.33333333333334,95.14684180112985L126,93.73056726845411L130.66666666666666,96.48610117229131L135.33333333333334,96.87614259123802L140,97.42734067027385L144.66666666666669,95.60786762375099L149.33333333333334,94.54920333623886L154,96.44803486649806L158.66666666666666,96.52747957637676L163.33333333333334,96.12192252392953L168,72.90763862316425L172.66666666666669,95.23034421182597L177.33333333333331,90.43729163591678L182,94.05780055087345L186.66666666666666,93.7140321376232L191.33333333333334,89.22934453533247L196,92.05973287499869L200.66666666666666,88.74743169775375L205.33333333333331,87.93342648102687L210,68.85031314308827L214.66666666666669,89.19663946674422L219.33333333333334,91.19024874384587L224,86.98034356878354L228.66666666666666,89.46490421203467L233.33333333333334,91.431854394766L238,90.11131624075082L242.66666666666669,88.03209962065404L247.33333333333331,89.34714973431366L252,85.83445900220138" style="fill: none;" fill="none"></path></g><g><path stroke="rgb(255, 112, 67)" stroke-width="2px" d="M23.333333333333332,-153.4742897932346L28,6.316649643274457L32.666666666666664,37.33956792492133L37.333333333333336,55.61282504521884L42,69.38648758484767L46.666666666666664,80.0138291991674L51.33333333333333,87.78243943361136L56,94.52192544249388L60.66666666666667,100.60945558891848L65.33333333333333,104.89979961055977L70,108.58060595966303L74.66666666666667,112.5128274514125L79.33333333333333,115.54200255412323L84,118.92602866544173L88.66666666666666,121.6232128315247L93.33333333333333,123.59729949556863L98,126.44793576231369L102.66666666666666,128.0642245125312L107.33333333333334,130.11141572892666L112,131.67886497768072L116.66666666666667,133.067283394245L121.33333333333334,134.67346593336416L126,136.2743024516564L130.66666666666666,138.01019193346684L135.33333333333334,138.91569323150011L140,140.5262225826199L144.66666666666669,141.15774284933622L149.33333333333334,141.9980267509818L154,143.5683544312532L158.66666666666666,144.69452871611486L163.33333333333334,144.85954780016954L168,146.41410370457632L172.66666666666669,147.3309133075751L177.33333333333331,148.24355362298397L182,149.28238843381405L186.66666666666666,149.72190590603995L191.33333333333334,150.7419434178334L196,151.43430637224364L200.66666666666666,152.18989337751498L205.33333333333331,152.84919367845242L210,153.63868784617918L214.66666666666669,154.56006489866056L219.33333333333334,154.5101932195517L224,155.36935557425022L228.66666666666666,155.90110712211865L233.33333333333334,156.61642905496635L238,157.28011294081807L242.66666666666669,157.4557492526678L247.33333333333331,158.58382051266156L252,158.7735192939066" style="fill: none;" fill="none"></path></g></g></g></g></g></g><g transform="translate(50, 177)" clip-path="url(#clip_1)"><clipPath id="clip_1"><rect width="280" height="23"></rect></clipPath><g><g><line x1="0" y1="0" x2="0" y2="5" style="visibility: inherit;" fill="rgb(0, 0, 0)" stroke="rgb(204, 204, 204)" stroke-width="1px"></line><line x1="23.333333333333332" y1="0" x2="23.333333333333332" y2="5" style="visibility: inherit;" fill="rgb(0, 0, 0)" stroke="rgb(204, 204, 204)" stroke-width="1px"></line><line x1="46.666666666666664" y1="0" x2="46.666666666666664" y2="5" style="visibility: inherit;" fill="rgb(0, 0, 0)" stroke="rgb(204, 204, 204)" stroke-width="1px"></line><line x1="70" y1="0" x2="70" y2="5" style="visibility: inherit;" fill="rgb(0, 0, 0)" stroke="rgb(204, 204, 204)" stroke-width="1px"></line><line x1="93.33333333333333" y1="0" x2="93.33333333333333" y2="5" style="visibility: inherit;" fill="rgb(0, 0, 0)" stroke="rgb(204, 204, 204)" stroke-width="1px"></line><line x1="116.66666666666667" y1="0" x2="116.66666666666667" y2="5" style="visibility: inherit;" fill="rgb(0, 0, 0)" stroke="rgb(204, 204, 204)" stroke-width="1px"></line><line x1="140" y1="0" x2="140" y2="5" style="visibility: inherit;" fill="rgb(0, 0, 0)" stroke="rgb(204, 204, 204)" stroke-width="1px"></line><line x1="163.33333333333334" y1="0" x2="163.33333333333334" y2="5" style="visibility: inherit;" fill="rgb(0, 0, 0)" stroke="rgb(204, 204, 204)" stroke-width="1px"></line><line x1="186.66666666666666" y1="0" x2="186.66666666666666" y2="5" style="visibility: inherit;" fill="rgb(0, 0, 0)" stroke="rgb(204, 204, 204)" stroke-width="1px"></line><line x1="210" y1="0" x2="210" y2="5" style="visibility: inherit;" fill="rgb(0, 0, 0)" stroke="rgb(204, 204, 204)" stroke-width="1px"></line><line x1="233.33333333333334" y1="0" x2="233.33333333333334" y2="5" style="visibility: inherit;" fill="rgb(0, 0, 0)" stroke="rgb(204, 204, 204)" stroke-width="1px"></line><line x1="256.66666666666663" y1="0" x2="256.66666666666663" y2="5" style="visibility: inherit;" fill="rgb(0, 0, 0)" stroke="rgb(204, 204, 204)" stroke-width="1px"></line><line x1="280" y1="0" x2="280" y2="5" style="visibility: inherit;" fill="rgb(0, 0, 0)" stroke="rgb(204, 204, 204)" stroke-width="1px"></line></g><g transform="translate(0, 8)"><text x="0" y="0" dx="0em" dy="0.95em" style="text-anchor: middle; visibility: hidden; font-family: Roboto, sans-serif; font-size: 12px; font-weight: 200;" fill="rgb(255, 255, 255)" stroke="none" stroke-width="1px">-5</text><text x="23.333333333333332" y="0" dx="0em" dy="0.95em" style="text-anchor: middle; visibility: inherit; font-family: Roboto, sans-serif; font-size: 12px; font-weight: 200;" fill="rgb(255, 255, 255)" stroke="none" stroke-width="1px">0</text><text x="46.666666666666664" y="0" dx="0em" dy="0.95em" style="text-anchor: middle; visibility: inherit; font-family: Roboto, sans-serif; font-size: 12px; font-weight: 200;" fill="rgb(255, 255, 255)" stroke="none" stroke-width="1px">5</text><text x="70" y="0" dx="0em" dy="0.95em" style="text-anchor: middle; visibility: inherit; font-family: Roboto, sans-serif; font-size: 12px; font-weight: 200;" fill="rgb(255, 255, 255)" stroke="none" stroke-width="1px">10</text><text x="93.33333333333333" y="0" dx="0em" dy="0.95em" style="text-anchor: middle; visibility: inherit; font-family: Roboto, sans-serif; font-size: 12px; font-weight: 200;" fill="rgb(255, 255, 255)" stroke="none" stroke-width="1px">15</text><text x="116.66666666666667" y="0" dx="0em" dy="0.95em" style="text-anchor: middle; visibility: inherit; font-family: Roboto, sans-serif; font-size: 12px; font-weight: 200;" fill="rgb(255, 255, 255)" stroke="none" stroke-width="1px">20</text><text x="140" y="0" dx="0em" dy="0.95em" style="text-anchor: middle; visibility: inherit; font-family: Roboto, sans-serif; font-size: 12px; font-weight: 200;" fill="rgb(255, 255, 255)" stroke="none" stroke-width="1px">25</text><text x="163.33333333333334" y="0" dx="0em" dy="0.95em" style="text-anchor: middle; visibility: inherit; font-family: Roboto, sans-serif; font-size: 12px; font-weight: 200;" fill="rgb(255, 255, 255)" stroke="none" stroke-width="1px">30</text><text x="186.66666666666666" y="0" dx="0em" dy="0.95em" style="text-anchor: middle; visibility: inherit; font-family: Roboto, sans-serif; font-size: 12px; font-weight: 200;" fill="rgb(255, 255, 255)" stroke="none" stroke-width="1px">35</text><text x="210" y="0" dx="0em" dy="0.95em" style="text-anchor: middle; visibility: inherit; font-family: Roboto, sans-serif; font-size: 12px; font-weight: 200;" fill="rgb(255, 255, 255)" stroke="none" stroke-width="1px">40</text><text x="233.33333333333334" y="0" dx="0em" dy="0.95em" style="text-anchor: middle; visibility: inherit; font-family: Roboto, sans-serif; font-size: 12px; font-weight: 200;" fill="rgb(255, 255, 255)" stroke="none" stroke-width="1px">45</text><text x="256.66666666666663" y="0" dx="0em" dy="0.95em" style="text-anchor: middle; visibility: inherit; font-family: Roboto, sans-serif; font-size: 12px; font-weight: 200;" fill="rgb(255, 255, 255)" stroke="none" stroke-width="1px">50</text><text x="280" y="0" dx="0em" dy="0.95em" style="text-anchor: middle; visibility: hidden; font-family: Roboto, sans-serif; font-size: 12px; font-weight: 200;" fill="rgb(255, 255, 255)" stroke="none" stroke-width="1px">55</text></g><line x1="0" y1="0" x2="280" y2="0" fill="rgb(0, 0, 0)" stroke="rgb(204, 204, 204)" stroke-width="1px"></line></g></g></g></g></svg>