<svg viewBox="0 0 1627.666748046875 400.0000305175781" xmlns="http://www.w3.org/2000/svg"><g><g><g><g><g><line x1="60" y1="377" x2="55" y2="377" style="visibility: inherit;" fill="rgb(0, 0, 0)" stroke="rgb(204, 204, 204)" stroke-width="1px"></line><line x1="60" y1="350.07142857142907" x2="55" y2="350.07142857142907" style="visibility: inherit;" fill="rgb(0, 0, 0)" stroke="rgb(204, 204, 204)" stroke-width="1px"></line><line x1="60" y1="323.14285714285757" x2="55" y2="323.14285714285757" style="visibility: inherit;" fill="rgb(0, 0, 0)" stroke="rgb(204, 204, 204)" stroke-width="1px"></line><line x1="60" y1="296.21428571428606" x2="55" y2="296.21428571428606" style="visibility: inherit;" fill="rgb(0, 0, 0)" stroke="rgb(204, 204, 204)" stroke-width="1px"></line><line x1="60" y1="269.28571428571456" x2="55" y2="269.28571428571456" style="visibility: inherit;" fill="rgb(0, 0, 0)" stroke="rgb(204, 204, 204)" stroke-width="1px"></line><line x1="60" y1="242.357142857143" x2="55" y2="242.357142857143" style="visibility: inherit;" fill="rgb(0, 0, 0)" stroke="rgb(204, 204, 204)" stroke-width="1px"></line><line x1="60" y1="215.4285714285715" x2="55" y2="215.4285714285715" style="visibility: inherit;" fill="rgb(0, 0, 0)" stroke="rgb(204, 204, 204)" stroke-width="1px"></line><line x1="60" y1="188.5" x2="55" y2="188.5" style="visibility: inherit;" fill="rgb(0, 0, 0)" stroke="rgb(204, 204, 204)" stroke-width="1px"></line><line x1="60" y1="161.5714285714285" x2="55" y2="161.5714285714285" style="visibility: inherit;" fill="rgb(0, 0, 0)" stroke="rgb(204, 204, 204)" stroke-width="1px"></line><line x1="60" y1="134.64285714285697" x2="55" y2="134.64285714285697" style="visibility: inherit;" fill="rgb(0, 0, 0)" stroke="rgb(204, 204, 204)" stroke-width="1px"></line><line x1="60" y1="107.71428571428545" x2="55" y2="107.71428571428545" style="visibility: inherit;" fill="rgb(0, 0, 0)" stroke="rgb(204, 204, 204)" stroke-width="1px"></line><line x1="60" y1="80.78571428571395" x2="55" y2="80.78571428571395" style="visibility: inherit;" fill="rgb(0, 0, 0)" stroke="rgb(204, 204, 204)" stroke-width="1px"></line><line x1="60" y1="53.857142857142414" x2="55" y2="53.857142857142414" style="visibility: inherit;" fill="rgb(0, 0, 0)" stroke="rgb(204, 204, 204)" stroke-width="1px"></line><line x1="60" y1="26.928571428570915" x2="55" y2="26.928571428570915" style="visibility: inherit;" fill="rgb(0, 0, 0)" stroke="rgb(204, 204, 204)" stroke-width="1px"></line></g><g transform="translate(50, 0)"><text x="0" y="377" dx="0em" dy="0.3em" style="text-anchor: end; visibility: hidden; font-family: Roboto, sans-serif; font-size: 12px; font-weight: 200;" fill="rgb(255, 255, 255)" stroke="none" stroke-width="1px">0.935</text><text x="0" y="350.07142857142907" dx="0em" dy="0.3em" style="text-anchor: end; visibility: inherit; font-family: Roboto, sans-serif; font-size: 12px; font-weight: 200;" fill="rgb(255, 255, 255)" stroke="none" stroke-width="1px">0.94</text><text x="0" y="323.14285714285757" dx="0em" dy="0.3em" style="text-anchor: end; visibility: inherit; font-family: Roboto, sans-serif; font-size: 12px; font-weight: 200;" fill="rgb(255, 255, 255)" stroke="none" stroke-width="1px">0.945</text><text x="0" y="296.21428571428606" dx="0em" dy="0.3em" style="text-anchor: end; visibility: inherit; font-family: Roboto, sans-serif; font-size: 12px; font-weight: 200;" fill="rgb(255, 255, 255)" stroke="none" stroke-width="1px">0.95</text><text x="0" y="269.28571428571456" dx="0em" dy="0.3em" style="text-anchor: end; visibility: inherit; font-family: Roboto, sans-serif; font-size: 12px; font-weight: 200;" fill="rgb(255, 255, 255)" stroke="none" stroke-width="1px">0.955</text><text x="0" y="242.357142857143" dx="0em" dy="0.3em" style="text-anchor: end; visibility: inherit; font-family: Roboto, sans-serif; font-size: 12px; font-weight: 200;" fill="rgb(255, 255, 255)" stroke="none" stroke-width="1px">0.96</text><text x="0" y="215.4285714285715" dx="0em" dy="0.3em" style="text-anchor: end; visibility: inherit; font-family: Roboto, sans-serif; font-size: 12px; font-weight: 200;" fill="rgb(255, 255, 255)" stroke="none" stroke-width="1px">0.965</text><text x="0" y="188.5" dx="0em" dy="0.3em" style="text-anchor: end; visibility: inherit; font-family: Roboto, sans-serif; font-size: 12px; font-weight: 200;" fill="rgb(255, 255, 255)" stroke="none" stroke-width="1px">0.97</text><text x="0" y="161.5714285714285" dx="0em" dy="0.3em" style="text-anchor: end; visibility: inherit; font-family: Roboto, sans-serif; font-size: 12px; font-weight: 200;" fill="rgb(255, 255, 255)" stroke="none" stroke-width="1px">0.975</text><text x="0" y="134.64285714285697" dx="0em" dy="0.3em" style="text-anchor: end; visibility: inherit; font-family: Roboto, sans-serif; font-size: 12px; font-weight: 200;" fill="rgb(255, 255, 255)" stroke="none" stroke-width="1px">0.98</text><text x="0" y="107.71428571428545" dx="0em" dy="0.3em" style="text-anchor: end; visibility: inherit; font-family: Roboto, sans-serif; font-size: 12px; font-weight: 200;" fill="rgb(255, 255, 255)" stroke="none" stroke-width="1px">0.985</text><text x="0" y="80.78571428571395" dx="0em" dy="0.3em" style="text-anchor: end; visibility: inherit; font-family: Roboto, sans-serif; font-size: 12px; font-weight: 200;" fill="rgb(255, 255, 255)" stroke="none" stroke-width="1px">0.99</text><text x="0" y="53.857142857142414" dx="0em" dy="0.3em" style="text-anchor: end; visibility: inherit; font-family: Roboto, sans-serif; font-size: 12px; font-weight: 200;" fill="rgb(255, 255, 255)" stroke="none" stroke-width="1px">0.995</text><text x="0" y="26.928571428570915" dx="0em" dy="0.3em" style="text-anchor: end; visibility: inherit; font-family: Roboto, sans-serif; font-size: 12px; font-weight: 200;" fill="rgb(255, 255, 255)" stroke="none" stroke-width="1px">1</text></g><line x1="60" y1="0" x2="60" y2="377" fill="rgb(0, 0, 0)" stroke="rgb(204, 204, 204)" stroke-width="1px"></line></g></g><g transform="translate(60, 0)" clip-path="url(#clip_0)"><clipPath id="clip_0"><rect width="1567" height="377"></rect></clipPath><g><g><g><line x1="0" y1="0" x2="0" y2="377" fill="rgb(0, 0, 0)" stroke="rgb(189, 189, 189)" stroke-width="1px" opacity="0.25"></line><line x1="130.63916666666665" y1="0" x2="130.63916666666665" y2="377" fill="rgb(0, 0, 0)" stroke="rgb(189, 189, 189)" stroke-width="1px" opacity="0.25"></line><line x1="261.2783333333333" y1="0" x2="261.2783333333333" y2="377" fill="rgb(0, 0, 0)" stroke="rgb(189, 189, 189)" stroke-width="1px" opacity="0.25"></line><line x1="391.9175" y1="0" x2="391.9175" y2="377" fill="rgb(0, 0, 0)" stroke="rgb(189, 189, 189)" stroke-width="1px" opacity="0.25"></line><line x1="522.5566666666666" y1="0" x2="522.5566666666666" y2="377" fill="rgb(0, 0, 0)" stroke="rgb(189, 189, 189)" stroke-width="1px" opacity="0.25"></line><line x1="653.1958333333334" y1="0" x2="653.1958333333334" y2="377" fill="rgb(0, 0, 0)" stroke="rgb(189, 189, 189)" stroke-width="1px" opacity="0.25"></line><line x1="783.835" y1="0" x2="783.835" y2="377" fill="rgb(0, 0, 0)" stroke="rgb(189, 189, 189)" stroke-width="1px" opacity="0.25"></line><line x1="914.4741666666667" y1="0" x2="914.4741666666667" y2="377" fill="rgb(0, 0, 0)" stroke="rgb(189, 189, 189)" stroke-width="1px" opacity="0.25"></line><line x1="1045.1133333333332" y1="0" x2="1045.1133333333332" y2="377" fill="rgb(0, 0, 0)" stroke="rgb(189, 189, 189)" stroke-width="1px" opacity="0.25"></line><line x1="1175.7525" y1="0" x2="1175.7525" y2="377" fill="rgb(0, 0, 0)" stroke="rgb(189, 189, 189)" stroke-width="1px" opacity="0.25"></line><line x1="1306.3916666666669" y1="0" x2="1306.3916666666669" y2="377" fill="rgb(0, 0, 0)" stroke="rgb(189, 189, 189)" stroke-width="1px" opacity="0.25"></line><line x1="1437.0308333333332" y1="0" x2="1437.0308333333332" y2="377" fill="rgb(0, 0, 0)" stroke="rgb(189, 189, 189)" stroke-width="1px" opacity="0.25"></line><line x1="1567.67" y1="0" x2="1567.67" y2="377" fill="rgb(0, 0, 0)" stroke="rgb(189, 189, 189)" stroke-width="1px" opacity="0.25"></line></g><g><line x1="0" y1="377" x2="1567.67" y2="377" fill="rgb(0, 0, 0)" stroke="rgb(189, 189, 189)" stroke-width="1px" opacity="0.25"></line><line x1="0" y1="350.07142857142907" x2="1567.67" y2="350.07142857142907" fill="rgb(0, 0, 0)" stroke="rgb(189, 189, 189)" stroke-width="1px" opacity="0.25"></line><line x1="0" y1="323.14285714285757" x2="1567.67" y2="323.14285714285757" fill="rgb(0, 0, 0)" stroke="rgb(189, 189, 189)" stroke-width="1px" opacity="0.25"></line><line x1="0" y1="296.21428571428606" x2="1567.67" y2="296.21428571428606" fill="rgb(0, 0, 0)" stroke="rgb(189, 189, 189)" stroke-width="1px" opacity="0.25"></line><line x1="0" y1="269.28571428571456" x2="1567.67" y2="269.28571428571456" fill="rgb(0, 0, 0)" stroke="rgb(189, 189, 189)" stroke-width="1px" opacity="0.25"></line><line x1="0" y1="242.357142857143" x2="1567.67" y2="242.357142857143" fill="rgb(0, 0, 0)" stroke="rgb(189, 189, 189)" stroke-width="1px" opacity="0.25"></line><line x1="0" y1="215.4285714285715" x2="1567.67" y2="215.4285714285715" fill="rgb(0, 0, 0)" stroke="rgb(189, 189, 189)" stroke-width="1px" opacity="0.25"></line><line x1="0" y1="188.5" x2="1567.67" y2="188.5" fill="rgb(0, 0, 0)" stroke="rgb(189, 189, 189)" stroke-width="1px" opacity="0.25"></line><line x1="0" y1="161.5714285714285" x2="1567.67" y2="161.5714285714285" fill="rgb(0, 0, 0)" stroke="rgb(189, 189, 189)" stroke-width="1px" opacity="0.25"></line><line x1="0" y1="134.64285714285697" x2="1567.67" y2="134.64285714285697" fill="rgb(0, 0, 0)" stroke="rgb(189, 189, 189)" stroke-width="1px" opacity="0.25"></line><line x1="0" y1="107.71428571428545" x2="1567.67" y2="107.71428571428545" fill="rgb(0, 0, 0)" stroke="rgb(189, 189, 189)" stroke-width="1px" opacity="0.25"></line><line x1="0" y1="80.78571428571395" x2="1567.67" y2="80.78571428571395" fill="rgb(0, 0, 0)" stroke="rgb(189, 189, 189)" stroke-width="1px" opacity="0.25"></line><line x1="0" y1="53.857142857142414" x2="1567.67" y2="53.857142857142414" fill="rgb(0, 0, 0)" stroke="rgb(189, 189, 189)" stroke-width="1px" opacity="0.25"></line><line x1="0" y1="26.928571428570915" x2="1567.67" y2="26.928571428570915" fill="rgb(0, 0, 0)" stroke="rgb(189, 189, 189)" stroke-width="1px" opacity="0.25"></line></g></g></g><g><g><line x1="0" y1="5412.642857142869" x2="1567.67" y2="5412.642857142869" fill="rgb(0, 0, 0)" stroke="rgb(153, 153, 153)" stroke-width="1.5px"></line></g></g><g><g><line x1="130.63916666666665" y1="0" x2="130.63916666666665" y2="377" fill="rgb(0, 0, 0)" stroke="rgb(153, 153, 153)" stroke-width="1.5px"></line></g></g><g><g><g><g><g><path stroke="rgb(0, 153, 136)" stroke-width="2px" d="M130.63916666666665,377.89754114832226L156.76700000000002,334.6997459317953L182.89483333333334,281.6325763370135L209.02266666666668,249.5579436938553L235.1505,223.65950260108514L261.2783333333333,204.76458425375156L287.40616666666665,191.97646178982004L313.53400000000005,179.60663149142474L339.66183333333333,173.4072163319708L365.7896666666667,166.65728845192274L391.9175,159.93095263626606L418.04533333333336,155.7309006985457L444.1731666666667,150.1607968195294L470.301,147.7216520077826L496.42883333333333,145.72060327979364L522.5566666666666,145.4185120771163L548.6845,145.23731190762334L574.8123333333333,142.79447720095646L600.9401666666668,140.7903699555968L627.0680000000001,139.76750113067612L653.1958333333334,139.15380377078037L679.3236666666667,139.5037750203998L705.4515,139.7137548220644L731.5793333333334,138.22400840040925L757.7071666666667,137.15065375705132L783.835,137.76322065195453L809.9628333333335,136.15601091806573L836.0906666666667,135.55070794653037L862.2185000000001,135.72618739873204L888.3463333333334,136.01098586613068L914.4741666666667,134.027606641813L940.602,133.19660089971669L966.7298333333334,132.6979974967855L992.8576666666667,134.37358270778276L1018.9855000000001,134.48125139392377L1045.1133333333332,133.46878780667703L1071.2411666666667,132.68179886212795L1097.369,133.4661810875928L1123.4968333333334,133.03925643014307L1149.6246666666666,132.60359083826793L1175.7525,132.16268068560012L1201.8803333333335,131.0004521994926L1228.0081666666667,131.5598190983952L1254.1360000000002,130.45922444976486L1280.2638333333334,131.41459324627016L1306.3916666666669,132.34683611967813L1332.5195,130.39290226933306L1358.6473333333333,129.75907435250423L1384.7751666666668,129.19926680464096L1410.903,129.76093626479974" style="fill: none;" fill="none"></path></g><g><path stroke="rgb(204, 51, 17)" stroke-width="2px" d="M130.63916666666665,350.9689954008371L156.76700000000002,334.98011117322125L182.89483333333334,289.55529648152475L209.02266666666668,254.0459473171916L235.1505,229.12077665586597L261.2783333333333,225.8239007998872L287.40616666666665,209.171543841152L313.53400000000005,194.18843198999713L339.66183333333333,181.19022650013093L365.7896666666667,176.00421692718444L391.9175,173.27308211904125L418.04533333333336,167.32284137446186L444.1731666666667,164.65972508082473L470.301,159.2911429107003L496.42883333333333,158.0483634978866L522.5566666666666,152.8137766967525L548.6845,150.39213463852826L574.8123333333333,147.8621091653474L600.9401666666668,145.44664965347255L627.0680000000001,142.3816834893147L653.1958333333334,142.51756601262608L679.3236666666667,142.9581199399559L705.4515,141.24768580895517L731.5793333333334,139.14436408519032L757.7071666666667,140.39566414901157L783.835,138.8126691530384L809.9628333333335,138.22189584664864L836.0906666666667,136.61072748821024L862.2185000000001,134.92598365070987L888.3463333333334,134.6331810953255L914.4741666666667,135.17567129531088L940.602,135.50116536924924L966.7298333333334,134.79877935986647L992.8576666666667,134.73636938153592L1018.9855000000001,133.98088019224545L1045.1133333333332,134.96380148941682L1071.2411666666667,135.19453266346238L1097.369,133.71724577558376L1123.4968333333334,131.93319125006775L1149.6246666666666,132.1194625288273L1175.7525,132.41073609384077L1201.8803333333335,131.6878178379673L1228.0081666666667,131.61321688575111L1254.1360000000002,132.10698870784722L1280.2638333333334,131.3260586088657L1306.3916666666669,131.93469374166924L1332.5195,131.40219242699277L1358.6473333333333,130.36464844709104L1384.7751666666668,131.35784764457918L1410.903,130.87657397098155" style="fill: none;" fill="none"></path></g><g><path stroke="rgb(187, 187, 187)" stroke-width="2px" d="M130.63916666666665,394.5035739966804L156.76700000000002,321.5720959305765L182.89483333333334,286.42295072169054L209.02266666666668,254.00316163496797L235.1505,231.62723136097165L261.2783333333333,222.19431370033436L287.40616666666665,215.16208225062496L313.53400000000005,196.28107049764634L339.66183333333333,182.98130294726946L365.7896666666667,179.24186765568848L391.9175,173.5893482735217L418.04533333333336,169.49138024261424L444.1731666666667,165.95971401522303L470.301,161.6877211898052L496.42883333333333,158.04896912736672L522.5566666666666,156.22606451604096L548.6845,152.2597350683542L574.8123333333333,151.6757858441289L600.9401666666668,150.60736731923487L627.0680000000001,155.53178130106994L653.1958333333334,150.94605351526644L679.3236666666667,148.37432279431692L705.4515,146.4721531883169L731.5793333333334,142.45854625892053L757.7071666666667,141.6661244517969L783.835,140.113477779797L809.9628333333335,139.1818914716584L836.0906666666667,138.4434293889863L862.2185000000001,138.8979067491896L888.3463333333334,137.73450635847377L914.4741666666667,137.75450957498822L940.602,136.68931822539452L966.7298333333334,136.05020346989318L992.8576666666667,136.92343866197848L1018.9855000000001,137.44737976121723L1045.1133333333332,136.50504041218682L1071.2411666666667,136.1192760133093L1097.369,136.42634977082957L1123.4968333333334,136.25157242826637L1149.6246666666666,136.14670602297633L1175.7525,134.4680605932052L1201.8803333333335,134.71744892121916L1228.0081666666667,134.32854952447644L1254.1360000000002,134.45423148211077L1280.2638333333334,134.1706190610951L1306.3916666666669,134.71862320507603L1332.5195,135.94497968034213L1358.6473333333333,135.24457877782004L1384.7751666666668,134.46531664076647L1410.903,133.45922696521623" style="fill: none;" fill="none"></path></g><g><path stroke="rgb(51, 187, 238)" stroke-width="2px" d="M130.63916666666665,380.5905241285049L156.76700000000002,350.5763556574074L182.89483333333334,300.62911875115867L209.02266666666668,269.93092700000096L235.1505,243.56653843533957L261.2783333333333,221.21520941641458L287.40616666666665,210.15329848737602L313.53400000000005,204.4480312494579L339.66183333333333,190.3870880760834L365.7896666666667,182.04176309391755L391.9175,173.2832699742414L418.04533333333336,169.12809794461825L444.1731666666667,175.44896624265274L470.301,168.99528845247016L496.42883333333333,169.07767224651477L522.5566666666666,160.32792426919258L548.6845,155.79794870586042L574.8123333333333,152.90079670355854L600.9401666666668,151.1626938238164L627.0680000000001,148.32459786051214L653.1958333333334,151.4690897845569L679.3236666666667,149.5857076049182L705.4515,146.12190695536657L731.5793333333334,142.9664457764646L757.7071666666667,140.89366733015927L783.835,140.3680484498281L809.9628333333335,139.69365573245813L836.0906666666667,141.26376893740712L862.2185000000001,141.12877105980087L888.3463333333334,139.79106809739946L914.4741666666667,140.42466148735178L940.602,140.26628503135683L966.7298333333334,139.09406592231488L992.8576666666667,139.10877770437986L1018.9855000000001,137.8610291673362L1045.1133333333332,138.18944485658523L1071.2411666666667,137.66845107243017L1097.369,138.61255879851316L1123.4968333333334,137.2041478411469L1149.6246666666666,135.28203648065616L1175.7525,136.1035168485306L1201.8803333333335,136.7759158666915L1228.0081666666667,136.82033368173174L1254.1360000000002,136.48796277513858L1280.2638333333334,136.10902943342847L1306.3916666666669,135.70203022520903L1332.5195,136.17600229684658L1358.6473333333333,136.2808747420406L1384.7751666666668,136.16428741138046L1410.903,135.1966526186775" style="fill: none;" fill="none"></path></g><g><path stroke="rgb(255, 112, 67)" stroke-width="2px" d="M130.63916666666665,475.7379882335668L156.76700000000002,371.1094279672421L182.89483333333334,320.532406624831L209.02266666666668,282.13115930720124L235.1505,259.4296413639139L261.2783333333333,251.51316549237197L287.40616666666665,234.4472619023589L313.53400000000005,221.96247985601497L339.66183333333333,208.0784860142512L365.7896666666667,202.90868896558496L391.9175,192.07930390604764L418.04533333333336,183.2678838350178L444.1731666666667,179.2516708729528L470.301,176.30634807766594L496.42883333333333,174.54063226502106L522.5566666666666,167.73525396800315L548.6845,164.1920079073665L574.8123333333333,165.11869451144227L600.9401666666668,162.0838262552174L627.0680000000001,162.59700617872537L653.1958333333334,160.2119242712701L679.3236666666667,159.85811598340862L705.4515,160.00485842199342L731.5793333333334,156.86143666075762L757.7071666666667,155.33441575292943L783.835,159.98356383289877L809.9628333333335,156.4896496304982L836.0906666666667,153.49574885764332L862.2185000000001,156.72597057118L888.3463333333334,155.97131187023882L914.4741666666667,153.5437693135713L940.602,152.80528723388966L966.7298333333334,152.54170883004002L992.8576666666667,151.1269861753723L1018.9855000000001,161.2290818935343L1045.1133333333332,162.62267320673874L1071.2411666666667,157.53458640598245L1097.369,155.558799136319L1123.4968333333334,154.3733267792171L1149.6246666666666,152.40546778055463L1175.7525,151.2247523830403L1201.8803333333335,151.2343663365755L1228.0081666666667,150.7016023152192L1254.1360000000002,149.30475071024443L1280.2638333333334,148.82566134299768L1306.3916666666669,150.1539333081749L1332.5195,148.61712771065564L1358.6473333333333,149.49028073538668L1384.7751666666668,148.57795776257456L1410.903,149.466778766525" style="fill: none;" fill="none"></path></g><g><path stroke="rgb(238, 51, 119)" stroke-width="2px" d="M156.76700000000002,381.15153549824413L182.89483333333334,334.1524234985823L209.02266666666668,294.64840551359384L235.1505,286.1785150716861L261.2783333333333,257.0585032338438L287.40616666666665,257.4728680092588L313.53400000000005,239.08973585659174L339.66183333333333,220.4612843916977L365.7896666666667,208.3214758167468L391.9175,201.0847407903402L418.04533333333336,197.4791490387792L444.1731666666667,196.21968001662577L470.301,190.97337717528742L496.42883333333333,186.39133749797747L522.5566666666666,180.05200693668974L548.6845,181.27709191465533L574.8123333333333,176.80528302703226L600.9401666666668,170.53179680385014L627.0680000000001,168.74276912218588L653.1958333333334,169.6443132863785L679.3236666666667,165.3379865709799L705.4515,167.42180123183044L731.5793333333334,168.31305619938672L757.7071666666667,167.4115876062939L783.835,166.51168588272583L809.9628333333335,165.07419092352427L836.0906666666667,164.21169488961252L862.2185000000001,171.23416751460354L888.3463333333334,169.70291741855985L914.4741666666667,165.73222679975075L940.602,163.17030195348815L966.7298333333334,161.4536363698768L992.8576666666667,162.75740591552488L1018.9855000000001,162.6421136147113L1045.1133333333332,163.6500030332396L1071.2411666666667,164.0752258788185L1097.369,163.6123163907235L1123.4968333333334,163.69359229531267L1149.6246666666666,162.84467544245018L1175.7525,163.23300772647937L1201.8803333333335,163.6455178945569L1228.0081666666667,162.81583080289178L1254.1360000000002,165.0109373259784L1280.2638333333334,162.01935687628054L1306.3916666666669,162.73781658651163L1332.5195,164.78461799807334L1358.6473333333333,162.9607584718814L1384.7751666666668,164.55936153369424L1410.903,164.80035177423514" style="fill: none;" fill="none"></path></g><g><path stroke="rgb(0, 119, 187)" stroke-width="2px" d="M182.89483333333334,384.6023881546617L209.02266666666668,341.095238252598L235.1505,310.9228106368297L261.2783333333333,288.74513107147243L287.40616666666665,289.4177504660496L313.53400000000005,263.8812469049944L339.66183333333333,258.8110281549252L365.7896666666667,247.31281822707277L391.9175,243.34143907748097L418.04533333333336,247.08492071966648L444.1731666666667,252.20197376190734L470.301,247.0033097465114L496.42883333333333,233.28982985332166L522.5566666666666,230.991783028289L548.6845,220.45612718935047L574.8123333333333,220.41990488563314L600.9401666666668,215.19165824211285L627.0680000000001,207.38707753806108L653.1958333333334,226.5817693163805L679.3236666666667,219.42753371691387L705.4515,215.67358926978812L731.5793333333334,214.67795151968156L757.7071666666667,216.05532468417832L783.835,208.6237216707076L809.9628333333335,207.39609404846655L836.0906666666667,207.9162230408427L862.2185000000001,210.74158073213889L888.3463333333334,207.23072358344697L914.4741666666667,205.3037206125586L940.602,206.30177714377476L966.7298333333334,204.56684212374108L992.8576666666667,201.19198391595395L1018.9855000000001,198.09000424801198L1045.1133333333332,198.38307448230677L1071.2411666666667,196.76368022667262L1097.369,199.2030056609303L1123.4968333333334,200.84611171386103L1149.6246666666666,202.01148614128962L1175.7525,205.22399037302367L1201.8803333333335,206.6129605168367L1228.0081666666667,204.75355222988762L1254.1360000000002,201.48352087354314L1280.2638333333334,207.95915158348456L1306.3916666666669,202.15030490149337L1332.5195,204.58923843556772L1358.6473333333333,202.28261499176563L1384.7751666666668,200.36010853219094L1410.903,205.31035699710083" style="fill: none;" fill="none"></path></g></g></g></g><g opacity="0.2"><g><g><g><path stroke="rgb(0, 153, 136)" stroke-width="2px" d="M130.63916666666665,377.89754114832226L156.76700000000002,308.78106880188L182.89483333333334,230.68809352602273L209.02266666666668,211.8381757055009L235.1505,189.8464979103632L261.2783333333333,178.62611000878456L287.40616666666665,173.6892420564377L313.53400000000005,161.57130016599362L339.66183333333333,164.26428314617684L365.7896666666667,156.63443221364682L391.9175,149.90245628356908L418.04533333333336,149.4536792891364L444.1731666666667,141.82382835660638L470.301,144.06771332877L496.42883333333333,142.7213823454718L522.5566666666666,144.96558833122228L548.6845,144.96558833122228L574.8123333333333,139.13084537642317L600.9401666666668,137.784514393125L627.0680000000001,138.23329138755773L653.1958333333334,138.23329138755773L679.3236666666667,140.02872037887548L705.4515,140.02872037887548L731.5793333333334,135.98940641539411L757.7071666666667,135.54062942096138L783.835,138.68206838199046L809.9628333333335,133.74520042964363L836.0906666666667,134.6427544185091L862.2185000000001,135.98940641539411L888.3463333333334,136.43818340982685L914.4741666666667,131.0525384630473L940.602,131.95009245191272L966.7298333333334,131.95009245191272L992.8576666666667,136.88696040425958L1018.9855000000001,134.6427544185091L1045.1133333333332,131.95009245191272L1071.2411666666667,131.50131545748005L1097.369,134.6427544185091L1123.4968333333334,132.39886944634546L1149.6246666666666,131.95009245191272L1175.7525,131.50131545748005L1201.8803333333335,129.25710947172956L1228.0081666666667,132.39886944634546L1254.1360000000002,128.80833247729683L1280.2638333333334,132.8476464407782L1306.3916666666669,133.74520042964363L1332.5195,127.46200149399866L1358.6473333333333,128.80833247729683L1384.7751666666668,128.3595554828641L1410.903,130.6034404550277" style="fill: none;" fill="none"></path></g><g><path stroke="rgb(204, 51, 17)" stroke-width="2px" d="M130.63916666666665,350.96899540083774L156.76700000000002,325.38678063665134L182.89483333333334,245.94747437749587L209.02266666666668,212.28695269993364L235.1505,196.57847384044086L261.2783333333333,221.26313461576183L287.40616666666665,185.35840695244912L313.53400000000005,172.34291107313956L339.66183333333333,162.02039817401322L365.7896666666667,168.30359710965817L391.9175,169.20115109852364L418.04533333333336,158.42986120496457L444.1731666666667,160.67374617712815L470.301,151.24878726686728L496.42883333333333,156.18565521921408L522.5566666666666,144.96558833122228L548.6845,146.7606963089532L574.8123333333333,144.06771332877L600.9401666666668,141.82382835660638L627.0680000000001,137.784514393125L653.1958333333334,142.7213823454718L679.3236666666667,143.61893633433726L705.4515,138.68206838199046L731.5793333333334,135.98940641539411L757.7071666666667,142.27260535103912L783.835,136.43818340982685L809.9628333333335,137.33573739869226L836.0906666666667,134.19397742407637L862.2185000000001,132.39886944634546L888.3463333333334,134.19397742407637L914.4741666666667,135.98940641539411L940.602,135.98940641539411L966.7298333333334,133.74520042964363L992.8576666666667,134.6427544185091L1018.9855000000001,132.8476464407782L1045.1133333333332,136.43818340982685L1071.2411666666667,135.54062942096138L1097.369,131.50131545748005L1123.4968333333334,129.25710947172956L1149.6246666666666,132.39886944634546L1175.7525,132.8476464407782L1201.8803333333335,130.6034404550277L1228.0081666666667,131.50131545748005L1254.1360000000002,132.8476464407782L1280.2638333333334,130.15466346059497L1306.3916666666669,132.8476464407782L1332.5195,130.6034404550277L1358.6473333333333,128.80833247729683L1384.7751666666668,132.8476464407782L1410.903,130.15466346059497" style="fill: none;" fill="none"></path></g><g><path stroke="rgb(187, 187, 187)" stroke-width="2px" d="M130.63916666666665,394.5035739966804L156.76700000000002,277.8132090909141L182.89483333333334,252.67977132116044L209.02266666666668,215.8774896689823L235.1505,202.41321679524003L261.2783333333333,209.14519272531774L287.40616666666665,205.10587876183635L313.53400000000005,168.7523741040909L339.66183333333333,163.36672915731137L365.7896666666667,173.6892420564377L391.9175,165.16183713504228L418.04533333333336,163.36672915731137L444.1731666666667,160.67374617712815L470.301,155.28810123034862L496.42883333333333,152.59511825016546L522.5566666666666,153.49299325261777L548.6845,146.31191931452045L574.8123333333333,150.80001027243455L600.9401666666668,149.00490229470367L627.0680000000001,162.91795216287863L653.1958333333334,144.06771332877L679.3236666666667,144.51681133678954L705.4515,143.61893633433726L731.5793333333334,136.43818340982685L757.7071666666667,140.4774973733082L783.835,137.784514393125L809.9628333333335,137.784514393125L836.0906666666667,137.33573739869226L862.2185000000001,139.5796223708559L888.3463333333334,135.98940641539411L914.4741666666667,137.784514393125L940.602,135.09153141294183L966.7298333333334,135.09153141294183L992.8576666666667,138.23329138755773L1018.9855000000001,138.23329138755773L1045.1133333333332,135.09153141294183L1071.2411666666667,135.54062942096138L1097.369,136.88696040425958L1123.4968333333334,135.98940641539411L1149.6246666666666,135.98940641539411L1175.7525,131.95009245191272L1201.8803333333335,135.09153141294183L1228.0081666666667,133.74520042964363L1254.1360000000002,134.6427544185091L1280.2638333333334,133.74520042964363L1306.3916666666669,135.54062942096138L1332.5195,137.784514393125L1358.6473333333333,134.19397742407637L1384.7751666666668,133.29642343521093L1410.903,131.95009245191272" style="fill: none;" fill="none"></path></g><g><path stroke="rgb(51, 187, 238)" stroke-width="2px" d="M130.63916666666665,380.5905241285055L156.76700000000002,332.56785457474865L182.89483333333334,252.67977132116044L209.02266666666668,233.82985350063868L235.1505,209.14519272531774L261.2783333333333,190.29527490479592L287.40616666666665,194.33458886827728L313.53400000000005,196.1296968460082L339.66183333333333,169.64992809295637L365.7896666666667,169.64992809295637L391.9175,160.22496918269547L418.04533333333336,162.91795216287863L444.1731666666667,184.90962995801638L470.301,159.32741519383L496.42883333333333,169.20115109852364L522.5566666666666,147.20947330338592L548.6845,149.00490229470367L574.8123333333333,148.55580428668407L600.9401666666668,148.55580428668407L627.0680000000001,144.06771332877L653.1958333333334,156.18565521921408L679.3236666666667,146.7606963089532L705.4515,140.92627436774092L731.5793333333334,138.23329138755773L757.7071666666667,137.784514393125L783.835,139.5796223708559L809.9628333333335,138.68206838199046L836.0906666666667,143.61893633433726L862.2185000000001,140.92627436774092L888.3463333333334,137.784514393125L914.4741666666667,141.37505136217365L940.602,140.02872037887548L966.7298333333334,137.33573739869226L992.8576666666667,139.13084537642317L1018.9855000000001,135.98940641539411L1045.1133333333332,138.68206838199046L1071.2411666666667,136.88696040425958L1097.369,140.02872037887548L1123.4968333333334,135.09153141294183L1149.6246666666666,132.39886944634546L1175.7525,137.33573739869226L1201.8803333333335,137.784514393125L1228.0081666666667,136.88696040425958L1254.1360000000002,135.98940641539411L1280.2638333333334,135.54062942096138L1306.3916666666669,135.09153141294183L1332.5195,136.88696040425958L1358.6473333333333,136.43818340982685L1384.7751666666668,135.98940641539411L1410.903,133.74520042964363" style="fill: none;" fill="none"></path></g><g><path stroke="rgb(255, 112, 67)" stroke-width="2px" d="M130.63916666666665,475.7379882335668L156.76700000000002,308.3322918074473L182.89483333333334,271.97846613611495L209.02266666666668,236.97129246166773L235.1505,229.79053953715726L261.2783333333333,240.56182943071633L287.40616666666665,210.04274671418315L313.53400000000005,203.7595477785382L339.66183333333333,187.60229192461273L365.7896666666667,195.23214285714275L391.9175,175.9334480421882L418.04533333333336,170.09870508738908L444.1731666666667,173.24046506200503L470.301,171.89413407870683L496.42883333333333,171.89413407870683L522.5566666666666,157.53198620251226L548.6845,158.8786381993973L574.8123333333333,166.5084891319273L600.9401666666668,157.53198620251226L627.0680000000001,163.36672915731137L653.1958333333334,156.63443221364682L679.3236666666667,159.32741519383L705.4515,160.22496918269547L731.5793333333334,152.14634125573272L757.7071666666667,153.0438952445982L783.835,166.95726612636003L809.9628333333335,151.24878726686728L836.0906666666667,149.00490229470367L862.2185000000001,161.57130016599362L888.3463333333334,154.83932423591594L914.4741666666667,149.90245628356908L940.602,151.6975642613L966.7298333333334,152.14634125573272L992.8576666666667,149.00490229470367L1018.9855000000001,176.38222503662092L1045.1133333333332,164.71306014060954L1071.2411666666667,149.90245628356908L1097.369,152.59511825016546L1123.4968333333334,152.59511825016546L1149.6246666666666,149.4536792891364L1175.7525,149.4536792891364L1201.8803333333335,151.24878726686728L1228.0081666666667,149.90245628356908L1254.1360000000002,147.20947330338592L1280.2638333333334,148.10702729225133L1306.3916666666669,152.14634125573272L1332.5195,146.31191931452045L1358.6473333333333,150.80001027243455L1384.7751666666668,147.20947330338592L1410.903,150.80001027243455" style="fill: none;" fill="none"></path></g><g><path stroke="rgb(238, 51, 119)" stroke-width="2px" d="M130.63916666666665,456.88807041304494L156.76700000000002,335.7096145493645L182.89483333333334,289.0332759789059L209.02266666666668,248.19168036324635L235.1505,275.1202261107309L261.2783333333333,216.7750436578477L287.40616666666665,258.06541626794L313.53400000000005,212.28695269993364L339.66183333333333,192.98793687139226L365.7896666666667,190.29527490479592L391.9175,190.29527490479592L418.04533333333336,192.0903828825268L444.1731666666667,194.33458886827728L470.301,183.11420096669863L496.42883333333333,179.52366399764998L522.5566666666666,170.5474820818218L548.6845,183.11420096669863L574.8123333333333,170.09870508738908L600.9401666666668,161.12252317156089L627.0680000000001,166.0593911239077L653.1958333333334,170.9965800898414L679.3236666666667,158.8786381993973L705.4515,170.5474820818218L731.5793333333334,169.64992809295637L757.7071666666667,166.0593911239077L783.835,165.16183713504228L809.9628333333335,162.91795216287863L836.0906666666667,162.91795216287863L862.2185000000001,181.76786998340046L888.3463333333334,167.40604312079276L914.4741666666667,159.77619218826274L940.602,159.32741519383L966.7298333333334,158.8786381993973L992.8576666666667,164.71306014060954L1018.9855000000001,162.46917516844596L1045.1133333333332,165.16183713504228L1071.2411666666667,164.71306014060954L1097.369,162.91795216287863L1123.4968333333334,163.8155061517441L1149.6246666666666,161.57130016599362L1175.7525,163.8155061517441L1201.8803333333335,164.26428314617684L1228.0081666666667,161.57130016599362L1254.1360000000002,168.30359710965817L1280.2638333333334,157.53198620251226L1306.3916666666669,163.8155061517441L1332.5195,167.8548201152255L1358.6473333333333,160.22496918269547L1384.7751666666668,166.95726612636003L1410.903,165.16183713504228" style="fill: none;" fill="none"></path></g><g><path stroke="rgb(0, 119, 187)" stroke-width="2px" d="M156.76700000000002,398.0941109657291L182.89483333333334,334.8120605604991L209.02266666666668,289.93082996777133L235.1505,271.52968914168224L261.2783333333333,258.06541626794L287.40616666666665,290.37960696220404L313.53400000000005,226.64877956254136L339.66183333333333,251.3334403378623L365.7896666666667,230.23931653159L391.9175,237.42039046968728L418.04533333333336,252.67977132116044L444.1731666666667,259.86084525925776L470.301,239.2154984474182L496.42883333333333,212.73572969436637L522.5566666666666,227.54633355140678L548.6845,204.65710176740362L574.8123333333333,220.3655806268964L600.9401666666668,207.35008474758683L627.0680000000001,195.68091985157545L653.1958333333334,255.37275430134363L679.3236666666667,208.696415730885L705.4515,210.04274671418315L731.5793333333334,213.1845066887991L757.7071666666667,218.1213746411459L783.835,197.47634884289323L809.9628333333335,205.55465575626909L836.0906666666667,208.696415730885L862.2185000000001,214.97961466652995L888.3463333333334,201.9644398008073L914.4741666666667,202.41321679524003L940.602,207.79886174201957L966.7298333333334,201.9644398008073L992.8576666666667,196.1296968460082L1018.9855000000001,193.4370348794118L1045.1133333333332,198.82267982619135L1071.2411666666667,194.33458886827728L1097.369,202.86199378967277L1123.4968333333334,203.31077078410547L1149.6246666666666,203.7595477785382L1175.7525,210.04274671418315L1201.8803333333335,208.696415730885L1228.0081666666667,201.9644398008073L1254.1360000000002,196.57847384044086L1280.2638333333334,217.67259764671317L1306.3916666666669,193.4370348794118L1332.5195,208.2476387364523L1358.6473333333333,198.82267982619135L1384.7751666666668,197.47634884289323L1410.903,212.73572969436637" style="fill: none;" fill="none"></path></g></g></g></g></g></g><g transform="translate(60, 377)" clip-path="url(#clip_1)"><clipPath id="clip_1"><rect width="1567" height="23"></rect></clipPath><g><g><line x1="0" y1="0" x2="0" y2="5" style="visibility: inherit;" fill="rgb(0, 0, 0)" stroke="rgb(204, 204, 204)" stroke-width="1px"></line><line x1="130.63916666666665" y1="0" x2="130.63916666666665" y2="5" style="visibility: inherit;" fill="rgb(0, 0, 0)" stroke="rgb(204, 204, 204)" stroke-width="1px"></line><line x1="261.2783333333333" y1="0" x2="261.2783333333333" y2="5" style="visibility: inherit;" fill="rgb(0, 0, 0)" stroke="rgb(204, 204, 204)" stroke-width="1px"></line><line x1="391.9175" y1="0" x2="391.9175" y2="5" style="visibility: inherit;" fill="rgb(0, 0, 0)" stroke="rgb(204, 204, 204)" stroke-width="1px"></line><line x1="522.5566666666666" y1="0" x2="522.5566666666666" y2="5" style="visibility: inherit;" fill="rgb(0, 0, 0)" stroke="rgb(204, 204, 204)" stroke-width="1px"></line><line x1="653.1958333333334" y1="0" x2="653.1958333333334" y2="5" style="visibility: inherit;" fill="rgb(0, 0, 0)" stroke="rgb(204, 204, 204)" stroke-width="1px"></line><line x1="783.835" y1="0" x2="783.835" y2="5" style="visibility: inherit;" fill="rgb(0, 0, 0)" stroke="rgb(204, 204, 204)" stroke-width="1px"></line><line x1="914.4741666666667" y1="0" x2="914.4741666666667" y2="5" style="visibility: inherit;" fill="rgb(0, 0, 0)" stroke="rgb(204, 204, 204)" stroke-width="1px"></line><line x1="1045.1133333333332" y1="0" x2="1045.1133333333332" y2="5" style="visibility: inherit;" fill="rgb(0, 0, 0)" stroke="rgb(204, 204, 204)" stroke-width="1px"></line><line x1="1175.7525" y1="0" x2="1175.7525" y2="5" style="visibility: inherit;" fill="rgb(0, 0, 0)" stroke="rgb(204, 204, 204)" stroke-width="1px"></line><line x1="1306.3916666666669" y1="0" x2="1306.3916666666669" y2="5" style="visibility: inherit;" fill="rgb(0, 0, 0)" stroke="rgb(204, 204, 204)" stroke-width="1px"></line><line x1="1437.0308333333332" y1="0" x2="1437.0308333333332" y2="5" style="visibility: inherit;" fill="rgb(0, 0, 0)" stroke="rgb(204, 204, 204)" stroke-width="1px"></line><line x1="1567.67" y1="0" x2="1567.67" y2="5" style="visibility: inherit;" fill="rgb(0, 0, 0)" stroke="rgb(204, 204, 204)" stroke-width="1px"></line></g><g transform="translate(0, 8)"><text x="0" y="0" dx="0em" dy="0.95em" style="text-anchor: middle; visibility: hidden; font-family: Roboto, sans-serif; font-size: 12px; font-weight: 200;" fill="rgb(255, 255, 255)" stroke="none" stroke-width="1px">-5</text><text x="130.63916666666665" y="0" dx="0em" dy="0.95em" style="text-anchor: middle; visibility: inherit; font-family: Roboto, sans-serif; font-size: 12px; font-weight: 200;" fill="rgb(255, 255, 255)" stroke="none" stroke-width="1px">0</text><text x="261.2783333333333" y="0" dx="0em" dy="0.95em" style="text-anchor: middle; visibility: inherit; font-family: Roboto, sans-serif; font-size: 12px; font-weight: 200;" fill="rgb(255, 255, 255)" stroke="none" stroke-width="1px">5</text><text x="391.9175" y="0" dx="0em" dy="0.95em" style="text-anchor: middle; visibility: inherit; font-family: Roboto, sans-serif; font-size: 12px; font-weight: 200;" fill="rgb(255, 255, 255)" stroke="none" stroke-width="1px">10</text><text x="522.5566666666666" y="0" dx="0em" dy="0.95em" style="text-anchor: middle; visibility: inherit; font-family: Roboto, sans-serif; font-size: 12px; font-weight: 200;" fill="rgb(255, 255, 255)" stroke="none" stroke-width="1px">15</text><text x="653.1958333333334" y="0" dx="0em" dy="0.95em" style="text-anchor: middle; visibility: inherit; font-family: Roboto, sans-serif; font-size: 12px; font-weight: 200;" fill="rgb(255, 255, 255)" stroke="none" stroke-width="1px">20</text><text x="783.835" y="0" dx="0em" dy="0.95em" style="text-anchor: middle; visibility: inherit; font-family: Roboto, sans-serif; font-size: 12px; font-weight: 200;" fill="rgb(255, 255, 255)" stroke="none" stroke-width="1px">25</text><text x="914.4741666666667" y="0" dx="0em" dy="0.95em" style="text-anchor: middle; visibility: inherit; font-family: Roboto, sans-serif; font-size: 12px; font-weight: 200;" fill="rgb(255, 255, 255)" stroke="none" stroke-width="1px">30</text><text x="1045.1133333333332" y="0" dx="0em" dy="0.95em" style="text-anchor: middle; visibility: inherit; font-family: Roboto, sans-serif; font-size: 12px; font-weight: 200;" fill="rgb(255, 255, 255)" stroke="none" stroke-width="1px">35</text><text x="1175.7525" y="0" dx="0em" dy="0.95em" style="text-anchor: middle; visibility: inherit; font-family: Roboto, sans-serif; font-size: 12px; font-weight: 200;" fill="rgb(255, 255, 255)" stroke="none" stroke-width="1px">40</text><text x="1306.3916666666669" y="0" dx="0em" dy="0.95em" style="text-anchor: middle; visibility: inherit; font-family: Roboto, sans-serif; font-size: 12px; font-weight: 200;" fill="rgb(255, 255, 255)" stroke="none" stroke-width="1px">45</text><text x="1437.0308333333332" y="0" dx="0em" dy="0.95em" style="text-anchor: middle; visibility: inherit; font-family: Roboto, sans-serif; font-size: 12px; font-weight: 200;" fill="rgb(255, 255, 255)" stroke="none" stroke-width="1px">50</text><text x="1567.67" y="0" dx="0em" dy="0.95em" style="text-anchor: middle; visibility: hidden; font-family: Roboto, sans-serif; font-size: 12px; font-weight: 200;" fill="rgb(255, 255, 255)" stroke="none" stroke-width="1px">55</text></g><line x1="0" y1="0" x2="1567.67" y2="0" fill="rgb(0, 0, 0)" stroke="rgb(204, 204, 204)" stroke-width="1px"></line></g></g></g></g></svg>