<svg viewBox="0 0 330 200" xmlns="http://www.w3.org/2000/svg"><g><g><g><g><g><line x1="40" y1="177" x2="35" y2="177" style="visibility: inherit;" fill="rgb(0, 0, 0)" stroke="rgb(204, 204, 204)" stroke-width="1px"></line><line x1="40" y1="160.9090909090909" x2="35" y2="160.9090909090909" style="visibility: inherit;" fill="rgb(0, 0, 0)" stroke="rgb(204, 204, 204)" stroke-width="1px"></line><line x1="40" y1="144.8181818181818" x2="35" y2="144.8181818181818" style="visibility: inherit;" fill="rgb(0, 0, 0)" stroke="rgb(204, 204, 204)" stroke-width="1px"></line><line x1="40" y1="128.72727272727272" x2="35" y2="128.72727272727272" style="visibility: inherit;" fill="rgb(0, 0, 0)" stroke="rgb(204, 204, 204)" stroke-width="1px"></line><line x1="40" y1="112.63636363636364" x2="35" y2="112.63636363636364" style="visibility: inherit;" fill="rgb(0, 0, 0)" stroke="rgb(204, 204, 204)" stroke-width="1px"></line><line x1="40" y1="96.54545454545453" x2="35" y2="96.54545454545453" style="visibility: inherit;" fill="rgb(0, 0, 0)" stroke="rgb(204, 204, 204)" stroke-width="1px"></line><line x1="40" y1="80.45454545454547" x2="35" y2="80.45454545454547" style="visibility: inherit;" fill="rgb(0, 0, 0)" stroke="rgb(204, 204, 204)" stroke-width="1px"></line><line x1="40" y1="64.36363636363639" x2="35" y2="64.36363636363639" style="visibility: inherit;" fill="rgb(0, 0, 0)" stroke="rgb(204, 204, 204)" stroke-width="1px"></line><line x1="40" y1="48.272727272727266" x2="35" y2="48.272727272727266" style="visibility: inherit;" fill="rgb(0, 0, 0)" stroke="rgb(204, 204, 204)" stroke-width="1px"></line><line x1="40" y1="32.181818181818194" x2="35" y2="32.181818181818194" style="visibility: inherit;" fill="rgb(0, 0, 0)" stroke="rgb(204, 204, 204)" stroke-width="1px"></line><line x1="40" y1="16.090909090909097" x2="35" y2="16.090909090909097" style="visibility: inherit;" fill="rgb(0, 0, 0)" stroke="rgb(204, 204, 204)" stroke-width="1px"></line><line x1="40" y1="0" x2="35" y2="0" style="visibility: inherit;" fill="rgb(0, 0, 0)" stroke="rgb(204, 204, 204)" stroke-width="1px"></line></g><g transform="translate(30, 0)"><text x="0" y="177" dx="0em" dy="0.3em" style="text-anchor: end; visibility: hidden; font-family: Roboto, sans-serif; font-size: 12px; font-weight: 200;" fill="rgb(255, 255, 255)" stroke="none" stroke-width="1px">0</text><text x="0" y="160.9090909090909" dx="0em" dy="0.3em" style="text-anchor: end; visibility: inherit; font-family: Roboto, sans-serif; font-size: 12px; font-weight: 200;" fill="rgb(255, 255, 255)" stroke="none" stroke-width="1px">0.1</text><text x="0" y="144.8181818181818" dx="0em" dy="0.3em" style="text-anchor: end; visibility: hidden; font-family: Roboto, sans-serif; font-size: 12px; font-weight: 200;" fill="rgb(255, 255, 255)" stroke="none" stroke-width="1px">0.2</text><text x="0" y="128.72727272727272" dx="0em" dy="0.3em" style="text-anchor: end; visibility: inherit; font-family: Roboto, sans-serif; font-size: 12px; font-weight: 200;" fill="rgb(255, 255, 255)" stroke="none" stroke-width="1px">0.3</text><text x="0" y="112.63636363636364" dx="0em" dy="0.3em" style="text-anchor: end; visibility: hidden; font-family: Roboto, sans-serif; font-size: 12px; font-weight: 200;" fill="rgb(255, 255, 255)" stroke="none" stroke-width="1px">0.4</text><text x="0" y="96.54545454545453" dx="0em" dy="0.3em" style="text-anchor: end; visibility: inherit; font-family: Roboto, sans-serif; font-size: 12px; font-weight: 200;" fill="rgb(255, 255, 255)" stroke="none" stroke-width="1px">0.5</text><text x="0" y="80.45454545454547" dx="0em" dy="0.3em" style="text-anchor: end; visibility: hidden; font-family: Roboto, sans-serif; font-size: 12px; font-weight: 200;" fill="rgb(255, 255, 255)" stroke="none" stroke-width="1px">0.6</text><text x="0" y="64.36363636363639" dx="0em" dy="0.3em" style="text-anchor: end; visibility: inherit; font-family: Roboto, sans-serif; font-size: 12px; font-weight: 200;" fill="rgb(255, 255, 255)" stroke="none" stroke-width="1px">0.7</text><text x="0" y="48.272727272727266" dx="0em" dy="0.3em" style="text-anchor: end; visibility: hidden; font-family: Roboto, sans-serif; font-size: 12px; font-weight: 200;" fill="rgb(255, 255, 255)" stroke="none" stroke-width="1px">0.8</text><text x="0" y="32.181818181818194" dx="0em" dy="0.3em" style="text-anchor: end; visibility: inherit; font-family: Roboto, sans-serif; font-size: 12px; font-weight: 200;" fill="rgb(255, 255, 255)" stroke="none" stroke-width="1px">0.9</text><text x="0" y="16.090909090909097" dx="0em" dy="0.3em" style="text-anchor: end; visibility: hidden; font-family: Roboto, sans-serif; font-size: 12px; font-weight: 200;" fill="rgb(255, 255, 255)" stroke="none" stroke-width="1px">1</text><text x="0" y="0" dx="0em" dy="0.3em" style="text-anchor: end; visibility: hidden; font-family: Roboto, sans-serif; font-size: 12px; font-weight: 200;" fill="rgb(255, 255, 255)" stroke="none" stroke-width="1px">1.1</text></g><line x1="40" y1="0" x2="40" y2="177" fill="rgb(0, 0, 0)" stroke="rgb(204, 204, 204)" stroke-width="1px"></line></g></g><g transform="translate(40, 0)" clip-path="url(#clip_0)"><clipPath id="clip_0"><rect width="290" height="177"></rect></clipPath><g><g><g><line x1="0" y1="0" x2="0" y2="177" fill="rgb(0, 0, 0)" stroke="rgb(189, 189, 189)" stroke-width="1px" opacity="0.25"></line><line x1="24.166666666666664" y1="0" x2="24.166666666666664" y2="177" fill="rgb(0, 0, 0)" stroke="rgb(189, 189, 189)" stroke-width="1px" opacity="0.25"></line><line x1="48.33333333333333" y1="0" x2="48.33333333333333" y2="177" fill="rgb(0, 0, 0)" stroke="rgb(189, 189, 189)" stroke-width="1px" opacity="0.25"></line><line x1="72.5" y1="0" x2="72.5" y2="177" fill="rgb(0, 0, 0)" stroke="rgb(189, 189, 189)" stroke-width="1px" opacity="0.25"></line><line x1="96.66666666666666" y1="0" x2="96.66666666666666" y2="177" fill="rgb(0, 0, 0)" stroke="rgb(189, 189, 189)" stroke-width="1px" opacity="0.25"></line><line x1="120.83333333333334" y1="0" x2="120.83333333333334" y2="177" fill="rgb(0, 0, 0)" stroke="rgb(189, 189, 189)" stroke-width="1px" opacity="0.25"></line><line x1="145" y1="0" x2="145" y2="177" fill="rgb(0, 0, 0)" stroke="rgb(189, 189, 189)" stroke-width="1px" opacity="0.25"></line><line x1="169.16666666666669" y1="0" x2="169.16666666666669" y2="177" fill="rgb(0, 0, 0)" stroke="rgb(189, 189, 189)" stroke-width="1px" opacity="0.25"></line><line x1="193.33333333333331" y1="0" x2="193.33333333333331" y2="177" fill="rgb(0, 0, 0)" stroke="rgb(189, 189, 189)" stroke-width="1px" opacity="0.25"></line><line x1="217.5" y1="0" x2="217.5" y2="177" fill="rgb(0, 0, 0)" stroke="rgb(189, 189, 189)" stroke-width="1px" opacity="0.25"></line><line x1="241.66666666666669" y1="0" x2="241.66666666666669" y2="177" fill="rgb(0, 0, 0)" stroke="rgb(189, 189, 189)" stroke-width="1px" opacity="0.25"></line><line x1="265.8333333333333" y1="0" x2="265.8333333333333" y2="177" fill="rgb(0, 0, 0)" stroke="rgb(189, 189, 189)" stroke-width="1px" opacity="0.25"></line><line x1="290" y1="0" x2="290" y2="177" fill="rgb(0, 0, 0)" stroke="rgb(189, 189, 189)" stroke-width="1px" opacity="0.25"></line></g><g><line x1="0" y1="177" x2="290" y2="177" fill="rgb(0, 0, 0)" stroke="rgb(189, 189, 189)" stroke-width="1px" opacity="0.25"></line><line x1="0" y1="160.9090909090909" x2="290" y2="160.9090909090909" fill="rgb(0, 0, 0)" stroke="rgb(189, 189, 189)" stroke-width="1px" opacity="0.25"></line><line x1="0" y1="144.8181818181818" x2="290" y2="144.8181818181818" fill="rgb(0, 0, 0)" stroke="rgb(189, 189, 189)" stroke-width="1px" opacity="0.25"></line><line x1="0" y1="128.72727272727272" x2="290" y2="128.72727272727272" fill="rgb(0, 0, 0)" stroke="rgb(189, 189, 189)" stroke-width="1px" opacity="0.25"></line><line x1="0" y1="112.63636363636364" x2="290" y2="112.63636363636364" fill="rgb(0, 0, 0)" stroke="rgb(189, 189, 189)" stroke-width="1px" opacity="0.25"></line><line x1="0" y1="96.54545454545453" x2="290" y2="96.54545454545453" fill="rgb(0, 0, 0)" stroke="rgb(189, 189, 189)" stroke-width="1px" opacity="0.25"></line><line x1="0" y1="80.45454545454547" x2="290" y2="80.45454545454547" fill="rgb(0, 0, 0)" stroke="rgb(189, 189, 189)" stroke-width="1px" opacity="0.25"></line><line x1="0" y1="64.36363636363639" x2="290" y2="64.36363636363639" fill="rgb(0, 0, 0)" stroke="rgb(189, 189, 189)" stroke-width="1px" opacity="0.25"></line><line x1="0" y1="48.272727272727266" x2="290" y2="48.272727272727266" fill="rgb(0, 0, 0)" stroke="rgb(189, 189, 189)" stroke-width="1px" opacity="0.25"></line><line x1="0" y1="32.181818181818194" x2="290" y2="32.181818181818194" fill="rgb(0, 0, 0)" stroke="rgb(189, 189, 189)" stroke-width="1px" opacity="0.25"></line><line x1="0" y1="16.090909090909097" x2="290" y2="16.090909090909097" fill="rgb(0, 0, 0)" stroke="rgb(189, 189, 189)" stroke-width="1px" opacity="0.25"></line><line x1="0" y1="0" x2="290" y2="0" fill="rgb(0, 0, 0)" stroke="rgb(189, 189, 189)" stroke-width="1px" opacity="0.25"></line></g></g></g><g><g><line x1="0" y1="177" x2="290" y2="177" fill="rgb(0, 0, 0)" stroke="rgb(153, 153, 153)" stroke-width="1.5px"></line></g></g><g><g><line x1="24.166666666666664" y1="0" x2="24.166666666666664" y2="177" fill="rgb(0, 0, 0)" stroke="rgb(153, 153, 153)" stroke-width="1.5px"></line></g></g><g><g><g><g><g><path stroke="rgb(204, 51, 17)" stroke-width="2px" d="M24.166666666666664,71.69840689138934L29,53.93974646654996L33.833333333333336,46.33470234026052L38.666666666666664,41.95660327096037L43.5,39.14772740411999L48.33333333333333,37.17019218351331L53.166666666666664,35.768515392563074L58,34.62573119998394L62.833333333333336,33.74116249007492L67.66666666666667,33.07585688307743L72.5,32.587742621163876L77.33333333333333,32.199253141403744L82.16666666666667,31.87003283263808L87,31.533210737121713L91.83333333333333,31.218597628691224L96.66666666666666,30.927986327992304L101.5,30.689298322601758L106.33333333333333,30.50856099594734L111.16666666666667,30.314305483956677L116,30.165579090570667L120.83333333333334,30.006615313340827L125.66666666666667,29.905875960623586L130.5,29.781069881603106L135.33333333333334,29.593550458702783L140.16666666666666,29.427402908654138L145,29.274078276958686L149.83333333333334,29.187446918430137L154.66666666666666,29.04428522192905L159.5,28.910115177633916L164.33333333333334,28.81888668510181L169.16666666666669,28.726603027859053L174,28.692689669872145L178.83333333333334,28.640158333231064L183.66666666666666,28.555003218830368L188.5,28.487820408640896L193.33333333333331,28.404600905561633L198.16666666666666,28.338579461329925L203,28.261420025262176L207.83333333333334,28.182941041693653L212.66666666666666,28.09294767071664L217.5,28.055041391054264L222.33333333333334,27.984024558379613L227.16666666666666,27.962867449248158L232,27.864357385605707L236.83333333333334,27.79452485220746L241.66666666666669,27.74189500057817L246.5,27.694227346768198L251.33333333333334,27.628080184831667L256.1666666666667,27.65812177936202L261,27.563510863498227" style="fill: none;" fill="none"></path></g><g><path stroke="rgb(0, 119, 187)" stroke-width="2px" d="M24.166666666666664,112.32795675776221L29,77.78487949953839L33.833333333333336,60.30581135951082L38.666666666666664,51.049269158472846L43.5,45.47728351275033L48.33333333333333,41.84547101767668L53.166666666666664,39.35719327300815L58,37.57270834364664L62.833333333333336,36.27892897093311L67.66666666666667,35.315438816406065L72.5,34.56344368372484L77.33333333333333,33.94467408471439L82.16666666666667,33.44269255373145L87,33.04396177235182L91.83333333333333,32.71638048343467L96.66666666666666,32.42201766743814L101.5,32.13279819304959L106.33333333333333,31.869448565788343L111.16666666666667,31.65781632670696L116,31.459773853120797L120.83333333333334,31.271225418219363L125.66666666666667,31.057527197082614L130.5,30.879697714169385L135.33333333333334,30.70461343757685L140.16666666666666,30.54190257226665L145,30.40405192343942L149.83333333333334,30.278431823457993L154.66666666666666,30.13467264215678L159.5,30.0068500873872L164.33333333333334,29.86445103234575L169.16666666666669,29.74682829316011L174,29.63468756915235L178.83333333333334,29.496334351658614L183.66666666666666,29.386506186565796L188.5,29.288425966931204L193.33333333333331,29.182647500960726L198.16666666666666,29.10576846659375L203,29.000641485962923L207.83333333333334,28.91745120106123L212.66666666666666,28.832675920718728L217.5,28.74426418290485L222.33333333333334,28.66708252599937L227.16666666666666,28.56311286548415L232,28.496706715299222L236.83333333333334,28.428704057047494L241.66666666666669,28.3275640082842L246.5,28.26687997903026L251.33333333333334,28.1768332489934L256.1666666666667,28.101348384155376L261,28.03862882870216" style="fill: none;" fill="none"></path></g><g><path stroke="rgb(187, 187, 187)" stroke-width="2px" d="M24.166666666666664,159.94363656504586L29,159.94363656504586L33.833333333333336,160.79880797525726L38.666666666666664,160.40580640806454L43.5,160.20535106324382L48.33333333333333,160.09554201291238L53.166666666666664,160.0330298945286L58,159.99666171700696L62.833333333333336,160.43578615447626L67.66666666666667,160.23772874126357L72.5,160.6687466497688L77.33333333333333,160.53932984111077L82.16666666666667,160.8485474490504L87,160.3521032799134L91.83333333333333,160.18863973586244L96.66666666666666,160.50909239586207L101.5,160.282871771941L106.33333333333333,160.147163906698L111.16666666666667,159.931649056218L116,159.80234855110598L120.83333333333334,159.8588649964804L125.66666666666667,159.8927740702236L130.5,159.91311922882437L135.33333333333334,159.79123480456624L140.16666666666666,159.71810451963472L145,160.2642274050518L149.83333333333334,160.13599093780064L154.66666666666666,160.05904914144924L159.5,159.87879326325958L164.33333333333334,159.7706397788523L169.16666666666669,159.70574770351033L174,159.66681246381395L178.83333333333334,160.44799652721554L183.66666666666666,160.24625253656748L188.5,160.28611508609833L193.33333333333331,160.14912367626437L198.16666666666666,160.0669288312683L203,160.0176119245962L207.83333333333334,159.98802178071014L212.66666666666666,159.9702676944207L217.5,159.9596152426622L222.33333333333334,159.9532237716126L227.16666666666666,159.94938888898483L232,159.94708795940883L236.83333333333334,160.6161617873389L241.66666666666669,160.21306091718472L246.5,160.52365470144966L251.33333333333334,160.29164744688293L256.1666666666667,160.15244309414624L261,160.22982941996094" style="fill: none;" fill="none"></path></g><g><path stroke="rgb(0, 153, 136)" stroke-width="2px" d="M24.166666666666664,159.27318146012047L29,159.43660489943895L33.833333333333336,159.58412232093775L38.666666666666664,159.68001483713482L43.5,159.6475033634439L48.33333333333333,159.72533794468876L53.166666666666664,159.75447294678375L58,159.58867178893755L62.833333333333336,159.65624748559296L67.66666666666667,159.70984554087033L72.5,159.61259994934872L77.33333333333333,159.58673097084355L82.16666666666667,159.60481220552623L87,159.77265536162048L91.83333333333333,159.6291167271467L96.66666666666666,159.55242556361918L101.5,159.69150151172585L106.33333333333333,159.62071195189947L111.16666666666667,159.7579355099726L116,159.68337205506154L120.83333333333334,159.58231655513305L125.66666666666667,159.64504962462513L130.5,159.60089301126897L135.33333333333334,159.66424080327923L140.16666666666666,159.6915218015645L145,159.76823130537272L149.83333333333334,159.7807341942989L154.66666666666666,159.68230404134596L159.5,159.65542788351704L164.33333333333334,159.73048413835798L169.16666666666669,159.79160858470425L174,159.69687407945838L178.83333333333334,159.73121530853297L183.66666666666666,159.7156157247823L188.5,159.6687103636146L193.33333333333331,159.67006692778233L198.16666666666666,159.64138108604342L203,159.6080788791271L207.83333333333334,159.66050619343503L212.66666666666666,159.73487191971805L217.5,159.7861958944902L222.33333333333334,159.77542223304079L227.16666666666666,159.7126396203213L232,159.50601576425433L236.83333333333334,159.6958139746147L241.66666666666669,159.84455640802625L246.5,159.7594838524853L251.33333333333334,159.7365992873086L256.1666666666667,159.73895972967645L261,159.76183042418188" style="fill: none;" fill="none"></path></g><g><path stroke="rgb(51, 187, 238)" stroke-width="2px" d="M24.166666666666664,28.588177572597175L29,27.708209818059736L33.833333333333336,26.467353992205613L38.666666666666664,25.494721206233805L43.5,24.911381714276814L48.33333333333333,24.141739574443175L53.166666666666664,24.707891463693965L58,23.657086931717252L62.833333333333336,23.124704301427865L67.66666666666667,22.895071043583805L72.5,23.054254908230604L77.33333333333333,22.794625194693488L82.16666666666667,22.284745388584355L87,22.09733570148948L91.83333333333333,21.963520843084922L96.66666666666666,22.242738060584454L101.5,21.895220663349782L106.33333333333333,21.9120425016821L111.16666666666667,21.72903432135252L116,21.833789644896022L120.83333333333334,21.783998207776786L125.66666666666667,21.657580480470674L130.5,21.52809417294145L135.33333333333334,21.906311941090877L140.16666666666666,21.747059674465927L145,22.075236579326234L149.83333333333334,21.730415437052706L154.66666666666666,21.65224867202266L159.5,21.567802060240695L164.33333333333334,21.801409317560157L169.16666666666669,21.76457109876117L174,21.59765280083511L178.83333333333334,21.631590700010506L183.66666666666666,21.539317562670632L188.5,21.46250069114468L193.33333333333331,21.43786355974078L198.16666666666666,21.449901355655232L203,21.725305596575733L207.83333333333334,21.665272558438446L212.66666666666666,21.53807368975587L217.5,21.493933854348807L222.33333333333334,21.392360650161113L227.16666666666666,21.433326105067383L232,21.468631873228034L236.83333333333334,21.414726031182777L241.66666666666669,21.38774577357084L246.5,21.371557619004726L251.33333333333334,21.29748191855666L256.1666666666667,21.301305726791288L261,21.362603408200243" style="fill: none;" fill="none"></path></g><g><path stroke="rgb(204, 51, 17)" stroke-width="2px" d="M24.166666666666664,40.49880727854641L29,32.715246722102165L33.833333333333336,29.361051054301658L38.666666666666664,27.18183945414219L43.5,25.6195783494482L48.33333333333333,24.52325704426213L53.166666666666664,23.563916606689258L58,22.788948732356317L62.833333333333336,22.195573039204653L67.66666666666667,21.742215721183573L72.5,21.368337919978213L77.33333333333333,21.04946630678587L82.16666666666667,20.740434716068652L87,20.528437010056365L91.83333333333333,20.269871867639665L96.66666666666666,20.105420360553907L101.5,19.9625229511431L106.33333333333333,19.75208222301114L111.16666666666667,19.593650018594687L116,19.467755155298963L120.83333333333334,19.2929912528976L125.66666666666667,19.159976026329566L130.5,19.006417019243L135.33333333333334,18.915621291185136L140.16666666666666,18.79812387290794L145,18.70080551555468L149.83333333333334,18.65314111358857L154.66666666666666,18.509224936428442L159.5,18.48455649332292L164.33333333333334,18.450984062487283L169.16666666666669,18.341000444772295L174,18.29646327563266L178.83333333333334,18.21744739152418L183.66666666666666,18.119083173334943L188.5,18.057383020373337L193.33333333333331,17.965383886134703L198.16666666666666,17.87800492033184L203,17.822892081008906L207.83333333333334,17.725461569695383L212.66666666666666,17.679072488373606L217.5,17.633806566683656L222.33333333333334,17.594577788375815L227.16666666666666,17.50399608987084L232,17.468422273799103L236.83333333333334,17.42428226362375L241.66666666666669,17.37500253698616L246.5,17.310569755159108L251.33333333333334,17.261183590841554L256.1666666666667,17.187299344900353L261,17.16174400034764" style="fill: none;" fill="none"></path></g></g></g></g><g opacity="0.2"><g><g><g><path stroke="rgb(204, 51, 17)" stroke-width="2px" d="M24.166666666666664,71.69840689138934L29,43.284550211646355L33.833333333333336,39.03385997902265L38.666666666666664,36.80795876546341L43.5,35.48045907237314L48.33333333333333,34.43454906073484L53.166666666666664,33.76409515467557L58,32.95954087647526L62.833333333333336,32.43659546158532L67.66666666666667,32.08795559406283L72.5,31.859998388723906L77.33333333333333,31.618633064356732L82.16666666666667,31.37727733091875L87,31.028637463396258L91.83333333333333,30.747047781944296L96.66666666666666,30.492274338548846L101.5,30.33136731928046L106.33333333333333,30.237500895153413L111.16666666666667,30.022951808842752L116,29.942503094673178L120.83333333333334,29.76817836544732L125.66666666666667,29.754770246419046L130.5,29.59386322715066L135.33333333333334,29.312273545698698L140.16666666666666,29.178182764486845L145,29.044091983274992L149.83333333333334,29.057500102303248L154.66666666666666,28.829542896964348L159.5,28.70886023478075L164.33333333333334,28.68204399672422L169.16666666666669,28.588177572597175L174,28.641819639639433L178.83333333333334,28.561361334540642L183.66666666666666,28.42727055332879L188.5,28.387046196243983L193.33333333333331,28.279771653088662L198.16666666666666,28.239547296003874L203,28.14568087187681L207.83333333333334,28.06522256677802L212.66666666666666,27.957957614551912L217.5,27.9981819716367L222.33333333333334,27.877499309453103L227.16666666666666,27.931131785566166L232,27.716592290184717L236.83333333333334,27.689776052128206L241.66666666666669,27.66295022314246L246.5,27.62272586605767L251.33333333333334,27.528859441930607L256.1666666666667,27.70318417115646L261,27.4215944897045" style="fill: none;" fill="none"></path></g><g><path stroke="rgb(0, 119, 187)" stroke-width="2px" d="M24.166666666666664,112.32795675776221L29,57.05903314460408L33.833333333333336,43.52590594508432L38.666666666666664,40.163575530052206L43.5,38.202499053695L48.33333333333333,36.82136688449167L53.166666666666664,35.798916285688236L58,34.97091218558225L62.833333333333336,34.37085569988599L67.66666666666667,33.88476822592996L72.5,33.44227152520961L77.33333333333333,33.019887003031656L82.16666666666667,32.69135931405155L87,32.44664675539191L91.83333333333333,32.22539360956713L96.66666666666666,31.980681050907503L101.5,31.699091369455523L106.33333333333333,31.47449098933829L111.16666666666667,31.340400208126436L116,31.16272824460811L120.83333333333334,30.98841310631147L125.66666666666667,30.73698689720849L130.5,30.612957000732443L135.33333333333334,30.441989096728253L140.16666666666666,30.297837430780596L145,30.197276538068607L149.83333333333334,30.090001994913287L154.66666666666666,29.919034090909097L159.5,29.815116372975442L164.33333333333334,29.65085252848539L169.16666666666669,29.5703942233866L174,29.466476505452945L178.83333333333334,29.28880454193464L183.66666666666666,29.2217639467933L188.5,29.141305641694508L193.33333333333331,29.023979804732598L198.16666666666666,28.990449916232734L203,28.842951015992604L207.83333333333334,28.792665774172015L212.66666666666666,28.705513000488303L217.5,28.611646576361235L222.33333333333334,28.551310040734034L227.16666666666666,28.4071583747864L232,28.39709749005059L236.83333333333334,28.326700069687586L241.66666666666669,28.175853935155008L246.5,28.175853935155008L251.33333333333334,28.041763153943155L256.1666666666667,27.988121086900897L261,27.94454949552364" style="fill: none;" fill="none"></path></g><g><path stroke="rgb(187, 187, 187)" stroke-width="2px" d="M24.166666666666664,159.94363656504586L29,159.94363656504586L33.833333333333336,161.61977252906019L38.666666666666664,159.94363656504586L43.5,159.94363656504586L48.33333333333333,159.94363656504586L53.166666666666664,159.94363656504586L58,159.94363656504586L62.833333333333336,161.08340940421277L67.66666666666667,159.94363656504586L72.5,161.31136421181938L77.33333333333333,160.34590890868142L82.16666666666667,161.31136421181938L87,159.60840961201623L91.83333333333333,159.94363656504586L96.66666666666666,160.98954537781802L101.5,159.94363656504586L106.33333333333333,159.94363656504586L111.16666666666667,159.60840961201623L116,159.60840961201623L120.83333333333334,159.94363656504586L125.66666666666667,159.94363656504586L130.5,159.94363656504586L135.33333333333334,159.60840961201623L140.16666666666666,159.60840961201623L145,161.08340940421277L149.83333333333334,159.94363656504586L154.66666666666666,159.94363656504586L159.5,159.60840961201623L164.33333333333334,159.60840961201623L169.16666666666669,159.60840961201623L174,159.60840961201623L178.83333333333334,161.61977252906019L183.66666666666666,159.94363656504586L188.5,160.34590890868142L193.33333333333331,159.94363656504586L198.16666666666666,159.94363656504586L203,159.94363656504586L207.83333333333334,159.94363656504586L212.66666666666666,159.94363656504586L217.5,159.94363656504586L222.33333333333334,159.94363656504586L227.16666666666666,159.94363656504586L232,159.94363656504586L236.83333333333334,161.61977252906019L241.66666666666669,159.60840961201623L246.5,160.98954537781802L251.33333333333334,159.94363656504586L256.1666666666667,159.94363656504586L261,160.34590890868142" style="fill: none;" fill="none"></path></g><g><path stroke="rgb(0, 153, 136)" stroke-width="2px" d="M24.166666666666664,159.27318146012047L29,159.53465896303004L33.833333333333336,159.7257390455766L38.666666666666664,159.79278443618253L43.5,159.60505638339302L48.33333333333333,159.83301119099963L53.166666666666664,159.7961364659396L58,159.34693210910666L62.833333333333336,159.75590851225635L67.66666666666667,159.78943240642548L72.5,159.4676135724241L77.33333333333333,159.54806828092444L82.16666666666667,159.63187501918185L87,160.02409127354622L91.83333333333333,159.4139774997126L96.66666666666666,159.4374429068782L101.5,159.90005658160555L106.33333333333333,159.51454558562148L111.16666666666667,159.96374994245443L116,159.57153368809006L120.83333333333334,159.43073884736407L125.66666666666667,159.73914716460487L130.5,159.53465896303004L135.33333333333334,159.75926174087957L140.16666666666666,159.73244310509074L145,159.88329523395407L149.83333333333334,159.79948849569666L154.66666666666666,159.53465896303004L159.5,159.61511367153037L164.33333333333334,159.84306847913697L169.16666666666669,159.88329523395407L174,159.55477234043857L178.83333333333334,159.78272714804518L183.66666666666666,159.69221635027364L188.5,159.59835232387888L193.33333333333331,159.67210177399895L198.16666666666666,159.59835232387888L203,159.5581255690618L207.83333333333334,159.73914716460487L212.66666666666666,159.84642050889406L217.5,159.86318185654554L222.33333333333334,159.75926174087957L227.16666666666666,159.61846570128745L232,159.19607998024333L236.83333333333334,159.9805112901059L241.66666666666669,160.06767005812037L246.5,159.63187501918185L251.33333333333334,159.70227243954486L256.1666666666667,159.74250039322808L261,159.7961364659396" style="fill: none;" fill="none"></path></g><g><path stroke="rgb(51, 187, 238)" stroke-width="2px" d="M24.166666666666664,28.588177572597175L29,27.180229165337305L33.833333333333336,25.276132399385638L38.666666666666664,24.35090504993094L43.5,24.149773673577748L48.33333333333333,23.077047423882924L53.166666666666664,25.51749772375281L58,22.125003836371697L62.833333333333336,22.339543331753145L67.66666666666667,22.55409241806379L72.5,23.291586919264372L77.33333333333333,22.40659351782366L82.16666666666667,21.521590525453753L87,21.81658832593399L91.83333333333333,21.762955849820926L96.66666666666666,22.66136696121911L101.5,21.374091625213644L106.33333333333333,21.937270988117586L111.16666666666667,21.45454993031243L116,21.990913055159844L120.83333333333334,21.70931378277867L125.66666666666667,21.467958049340687L130.5,21.333867268128834L135.33333333333334,22.473634112964998L140.16666666666666,21.508182406425497L145,22.567500537092045L149.83333333333334,21.21318460594526L154.66666666666666,21.534998644482027L159.5,21.441132220354962L164.33333333333334,22.15182007442823L169.16666666666669,21.70931378277867L174,21.34727538715711L178.83333333333334,21.682497544722136L183.66666666666666,21.400907863270174L188.5,21.34727538715711L193.33333333333331,21.400907863270174L198.16666666666666,21.467958049340687L203,22.138411955399953L207.83333333333334,21.575223001566815L212.66666666666666,21.34727538715711L217.5,21.427724101326685L222.33333333333334,21.24000084400179L227.16666666666666,21.49477428739722L232,21.521590525453753L236.83333333333334,21.333867268128834L241.66666666666669,21.34727538715711L246.5,21.34727538715711L251.33333333333334,21.186368367888726L256.1666666666667,21.30704143914311L261,21.45454993031243" style="fill: none;" fill="none"></path></g><g><path stroke="rgb(204, 51, 17)" stroke-width="2px" d="M24.166666666666664,40.49880727854642L29,28.045110388235624L33.833333333333336,26.141023213213153L38.666666666666664,24.619086612354646L43.5,23.57989025115969L48.33333333333333,23.00665000351994L53.166666666666664,22.19204443151302L58,21.65903813188727L62.833333333333336,21.32045914910058L67.66666666666667,21.0690329399976L72.5,20.8109122623097L77.33333333333333,20.572894172234975L82.16666666666667,20.27789637175474L87,20.21085577661342L91.83333333333333,19.88232808763332L96.66666666666666,19.858859083869255L101.5,19.748237306421466L106.33333333333333,19.436474561691305L111.16666666666667,19.35602584752171L116,19.278924367644585L120.83333333333334,19.030854983763273L125.66666666666667,18.96045756340029L130.5,18.776081540367823L135.33333333333334,18.779428774660296L140.16666666666666,18.621878580613576L145,18.554828394543062L149.83333333333334,18.581644632599573L154.66666666666666,18.293350891633473L159.5,18.44755385138772L164.33333333333334,18.400625434788797L169.16666666666669,18.176025054671562L174,18.22965753078463L178.83333333333334,18.09892357479444L183.66666666666666,17.971536853096705L188.5,17.964832793582588L193.33333333333331,17.82738518714907L198.16666666666666,17.746936472979474L203,17.74022282253614L207.83333333333334,17.579315803267754L212.66666666666666,17.609488866545952L217.5,17.56590768423948L222.33333333333334,17.535734620961282L227.16666666666666,17.36812354217878L232,17.4150615497069L236.83333333333334,17.35807224837217L241.66666666666669,17.30108294703744L246.5,17.21392058242453L251.33333333333334,17.187104344368002L256.1666666666667,17.076472975990992L261,17.123410983519133" style="fill: none;" fill="none"></path></g></g></g></g></g></g><g transform="translate(40, 177)" clip-path="url(#clip_1)"><clipPath id="clip_1"><rect width="290" height="23"></rect></clipPath><g><g><line x1="0" y1="0" x2="0" y2="5" style="visibility: inherit;" fill="rgb(0, 0, 0)" stroke="rgb(204, 204, 204)" stroke-width="1px"></line><line x1="24.166666666666664" y1="0" x2="24.166666666666664" y2="5" style="visibility: inherit;" fill="rgb(0, 0, 0)" stroke="rgb(204, 204, 204)" stroke-width="1px"></line><line x1="48.33333333333333" y1="0" x2="48.33333333333333" y2="5" style="visibility: inherit;" fill="rgb(0, 0, 0)" stroke="rgb(204, 204, 204)" stroke-width="1px"></line><line x1="72.5" y1="0" x2="72.5" y2="5" style="visibility: inherit;" fill="rgb(0, 0, 0)" stroke="rgb(204, 204, 204)" stroke-width="1px"></line><line x1="96.66666666666666" y1="0" x2="96.66666666666666" y2="5" style="visibility: inherit;" fill="rgb(0, 0, 0)" stroke="rgb(204, 204, 204)" stroke-width="1px"></line><line x1="120.83333333333334" y1="0" x2="120.83333333333334" y2="5" style="visibility: inherit;" fill="rgb(0, 0, 0)" stroke="rgb(204, 204, 204)" stroke-width="1px"></line><line x1="145" y1="0" x2="145" y2="5" style="visibility: inherit;" fill="rgb(0, 0, 0)" stroke="rgb(204, 204, 204)" stroke-width="1px"></line><line x1="169.16666666666669" y1="0" x2="169.16666666666669" y2="5" style="visibility: inherit;" fill="rgb(0, 0, 0)" stroke="rgb(204, 204, 204)" stroke-width="1px"></line><line x1="193.33333333333331" y1="0" x2="193.33333333333331" y2="5" style="visibility: inherit;" fill="rgb(0, 0, 0)" stroke="rgb(204, 204, 204)" stroke-width="1px"></line><line x1="217.5" y1="0" x2="217.5" y2="5" style="visibility: inherit;" fill="rgb(0, 0, 0)" stroke="rgb(204, 204, 204)" stroke-width="1px"></line><line x1="241.66666666666669" y1="0" x2="241.66666666666669" y2="5" style="visibility: inherit;" fill="rgb(0, 0, 0)" stroke="rgb(204, 204, 204)" stroke-width="1px"></line><line x1="265.8333333333333" y1="0" x2="265.8333333333333" y2="5" style="visibility: inherit;" fill="rgb(0, 0, 0)" stroke="rgb(204, 204, 204)" stroke-width="1px"></line><line x1="290" y1="0" x2="290" y2="5" style="visibility: inherit;" fill="rgb(0, 0, 0)" stroke="rgb(204, 204, 204)" stroke-width="1px"></line></g><g transform="translate(0, 8)"><text x="0" y="0" dx="0em" dy="0.95em" style="text-anchor: middle; visibility: hidden; font-family: Roboto, sans-serif; font-size: 12px; font-weight: 200;" fill="rgb(255, 255, 255)" stroke="none" stroke-width="1px">-5</text><text x="24.166666666666664" y="0" dx="0em" dy="0.95em" style="text-anchor: middle; visibility: inherit; font-family: Roboto, sans-serif; font-size: 12px; font-weight: 200;" fill="rgb(255, 255, 255)" stroke="none" stroke-width="1px">0</text><text x="48.33333333333333" y="0" dx="0em" dy="0.95em" style="text-anchor: middle; visibility: inherit; font-family: Roboto, sans-serif; font-size: 12px; font-weight: 200;" fill="rgb(255, 255, 255)" stroke="none" stroke-width="1px">5</text><text x="72.5" y="0" dx="0em" dy="0.95em" style="text-anchor: middle; visibility: inherit; font-family: Roboto, sans-serif; font-size: 12px; font-weight: 200;" fill="rgb(255, 255, 255)" stroke="none" stroke-width="1px">10</text><text x="96.66666666666666" y="0" dx="0em" dy="0.95em" style="text-anchor: middle; visibility: inherit; font-family: Roboto, sans-serif; font-size: 12px; font-weight: 200;" fill="rgb(255, 255, 255)" stroke="none" stroke-width="1px">15</text><text x="120.83333333333334" y="0" dx="0em" dy="0.95em" style="text-anchor: middle; visibility: inherit; font-family: Roboto, sans-serif; font-size: 12px; font-weight: 200;" fill="rgb(255, 255, 255)" stroke="none" stroke-width="1px">20</text><text x="145" y="0" dx="0em" dy="0.95em" style="text-anchor: middle; visibility: inherit; font-family: Roboto, sans-serif; font-size: 12px; font-weight: 200;" fill="rgb(255, 255, 255)" stroke="none" stroke-width="1px">25</text><text x="169.16666666666669" y="0" dx="0em" dy="0.95em" style="text-anchor: middle; visibility: inherit; font-family: Roboto, sans-serif; font-size: 12px; font-weight: 200;" fill="rgb(255, 255, 255)" stroke="none" stroke-width="1px">30</text><text x="193.33333333333331" y="0" dx="0em" dy="0.95em" style="text-anchor: middle; visibility: inherit; font-family: Roboto, sans-serif; font-size: 12px; font-weight: 200;" fill="rgb(255, 255, 255)" stroke="none" stroke-width="1px">35</text><text x="217.5" y="0" dx="0em" dy="0.95em" style="text-anchor: middle; visibility: inherit; font-family: Roboto, sans-serif; font-size: 12px; font-weight: 200;" fill="rgb(255, 255, 255)" stroke="none" stroke-width="1px">40</text><text x="241.66666666666669" y="0" dx="0em" dy="0.95em" style="text-anchor: middle; visibility: inherit; font-family: Roboto, sans-serif; font-size: 12px; font-weight: 200;" fill="rgb(255, 255, 255)" stroke="none" stroke-width="1px">45</text><text x="265.8333333333333" y="0" dx="0em" dy="0.95em" style="text-anchor: middle; visibility: inherit; font-family: Roboto, sans-serif; font-size: 12px; font-weight: 200;" fill="rgb(255, 255, 255)" stroke="none" stroke-width="1px">50</text><text x="290" y="0" dx="0em" dy="0.95em" style="text-anchor: middle; visibility: hidden; font-family: Roboto, sans-serif; font-size: 12px; font-weight: 200;" fill="rgb(255, 255, 255)" stroke="none" stroke-width="1px">55</text></g><line x1="0" y1="0" x2="290" y2="0" fill="rgb(0, 0, 0)" stroke="rgb(204, 204, 204)" stroke-width="1px"></line></g></g></g></g></svg>