<svg viewBox="0 0 330.0000305175781 200.00001525878906" xmlns="http://www.w3.org/2000/svg"><g><g><g><g><g><line x1="60" y1="177" x2="55" y2="177" style="visibility: inherit;" fill="rgb(0, 0, 0)" stroke="rgb(204, 204, 204)" stroke-width="1px"></line><line x1="60" y1="151.71428571428572" x2="55" y2="151.71428571428572" style="visibility: inherit;" fill="rgb(0, 0, 0)" stroke="rgb(204, 204, 204)" stroke-width="1px"></line><line x1="60" y1="126.42857142857143" x2="55" y2="126.42857142857143" style="visibility: inherit;" fill="rgb(0, 0, 0)" stroke="rgb(204, 204, 204)" stroke-width="1px"></line><line x1="60" y1="101.14285714285714" x2="55" y2="101.14285714285714" style="visibility: inherit;" fill="rgb(0, 0, 0)" stroke="rgb(204, 204, 204)" stroke-width="1px"></line><line x1="60" y1="75.85714285714286" x2="55" y2="75.85714285714286" style="visibility: inherit;" fill="rgb(0, 0, 0)" stroke="rgb(204, 204, 204)" stroke-width="1px"></line><line x1="60" y1="50.57142857142857" x2="55" y2="50.57142857142857" style="visibility: inherit;" fill="rgb(0, 0, 0)" stroke="rgb(204, 204, 204)" stroke-width="1px"></line><line x1="60" y1="25.285714285714295" x2="55" y2="25.285714285714295" style="visibility: inherit;" fill="rgb(0, 0, 0)" stroke="rgb(204, 204, 204)" stroke-width="1px"></line><line x1="60" y1="0" x2="55" y2="0" style="visibility: inherit;" fill="rgb(0, 0, 0)" stroke="rgb(204, 204, 204)" stroke-width="1px"></line></g><g transform="translate(50, 0)"><text x="0" y="177" dx="0em" dy="0.3em" style="text-anchor: end; visibility: hidden; font-family: Roboto, sans-serif; font-size: 12px; font-weight: 200;" fill="rgb(255, 255, 255)" stroke="none" stroke-width="1px">0.96</text><text x="0" y="151.71428571428572" dx="0em" dy="0.3em" style="text-anchor: end; visibility: inherit; font-family: Roboto, sans-serif; font-size: 12px; font-weight: 200;" fill="rgb(255, 255, 255)" stroke="none" stroke-width="1px">0.965</text><text x="0" y="126.42857142857143" dx="0em" dy="0.3em" style="text-anchor: end; visibility: inherit; font-family: Roboto, sans-serif; font-size: 12px; font-weight: 200;" fill="rgb(255, 255, 255)" stroke="none" stroke-width="1px">0.97</text><text x="0" y="101.14285714285714" dx="0em" dy="0.3em" style="text-anchor: end; visibility: inherit; font-family: Roboto, sans-serif; font-size: 12px; font-weight: 200;" fill="rgb(255, 255, 255)" stroke="none" stroke-width="1px">0.975</text><text x="0" y="75.85714285714286" dx="0em" dy="0.3em" style="text-anchor: end; visibility: inherit; font-family: Roboto, sans-serif; font-size: 12px; font-weight: 200;" fill="rgb(255, 255, 255)" stroke="none" stroke-width="1px">0.98</text><text x="0" y="50.57142857142857" dx="0em" dy="0.3em" style="text-anchor: end; visibility: inherit; font-family: Roboto, sans-serif; font-size: 12px; font-weight: 200;" fill="rgb(255, 255, 255)" stroke="none" stroke-width="1px">0.985</text><text x="0" y="25.285714285714295" dx="0em" dy="0.3em" style="text-anchor: end; visibility: inherit; font-family: Roboto, sans-serif; font-size: 12px; font-weight: 200;" fill="rgb(255, 255, 255)" stroke="none" stroke-width="1px">0.99</text><text x="0" y="0" dx="0em" dy="0.3em" style="text-anchor: end; visibility: hidden; font-family: Roboto, sans-serif; font-size: 12px; font-weight: 200;" fill="rgb(255, 255, 255)" stroke="none" stroke-width="1px">0.995</text></g><line x1="60" y1="0" x2="60" y2="177" fill="rgb(0, 0, 0)" stroke="rgb(204, 204, 204)" stroke-width="1px"></line></g></g><g transform="translate(60, 0)" clip-path="url(#clip_0)"><clipPath id="clip_0"><rect width="270" height="177"></rect></clipPath><g><g><g><line x1="0" y1="0" x2="0" y2="177" fill="rgb(0, 0, 0)" stroke="rgb(189, 189, 189)" stroke-width="1px" opacity="0.25"></line><line x1="22.5" y1="0" x2="22.5" y2="177" fill="rgb(0, 0, 0)" stroke="rgb(189, 189, 189)" stroke-width="1px" opacity="0.25"></line><line x1="45" y1="0" x2="45" y2="177" fill="rgb(0, 0, 0)" stroke="rgb(189, 189, 189)" stroke-width="1px" opacity="0.25"></line><line x1="67.5" y1="0" x2="67.5" y2="177" fill="rgb(0, 0, 0)" stroke="rgb(189, 189, 189)" stroke-width="1px" opacity="0.25"></line><line x1="90" y1="0" x2="90" y2="177" fill="rgb(0, 0, 0)" stroke="rgb(189, 189, 189)" stroke-width="1px" opacity="0.25"></line><line x1="112.5" y1="0" x2="112.5" y2="177" fill="rgb(0, 0, 0)" stroke="rgb(189, 189, 189)" stroke-width="1px" opacity="0.25"></line><line x1="135" y1="0" x2="135" y2="177" fill="rgb(0, 0, 0)" stroke="rgb(189, 189, 189)" stroke-width="1px" opacity="0.25"></line><line x1="157.5" y1="0" x2="157.5" y2="177" fill="rgb(0, 0, 0)" stroke="rgb(189, 189, 189)" stroke-width="1px" opacity="0.25"></line><line x1="180" y1="0" x2="180" y2="177" fill="rgb(0, 0, 0)" stroke="rgb(189, 189, 189)" stroke-width="1px" opacity="0.25"></line><line x1="202.5" y1="0" x2="202.5" y2="177" fill="rgb(0, 0, 0)" stroke="rgb(189, 189, 189)" stroke-width="1px" opacity="0.25"></line><line x1="225" y1="0" x2="225" y2="177" fill="rgb(0, 0, 0)" stroke="rgb(189, 189, 189)" stroke-width="1px" opacity="0.25"></line><line x1="247.5" y1="0" x2="247.5" y2="177" fill="rgb(0, 0, 0)" stroke="rgb(189, 189, 189)" stroke-width="1px" opacity="0.25"></line><line x1="270" y1="0" x2="270" y2="177" fill="rgb(0, 0, 0)" stroke="rgb(189, 189, 189)" stroke-width="1px" opacity="0.25"></line></g><g><line x1="0" y1="177" x2="270" y2="177" fill="rgb(0, 0, 0)" stroke="rgb(189, 189, 189)" stroke-width="1px" opacity="0.25"></line><line x1="0" y1="151.71428571428572" x2="270" y2="151.71428571428572" fill="rgb(0, 0, 0)" stroke="rgb(189, 189, 189)" stroke-width="1px" opacity="0.25"></line><line x1="0" y1="126.42857142857143" x2="270" y2="126.42857142857143" fill="rgb(0, 0, 0)" stroke="rgb(189, 189, 189)" stroke-width="1px" opacity="0.25"></line><line x1="0" y1="101.14285714285714" x2="270" y2="101.14285714285714" fill="rgb(0, 0, 0)" stroke="rgb(189, 189, 189)" stroke-width="1px" opacity="0.25"></line><line x1="0" y1="75.85714285714286" x2="270" y2="75.85714285714286" fill="rgb(0, 0, 0)" stroke="rgb(189, 189, 189)" stroke-width="1px" opacity="0.25"></line><line x1="0" y1="50.57142857142857" x2="270" y2="50.57142857142857" fill="rgb(0, 0, 0)" stroke="rgb(189, 189, 189)" stroke-width="1px" opacity="0.25"></line><line x1="0" y1="25.285714285714295" x2="270" y2="25.285714285714295" fill="rgb(0, 0, 0)" stroke="rgb(189, 189, 189)" stroke-width="1px" opacity="0.25"></line><line x1="0" y1="0" x2="270" y2="0" fill="rgb(0, 0, 0)" stroke="rgb(189, 189, 189)" stroke-width="1px" opacity="0.25"></line></g></g></g><g><g><line x1="0" y1="5031.857142857139" x2="270" y2="5031.857142857139" fill="rgb(0, 0, 0)" stroke="rgb(153, 153, 153)" stroke-width="1.5px"></line></g></g><g><g><line x1="22.5" y1="0" x2="22.5" y2="177" fill="rgb(0, 0, 0)" stroke="rgb(153, 153, 153)" stroke-width="1.5px"></line></g></g><g><g><g><g><g><path stroke="rgb(187, 187, 187)" stroke-width="2px" d="M27,220.56510612794256L31.5,174.25633380989973L36,152.0829399248132L40.5,148.815724929875L45,127.92925436239358L49.5,117.07960632081236L54,101.85197000385547L58.5,91.68881840296032L63,85.99604499204189L67.5,92.41524930091026L72,86.45334779281897L76.5,82.2092841940055L81,81.0160482637695L85.5,97.16576190877068L90,94.87880360955384L94.5,87.77469644122883L99,86.88476960351363L103.5,84.32779639910737L108,76.8935623932611L112.5,75.9732581752846L117,76.6011391436118L121.5,73.77497099568517L126,69.71920311592018L130.5,67.96011401894064L135,82.07610374402084L139.5,76.55416821978181L144,72.0610953232294L148.5,99.70809273683868L153,84.94197369270121L157.5,77.09378032513212L162,77.44200340759875L166.5,69.72805110247242L171,77.74258568890892L175.5,74.12274275845775L180,69.92788534809148L184.5,77.0195694256554L189,73.52025326741678L193.5,75.97212399328289L198,73.39758422114977L202.5,69.83002925907691L207,73.08375274181763L211.5,70.48452642679281L216,68.08219458490811L220.5,66.64079548004342L225,68.30446474867446L229.5,83.46272514929737L234,84.29767720930451L238.5,75.69572764046924L243,73.56886483416774" style="fill: none;" fill="none"></path></g><g><path stroke="rgb(0, 153, 136)" stroke-width="2px" d="M36,187.46598978052683L40.5,151.25920439451946L45,125.81108856358513L49.5,109.37289002540034L54,96.55192615095596L58.5,87.72150642148448L63,81.50526129348248L67.5,75.72722832417767L72,70.54217156955386L76.5,65.7504532619804L81,61.95162801792478L85.5,58.53574816437482L90,56.402945055141885L94.5,53.269062526443626L99,51.38907253914702L103.5,47.774620013807805L108,45.985421842652165L112.5,43.352677617228366L117,41.47802525739796L121.5,39.215405689736066L126,37.18348477546675L130.5,34.531460453008854L135,32.01317344505339L139.5,31.42928059693427L144,29.646191100237907L148.5,28.4498583625875L153,27.64777937815338L157.5,26.45009507488101L162,24.720008678564632L166.5,23.555597800723262L171,22.22479396574777L175.5,21.00491365531795L180,18.924391211761932L184.5,17.591798153519402L189,17.21364035201975L193.5,16.270308739357468L198,15.451470956805688L202.5,14.749408988664067L207,13.569655359889575L211.5,12.356125550918915L216,10.574331741549843L220.5,9.336696245467696L225,8.678394553226642L229.5,8.45209332023682L234,8.18983288662411L238.5,7.863917415816007L243,6.404053481835044" style="fill: none;" fill="none"></path></g><g><path stroke="rgb(204, 51, 17)" stroke-width="2px" d="M27,187.4303502099847L31.5,161.0373590903098L36,137.7731303925767L40.5,123.16508641010824L45,111.09598241667997L49.5,98.15530533955106L54,88.39787760364534L58.5,85.0333511251638L63,81.84937515347333L67.5,75.21414984052034L72,73.27569856772564L76.5,72.62167081682956L81,75.26648789562225L85.5,68.25088432154371L90,65.0553951614699L94.5,64.99326452012883L99,63.43868530151736L103.5,72.4523617684134L108,67.40831891168267L112.5,69.43938077710422L117,65.76934621179835L121.5,64.07303801390006L126,62.04378104049817L130.5,60.320553940742435L135,60.80377687181519L139.5,60.756591336591455L144,58.53676781887447L148.5,56.19351894419403L153,54.95612941985763L157.5,55.22505127832724L162,57.24079697857868L166.5,59.967277264267345L171,59.91745262596721L175.5,59.71899863036167L180,57.239976690184L184.5,56.76403938422906L189,56.309797219592404L193.5,57.89164438643597L198,55.30064754104735L202.5,53.0718125929264L207,53.757342725545136L211.5,54.16866080490538L216,56.60696253452183L220.5,54.86707742614554L225,53.485907368251254L229.5,55.185834636642774L234,54.85719674079694L238.5,54.49145479265085L243,55.78916309122897" style="fill: none;" fill="none"></path></g><g><path stroke="rgb(0, 119, 187)" stroke-width="2px" d="M36,215.23229047455663L40.5,165.97714836164693L45,134.08852794599534L49.5,112.63985958247365L54,96.34667724362197L58.5,83.2993179727639L63,74.1564324242822L67.5,66.46448808172559L72,59.33319562105701L76.5,55.73948662532345L81,52.15226990671554L85.5,48.905589558429696L90,45.90470595521451L94.5,43.345952244438216L99,40.50445037838464L103.5,37.24028538053355L108,35.113348312066115L112.5,33.5843914785632L117,31.529188910517103L121.5,30.043243869698276L126,29.23596436028554L130.5,27.57156070171974L135,26.151522789600925L139.5,24.75162331144605L144,23.279526827586405L148.5,21.00559522980244L153,20.736871918736117L157.5,19.480002955620527L162,17.503767024197813L166.5,15.980786556936348L171,15.404237325750307L175.5,14.131111551464677L180,14.547271159240122L184.5,13.321892961397872L189,12.207468108036306L193.5,11.412333504564858L198,10.134536206159309L202.5,9.07281892351035L207,7.76155171157698L211.5,6.9325912963078995L216,6.645974346478563L220.5,6.263244877448727L225,4.937972326820349L229.5,3.889969980525882L234,2.2496927372234263L238.5,2.192722621485838L243,1.7370219537560017" style="fill: none;" fill="none"></path></g><g><path stroke="rgb(51, 187, 238)" stroke-width="2px" d="M22.5,126.00702871595097L27,114.68120317799693L31.5,132.71555094816296L36,116.26927517968156L40.5,115.74047659631744L45,106.43294188347754L49.5,100.61398154356063L54,98.25739318823993L58.5,117.64406535707089L63,108.62907411736276L67.5,109.00733678087973L72,120.89021803519842L76.5,126.14667374901067L81,120.69228499407467L85.5,118.94025571685964L90,119.40714711103391L94.5,112.10014606390739L99,127.27303851965361L103.5,122.38355603276497L108,128.38462491697803L112.5,131.479437097739L117,121.70469832267331L121.5,123.59420461262802L126,148.8337887562637L130.5,141.55733594170627L135,134.3258454519571L139.5,147.18122185326303L144,132.6430423724045L148.5,131.5057899582462L153,125.59774037774633L157.5,114.80438215959369L162,130.74831237642067L166.5,129.86327470549847L171,137.4236973309996L175.5,125.77706055111642L180,115.41765322036542L184.5,127.74484846406568L189,132.94977524330926L193.5,137.08420713626722L198,134.50760765342955L202.5,131.95029270127387L207,143.73304595179494L211.5,130.2370273341562L216,137.3108302715224L220.5,133.29510785248078L225,143.86557762326336L229.5,135.3736843748924L234,131.2899036899412L238.5,129.34531291096033L243,140.99002302586192" style="fill: none;" fill="none"></path></g><g><path stroke="rgb(255, 112, 67)" stroke-width="2px" d="M27,183.12386885711163L31.5,146.457197755141L36,126.16516379548722L40.5,109.5089492994979L45,100.42884606124771L49.5,92.70168514878505L54,88.54907008731773L58.5,83.25030202799256L63,79.893504568011L67.5,79.11902814796169L72,79.07846179606685L76.5,80.19350156604101L81,79.34324934820668L85.5,76.26160654857847L90,74.16063828877553L94.5,72.14179186798786L99,72.36372214013282L103.5,74.05619388087507L108,73.97581541329359L112.5,75.95058626301586L117,73.84823202999064L121.5,74.23036276911292L126,72.81611890396596L130.5,73.40033423749453L135,73.91954244466855L139.5,73.5989088293874L144,74.62864418372746L148.5,75.2042848875749L153,80.01685095874953L157.5,81.51371596244238L162,77.39677592099841L166.5,74.58949366844938L171,74.50655752136906L175.5,77.82822124878263L180,77.96694754082718L184.5,78.97725897939972L189,79.87848474410083L193.5,83.62208635345844L198,82.28606265362006L202.5,82.07452624425946L207,82.6218412416399L211.5,82.3180729139723L216,81.37729546941192L220.5,80.6863493089455L225,80.81965933317004L229.5,80.14112889978638L234,81.5040029232237L238.5,83.24880299580545L243,80.3763799626997" style="fill: none;" fill="none"></path></g></g></g></g><g opacity="0.2"><g><g><g><path stroke="rgb(187, 187, 187)" stroke-width="2px" d="M27,225.46419729505243L31.5,129.79991238457802L36,126.00702871595097L40.5,144.55004903248363L45,99.03574643816256L49.5,101.56443602698178L54,79.64993006842468L58.5,76.70014388220642L63,77.54293993541162L67.5,101.9858340535844L72,77.54293993541162L76.5,75.85704639979762L81,79.22853204182206L85.5,121.37134899411869L90,91.44997910090845L94.5,77.12154190880902L99,85.55010529926835L103.5,80.49272612162989L108,65.74289090292785L112.5,74.59285231998979L117,77.54293993541162L121.5,69.53577457155491L126,63.635599340711245L130.5,65.32149287632527L135,103.25002813339222L139.5,68.27127906254353L144,65.32149287632527L148.5,141.1785633904592L153,62.792803287506025L157.5,65.32149287632527L162,77.96433796201424L166.5,58.15712356567375L171,89.76438699449801L175.5,68.69297851834969L180,63.635599340711245L184.5,87.6570954322814L189,68.27127906254353L193.5,79.64993006842468L198,69.53577457155491L202.5,64.47869682312003L207,77.96433796201424L211.5,66.58568695613307L216,64.47869682312003L220.5,64.47869682312003L225,70.79996865136273L229.5,106.20011574881406L234,85.55010529926835L238.5,62.792803287506025L243,70.37857062476013" style="fill: none;" fill="none"></path></g><g><path stroke="rgb(0, 153, 136)" stroke-width="2px" d="M27,179.2125988687786L31.5,132.01240273884352L36,113.89108187811703L40.5,103.98762539454859L45,90.60718304770323L49.5,85.86600310461851L54,77.8588377407618L58.5,74.69835254124223L63,72.27486174447186L67.5,67.11258520398812L72,62.792803287506025L76.5,58.57852159227637L81,56.260832445962016L85.5,53.41594362258903L90,53.20524460928774L94.5,48.56956488745546L99,48.56956488745546L103.5,42.353491851261616L108,43.301788125719284L112.5,39.403705665043354L117,38.66610840388701L121.5,35.821521009717614L126,34.1356274741036L130.5,30.553442818777853L135,28.235753672463503L139.5,30.553442818777853L144,26.97155959265568L148.5,26.65536035810193L153,26.44466134480064L157.5,24.65356901713776L162,22.124879428318522L166.5,21.808981622968364L171,20.228588308606792L175.5,19.17509324210026L180,15.803607600075827L184.5,15.592908586774517L189,16.646403653281048L193.5,14.855311325618166L198,14.223214285714255L202.5,13.696316037859193L207,11.800024918147463L211.5,10.535830838339642L216,7.901641028267965L220.5,7.480243001665365L225,7.690942014966656L229.5,8.112641470772848L234,7.7964422362190975L238.5,7.3750442096164965L243,4.214257580893352" style="fill: none;" fill="none"></path></g><g><path stroke="rgb(204, 51, 17)" stroke-width="2px" d="M22.5,236.421450274331L27,158.03569017137784L31.5,135.7000876154217L36,110.4143974440437L40.5,104.09282418659744L45,94.40006671633029L49.5,79.64993006842468L54,74.17145429338719L58.5,80.07132809502728L63,77.12154190880902L67.5,65.32149287632527L72,70.37857062476013L76.5,71.64276470456795L81,79.22853204182206L85.5,57.73572553907115L90,60.26441512789038L94.5,64.90009484972263L99,61.107211181095586L103.5,85.97150332587096L108,59.84271567208419L112.5,72.48586218697675L117,60.26441512789038L121.5,61.5286092076982L126,58.99991961887897L130.5,57.73572553907115L135,61.5286092076982L139.5,60.68581315449298L144,55.207035950251914L148.5,52.678647790636276L153,53.10004581723887L157.5,55.62843397685452L162,60.26441512789038L166.5,64.05699736731384L171,59.84271567208419L175.5,59.42131764548157L180,53.521443843841475L184.5,56.05013343266071L189,55.62843397685452L193.5,60.26441512789038L198,51.41415228162486L202.5,49.72856017521442L207,54.78563792364931L211.5,54.78563792364931L216,60.26441512789038L220.5,52.25724976403365L225,51.41415228162486L229.5,57.73572553907115L234,54.364239897046694L238.5,53.94284187044409L243,57.73572553907115" style="fill: none;" fill="none"></path></g><g><path stroke="rgb(0, 119, 187)" stroke-width="2px" d="M27,213.1375514439172L31.5,147.71083566120677L36,120.31785392761219L40.5,101.66963481903065L45,89.97508600779932L49.5,81.9679206439426L54,72.59106097902561L58.5,64.05699736731384L63,60.58031293324054L67.5,54.996336936950605L72,48.675065108707905L76.5,50.36065721511835L81,46.77847255979258L85.5,44.03938538687563L90,41.40549700600755L94.5,39.50890445709223L99,36.24291903632023L103.5,32.344535146440734L108,31.923137119838117L112.5,31.291040079934206L117,28.44645268576481L121.5,27.814355645860903L126,28.025054659162194L130.5,25.074967043740358L135,24.021471977233848L139.5,22.651777676173584L144,21.07138436181201L148.5,17.594699927738688L153,20.333787100655663L157.5,17.594699927738688L162,14.539413520267987L166.5,13.696316037859193L171,14.539413520267987L175.5,12.221422944750062L180,15.171510560171917L184.5,11.483825683593711L189,10.535830838339642L193.5,10.21963160378589L198,8.217840262821717L202.5,7.480243001665365L207,5.794650895254924L211.5,5.689150674002483L216,6.216048921857525L220.5,5.689150674002483L225,2.9500635010855314L229.5,2.317966461181621L234,-0.21072312763761314L238.5,2.107267447880311L243,1.0534709521702077" style="fill: none;" fill="none"></path></g><g><path stroke="rgb(51, 187, 238)" stroke-width="2px" d="M22.5,126.00702871595097L27,107.8857078552245L31.5,150.02852480752114L36,96.92845487594593L40.5,115.05007716587598L45,93.55727066312507L49.5,92.29277515411366L54,94.8214647429329L58.5,146.23564113889407L63,95.2428627695355L67.5,109.57129996163494L72,138.64987380163996L76.5,134.01419407980768L81,112.52138757705677L85.5,116.3142712456838L90,120.10715491431088L94.5,101.1427365711756L99,150.02852480752114L103.5,115.05007716587598L108,137.38567972183213L112.5,136.1214856420243L117,107.04291180201928L121.5,126.42842674255357L126,186.69286598478027L130.5,130.64270843778326L135,123.47864055633534L139.5,166.46425356183715L144,110.83579547064633L148.5,129.79991238457802L153,116.73566927228642L157.5,98.61434841155994L162,154.6642045293534L166.5,128.5357183047702L171,148.76433072771331L175.5,108.30710588182711L180,99.87854249136777L184.5,146.23564113889407L189,140.7571653638566L193.5,143.2858549526758L198,130.64270843778326L202.5,128.11432027816758L207,161.4071758134023L211.5,109.99299941744113L216,147.92153467450808L220.5,127.27152422496236L225,159.72128227778828L229.5,122.63584450313009L234,125.16423266274575L238.5,126.42842674255357L243,158.45708819798043" style="fill: none;" fill="none"></path></g><g><path stroke="rgb(255, 112, 67)" stroke-width="2px" d="M22.5,269.7143058095657L27,131.16960668563829L31.5,111.25719349724895L36,102.30173185893457L40.5,87.76259565353384L45,87.8677944455827L49.5,81.65172140938886L54,82.49451746259408L58.5,75.43564837319501L63,74.90905155454354L67.5,77.96433796201424L72,79.01783302852076L76.5,81.86242042269016L81,78.06953675406311L85.5,71.64276470456795L90,71.01066766466404L94.5,69.11437654495231L99,72.69656120027805L103.5,76.59464366095398L108,73.85525505883344L112.5,78.9126342364719L117,70.69476985931388L121.5,74.8035513332911L126,70.69476985931388L130.5,74.27665308543605L135,74.69835254124223L139.5,73.11795922688066L144,76.17324563435136L148.5,76.06774541309892L153,87.23569740567878L157.5,83.75901297160547L162,71.22136667796535L166.5,70.37857062476013L171,74.3821533066885L175.5,82.81071669714781L180,78.17503697531555L184.5,80.49272612162989L189,81.23032338278624L193.5,89.23748874664297L198,80.28202710832859L202.5,81.7572216306413L207,83.44281373705174L211.5,81.86242042269016L216,79.96612930297842L220.5,79.64993006842468L225,81.01962436948494L229.5,79.1233332497732L234,83.54831395830418L238.5,85.86600310461851L243,76.06774541309892" style="fill: none;" fill="none"></path></g></g></g></g></g></g><g transform="translate(60, 177)" clip-path="url(#clip_1)"><clipPath id="clip_1"><rect width="270" height="23"></rect></clipPath><g><g><line x1="0" y1="0" x2="0" y2="5" style="visibility: inherit;" fill="rgb(0, 0, 0)" stroke="rgb(204, 204, 204)" stroke-width="1px"></line><line x1="22.5" y1="0" x2="22.5" y2="5" style="visibility: inherit;" fill="rgb(0, 0, 0)" stroke="rgb(204, 204, 204)" stroke-width="1px"></line><line x1="45" y1="0" x2="45" y2="5" style="visibility: inherit;" fill="rgb(0, 0, 0)" stroke="rgb(204, 204, 204)" stroke-width="1px"></line><line x1="67.5" y1="0" x2="67.5" y2="5" style="visibility: inherit;" fill="rgb(0, 0, 0)" stroke="rgb(204, 204, 204)" stroke-width="1px"></line><line x1="90" y1="0" x2="90" y2="5" style="visibility: inherit;" fill="rgb(0, 0, 0)" stroke="rgb(204, 204, 204)" stroke-width="1px"></line><line x1="112.5" y1="0" x2="112.5" y2="5" style="visibility: inherit;" fill="rgb(0, 0, 0)" stroke="rgb(204, 204, 204)" stroke-width="1px"></line><line x1="135" y1="0" x2="135" y2="5" style="visibility: inherit;" fill="rgb(0, 0, 0)" stroke="rgb(204, 204, 204)" stroke-width="1px"></line><line x1="157.5" y1="0" x2="157.5" y2="5" style="visibility: inherit;" fill="rgb(0, 0, 0)" stroke="rgb(204, 204, 204)" stroke-width="1px"></line><line x1="180" y1="0" x2="180" y2="5" style="visibility: inherit;" fill="rgb(0, 0, 0)" stroke="rgb(204, 204, 204)" stroke-width="1px"></line><line x1="202.5" y1="0" x2="202.5" y2="5" style="visibility: inherit;" fill="rgb(0, 0, 0)" stroke="rgb(204, 204, 204)" stroke-width="1px"></line><line x1="225" y1="0" x2="225" y2="5" style="visibility: inherit;" fill="rgb(0, 0, 0)" stroke="rgb(204, 204, 204)" stroke-width="1px"></line><line x1="247.5" y1="0" x2="247.5" y2="5" style="visibility: inherit;" fill="rgb(0, 0, 0)" stroke="rgb(204, 204, 204)" stroke-width="1px"></line><line x1="270" y1="0" x2="270" y2="5" style="visibility: inherit;" fill="rgb(0, 0, 0)" stroke="rgb(204, 204, 204)" stroke-width="1px"></line></g><g transform="translate(0, 8)"><text x="0" y="0" dx="0em" dy="0.95em" style="text-anchor: middle; visibility: hidden; font-family: Roboto, sans-serif; font-size: 12px; font-weight: 200;" fill="rgb(255, 255, 255)" stroke="none" stroke-width="1px">-5</text><text x="22.5" y="0" dx="0em" dy="0.95em" style="text-anchor: middle; visibility: inherit; font-family: Roboto, sans-serif; font-size: 12px; font-weight: 200;" fill="rgb(255, 255, 255)" stroke="none" stroke-width="1px">0</text><text x="45" y="0" dx="0em" dy="0.95em" style="text-anchor: middle; visibility: inherit; font-family: Roboto, sans-serif; font-size: 12px; font-weight: 200;" fill="rgb(255, 255, 255)" stroke="none" stroke-width="1px">5</text><text x="67.5" y="0" dx="0em" dy="0.95em" style="text-anchor: middle; visibility: inherit; font-family: Roboto, sans-serif; font-size: 12px; font-weight: 200;" fill="rgb(255, 255, 255)" stroke="none" stroke-width="1px">10</text><text x="90" y="0" dx="0em" dy="0.95em" style="text-anchor: middle; visibility: inherit; font-family: Roboto, sans-serif; font-size: 12px; font-weight: 200;" fill="rgb(255, 255, 255)" stroke="none" stroke-width="1px">15</text><text x="112.5" y="0" dx="0em" dy="0.95em" style="text-anchor: middle; visibility: inherit; font-family: Roboto, sans-serif; font-size: 12px; font-weight: 200;" fill="rgb(255, 255, 255)" stroke="none" stroke-width="1px">20</text><text x="135" y="0" dx="0em" dy="0.95em" style="text-anchor: middle; visibility: inherit; font-family: Roboto, sans-serif; font-size: 12px; font-weight: 200;" fill="rgb(255, 255, 255)" stroke="none" stroke-width="1px">25</text><text x="157.5" y="0" dx="0em" dy="0.95em" style="text-anchor: middle; visibility: inherit; font-family: Roboto, sans-serif; font-size: 12px; font-weight: 200;" fill="rgb(255, 255, 255)" stroke="none" stroke-width="1px">30</text><text x="180" y="0" dx="0em" dy="0.95em" style="text-anchor: middle; visibility: inherit; font-family: Roboto, sans-serif; font-size: 12px; font-weight: 200;" fill="rgb(255, 255, 255)" stroke="none" stroke-width="1px">35</text><text x="202.5" y="0" dx="0em" dy="0.95em" style="text-anchor: middle; visibility: inherit; font-family: Roboto, sans-serif; font-size: 12px; font-weight: 200;" fill="rgb(255, 255, 255)" stroke="none" stroke-width="1px">40</text><text x="225" y="0" dx="0em" dy="0.95em" style="text-anchor: middle; visibility: inherit; font-family: Roboto, sans-serif; font-size: 12px; font-weight: 200;" fill="rgb(255, 255, 255)" stroke="none" stroke-width="1px">45</text><text x="247.5" y="0" dx="0em" dy="0.95em" style="text-anchor: middle; visibility: inherit; font-family: Roboto, sans-serif; font-size: 12px; font-weight: 200;" fill="rgb(255, 255, 255)" stroke="none" stroke-width="1px">50</text><text x="270" y="0" dx="0em" dy="0.95em" style="text-anchor: middle; visibility: hidden; font-family: Roboto, sans-serif; font-size: 12px; font-weight: 200;" fill="rgb(255, 255, 255)" stroke="none" stroke-width="1px">55</text></g><line x1="0" y1="0" x2="270" y2="0" fill="rgb(0, 0, 0)" stroke="rgb(204, 204, 204)" stroke-width="1px"></line></g></g></g></g></svg>