<svg viewBox="0 0 1496 400" xmlns="http://www.w3.org/2000/svg"><g><g><g><g><g><line x1="60" y1="377" x2="55" y2="377" style="visibility: inherit;" fill="rgb(0, 0, 0)" stroke="rgb(204, 204, 204)" stroke-width="1px"></line><line x1="60" y1="335.11111111111103" x2="55" y2="335.11111111111103" style="visibility: inherit;" fill="rgb(0, 0, 0)" stroke="rgb(204, 204, 204)" stroke-width="1px"></line><line x1="60" y1="293.222222222222" x2="55" y2="293.222222222222" style="visibility: inherit;" fill="rgb(0, 0, 0)" stroke="rgb(204, 204, 204)" stroke-width="1px"></line><line x1="60" y1="251.33333333333303" x2="55" y2="251.33333333333303" style="visibility: inherit;" fill="rgb(0, 0, 0)" stroke="rgb(204, 204, 204)" stroke-width="1px"></line><line x1="60" y1="209.44444444444403" x2="55" y2="209.44444444444403" style="visibility: inherit;" fill="rgb(0, 0, 0)" stroke="rgb(204, 204, 204)" stroke-width="1px"></line><line x1="60" y1="167.55555555555503" x2="55" y2="167.55555555555503" style="visibility: inherit;" fill="rgb(0, 0, 0)" stroke="rgb(204, 204, 204)" stroke-width="1px"></line><line x1="60" y1="125.66666666666605" x2="55" y2="125.66666666666605" style="visibility: inherit;" fill="rgb(0, 0, 0)" stroke="rgb(204, 204, 204)" stroke-width="1px"></line><line x1="60" y1="83.77777777777706" x2="55" y2="83.77777777777706" style="visibility: inherit;" fill="rgb(0, 0, 0)" stroke="rgb(204, 204, 204)" stroke-width="1px"></line><line x1="60" y1="41.88888888888807" x2="55" y2="41.88888888888807" style="visibility: inherit;" fill="rgb(0, 0, 0)" stroke="rgb(204, 204, 204)" stroke-width="1px"></line></g><g transform="translate(50, 0)"><text x="0" y="377" dx="0em" dy="0.3em" style="text-anchor: end; visibility: hidden; font-family: Roboto, sans-serif; font-size: 12px; font-weight: 200;" fill="rgb(33, 33, 33)" stroke="none" stroke-width="1px">0.96</text><text x="0" y="335.11111111111103" dx="0em" dy="0.3em" style="text-anchor: end; visibility: inherit; font-family: Roboto, sans-serif; font-size: 12px; font-weight: 200;" fill="rgb(33, 33, 33)" stroke="none" stroke-width="1px">0.965</text><text x="0" y="293.222222222222" dx="0em" dy="0.3em" style="text-anchor: end; visibility: inherit; font-family: Roboto, sans-serif; font-size: 12px; font-weight: 200;" fill="rgb(33, 33, 33)" stroke="none" stroke-width="1px">0.97</text><text x="0" y="251.33333333333303" dx="0em" dy="0.3em" style="text-anchor: end; visibility: inherit; font-family: Roboto, sans-serif; font-size: 12px; font-weight: 200;" fill="rgb(33, 33, 33)" stroke="none" stroke-width="1px">0.975</text><text x="0" y="209.44444444444403" dx="0em" dy="0.3em" style="text-anchor: end; visibility: inherit; font-family: Roboto, sans-serif; font-size: 12px; font-weight: 200;" fill="rgb(33, 33, 33)" stroke="none" stroke-width="1px">0.98</text><text x="0" y="167.55555555555503" dx="0em" dy="0.3em" style="text-anchor: end; visibility: inherit; font-family: Roboto, sans-serif; font-size: 12px; font-weight: 200;" fill="rgb(33, 33, 33)" stroke="none" stroke-width="1px">0.985</text><text x="0" y="125.66666666666605" dx="0em" dy="0.3em" style="text-anchor: end; visibility: inherit; font-family: Roboto, sans-serif; font-size: 12px; font-weight: 200;" fill="rgb(33, 33, 33)" stroke="none" stroke-width="1px">0.99</text><text x="0" y="83.77777777777706" dx="0em" dy="0.3em" style="text-anchor: end; visibility: inherit; font-family: Roboto, sans-serif; font-size: 12px; font-weight: 200;" fill="rgb(33, 33, 33)" stroke="none" stroke-width="1px">0.995</text><text x="0" y="41.88888888888807" dx="0em" dy="0.3em" style="text-anchor: end; visibility: inherit; font-family: Roboto, sans-serif; font-size: 12px; font-weight: 200;" fill="rgb(33, 33, 33)" stroke="none" stroke-width="1px">1</text></g><line x1="60" y1="0" x2="60" y2="377" fill="rgb(0, 0, 0)" stroke="rgb(204, 204, 204)" stroke-width="1px"></line></g></g><g transform="translate(60, 0)" clip-path="url(#clip_0)"><clipPath id="clip_0"><rect width="1436" height="377"></rect></clipPath><g><g><g><line x1="0" y1="0" x2="0" y2="377" fill="rgb(0, 0, 0)" stroke="rgb(66, 66, 66)" stroke-width="1px" opacity="0.25"></line><line x1="119.66666666666666" y1="0" x2="119.66666666666666" y2="377" fill="rgb(0, 0, 0)" stroke="rgb(66, 66, 66)" stroke-width="1px" opacity="0.25"></line><line x1="239.33333333333331" y1="0" x2="239.33333333333331" y2="377" fill="rgb(0, 0, 0)" stroke="rgb(66, 66, 66)" stroke-width="1px" opacity="0.25"></line><line x1="359" y1="0" x2="359" y2="377" fill="rgb(0, 0, 0)" stroke="rgb(66, 66, 66)" stroke-width="1px" opacity="0.25"></line><line x1="478.66666666666663" y1="0" x2="478.66666666666663" y2="377" fill="rgb(0, 0, 0)" stroke="rgb(66, 66, 66)" stroke-width="1px" opacity="0.25"></line><line x1="598.3333333333334" y1="0" x2="598.3333333333334" y2="377" fill="rgb(0, 0, 0)" stroke="rgb(66, 66, 66)" stroke-width="1px" opacity="0.25"></line><line x1="718" y1="0" x2="718" y2="377" fill="rgb(0, 0, 0)" stroke="rgb(66, 66, 66)" stroke-width="1px" opacity="0.25"></line><line x1="837.6666666666667" y1="0" x2="837.6666666666667" y2="377" fill="rgb(0, 0, 0)" stroke="rgb(66, 66, 66)" stroke-width="1px" opacity="0.25"></line><line x1="957.3333333333333" y1="0" x2="957.3333333333333" y2="377" fill="rgb(0, 0, 0)" stroke="rgb(66, 66, 66)" stroke-width="1px" opacity="0.25"></line><line x1="1077" y1="0" x2="1077" y2="377" fill="rgb(0, 0, 0)" stroke="rgb(66, 66, 66)" stroke-width="1px" opacity="0.25"></line><line x1="1196.6666666666667" y1="0" x2="1196.6666666666667" y2="377" fill="rgb(0, 0, 0)" stroke="rgb(66, 66, 66)" stroke-width="1px" opacity="0.25"></line><line x1="1316.3333333333333" y1="0" x2="1316.3333333333333" y2="377" fill="rgb(0, 0, 0)" stroke="rgb(66, 66, 66)" stroke-width="1px" opacity="0.25"></line><line x1="1436" y1="0" x2="1436" y2="377" fill="rgb(0, 0, 0)" stroke="rgb(66, 66, 66)" stroke-width="1px" opacity="0.25"></line></g><g><line x1="0" y1="377" x2="1436" y2="377" fill="rgb(0, 0, 0)" stroke="rgb(66, 66, 66)" stroke-width="1px" opacity="0.25"></line><line x1="0" y1="335.11111111111103" x2="1436" y2="335.11111111111103" fill="rgb(0, 0, 0)" stroke="rgb(66, 66, 66)" stroke-width="1px" opacity="0.25"></line><line x1="0" y1="293.222222222222" x2="1436" y2="293.222222222222" fill="rgb(0, 0, 0)" stroke="rgb(66, 66, 66)" stroke-width="1px" opacity="0.25"></line><line x1="0" y1="251.33333333333303" x2="1436" y2="251.33333333333303" fill="rgb(0, 0, 0)" stroke="rgb(66, 66, 66)" stroke-width="1px" opacity="0.25"></line><line x1="0" y1="209.44444444444403" x2="1436" y2="209.44444444444403" fill="rgb(0, 0, 0)" stroke="rgb(66, 66, 66)" stroke-width="1px" opacity="0.25"></line><line x1="0" y1="167.55555555555503" x2="1436" y2="167.55555555555503" fill="rgb(0, 0, 0)" stroke="rgb(66, 66, 66)" stroke-width="1px" opacity="0.25"></line><line x1="0" y1="125.66666666666605" x2="1436" y2="125.66666666666605" fill="rgb(0, 0, 0)" stroke="rgb(66, 66, 66)" stroke-width="1px" opacity="0.25"></line><line x1="0" y1="83.77777777777706" x2="1436" y2="83.77777777777706" fill="rgb(0, 0, 0)" stroke="rgb(66, 66, 66)" stroke-width="1px" opacity="0.25"></line><line x1="0" y1="41.88888888888807" x2="1436" y2="41.88888888888807" fill="rgb(0, 0, 0)" stroke="rgb(66, 66, 66)" stroke-width="1px" opacity="0.25"></line></g></g></g><g><g><line x1="0" y1="8419.666666666679" x2="1436" y2="8419.666666666679" fill="rgb(0, 0, 0)" stroke="rgb(153, 153, 153)" stroke-width="1.5px"></line></g></g><g><g><line x1="119.66666666666666" y1="0" x2="119.66666666666666" y2="377" fill="rgb(0, 0, 0)" stroke="rgb(153, 153, 153)" stroke-width="1.5px"></line></g></g><g><g><g><g><g><path stroke="rgb(0, 119, 187)" stroke-width="2px" d="M119.66666666666666,280.6557273334923L143.6,215.64071183072141L167.53333333333333,204.999143272841L191.46666666666667,185.22479249527314L215.4,168.17418579768815L239.33333333333331,160.59153463776L263.26666666666665,152.25253576941196L287.2,147.4010893772901L311.1333333333333,140.3114752123801L335.06666666666666,138.6323515818579L359,135.9496638556139L382.93333333333334,135.18583830626915L406.8666666666667,131.93236646924302L430.8,131.65995300684608L454.7333333333333,130.93790086835037L478.66666666666663,130.50488692533395L502.59999999999997,131.64158821686462L526.5333333333333,130.08914702851456L550.4666666666667,128.04075908581683L574.4,128.4875013286522L598.3333333333334,128.75553622061798L622.2666666666667,130.03332416942447L646.2,128.84509786336886L670.1333333333333,128.69084851192952L694.0666666666667,129.4360188067726L718,130.162359122901L741.9333333333334,131.71511973784027L765.8666666666667,131.25057913850807L789.8000000000001,133.76444591979867L813.7333333333333,129.687584302298L837.6666666666667,129.47558009681623L861.6,128.78969976775767L885.5333333333334,128.37817160525728L909.4666666666666,126.45582055978406L933.4,127.5365218980058L957.3333333333333,127.34702588234691L981.2666666666667,126.67485023322813L1005.1999999999999,126.2715448464196L1029.1333333333334,125.47108357653343L1053.0666666666666,125.54928485400387L1077,124.75848856347471L1100.9333333333334,124.56324980845484L1124.8666666666666,125.84230164969756L1148.8,125.77201569778593L1172.7333333333333,125.45060510785994L1196.6666666666667,125.81623679147853L1220.6,125.47713776409599L1244.5333333333333,125.27367834767485L1268.4666666666667,125.43084171658697L1292.4,124.68742268165131" style="fill: none;" fill="none"></path></g><g><path stroke="rgb(255, 112, 67)" stroke-width="2px" d="M119.66666666666666,439.3096303409989L143.6,270.2269589371147L167.53333333333333,198.34169854490574L191.46666666666667,152.10961625233253L215.4,122.01808921240521L239.33333333333331,97.91785593416961L263.26666666666665,81.61233531854302L287.2,69.71206262746432L311.1333333333333,59.7388618306689L335.06666666666666,53.398250457908844L359,50.038893767539584L382.93333333333334,47.331476395283616L406.8666666666667,45.361397467881005L430.8,44.11103370855488L454.7333333333333,43.29170016794385L478.66666666666663,42.73041731225944L502.59999999999997,42.4636704171552L526.5333333333333,42.23373445356249L550.4666666666667,42.09578782178091L574.4,42.013025222690956L598.3333333333334,41.96336959987757L622.2666666666667,41.93357692334499L646.2,41.915701568395086L670.1333333333333,41.904976445773116L694.0666666666667,41.898541404723055L718,41.8946803918029L741.9333333333334,41.89236378826608L765.8666666666667,41.89097382766177L789.8000000000001,41.89013985184555L813.7333333333333,42.02925900679679L837.6666666666667,41.97311095218562L861.6,41.9394221241858L885.5333333333334,41.91920882910126L909.4666666666666,41.90708085266812L933.4,41.899804067031646L957.3333333333333,41.89543799572939L981.2666666666667,41.89281835297594L1005.1999999999999,41.89124656733462L1029.1333333333334,41.89030349595451L1053.0666666666666,41.88973765312683L1077,41.88939814743149L1100.9333333333334,41.889194444013775L1124.8666666666666,41.88907222196329L1148.8,41.888998888733404L1172.7333333333333,41.88895488879562L1196.6666666666667,41.8889284888328L1220.6,41.88891264885454L1244.5333333333333,41.88890314486792L1268.4666666666667,41.888897442475994L1292.4,41.88889402104007" style="fill: none;" fill="none"></path></g><g><path stroke="rgb(0, 153, 136)" stroke-width="2px" d="M119.66666666666666,296.7129696210221L143.6,217.29875592390735L167.53333333333333,179.80889119366654L191.46666666666667,214.28280180342054L215.4,188.26258225411212L239.33333333333331,172.8371371551084L263.26666666666665,150.5524998487798L287.2,136.45175016503867L311.1333333333333,130.9654393595116L335.06666666666666,124.33779947781444L359,118.70522167195888L382.93333333333334,116.17832637011769L406.8666666666667,114.66571411348613L430.8,113.20049609272208L454.7333333333333,111.7633597286627L478.66666666666663,111.4601461277924L502.59999999999997,112.11613159986129L526.5333333333333,111.95111705028944L550.4666666666667,112.68988715336677L574.4,111.17837580297926L598.3333333333334,110.5507495065496L622.2666666666667,109.05701201925078L646.2,108.99870552529626L670.1333333333333,108.12580115517298L694.0666666666667,108.43998036053326L718,108.907726807179L741.9333333333334,109.18837416451596L765.8666666666667,111.31163646865427L789.8000000000001,110.909958544919L813.7333333333333,110.38971280490715L837.6666666666667,110.63604354610192L861.6,110.78384196990929L885.5333333333334,110.87252101666442L909.4666666666666,110.36725038849147L933.4,110.34332704441056L957.3333333333333,110.04973401658634L981.2666666666667,110.15281722231515L1005.1999999999999,110.21466714534543L1029.1333333333334,109.41406004087567L1053.0666666666666,109.77141283672896L1077,109.70658549495506L1100.9333333333334,109.66768908992233L1124.8666666666666,108.80663419039745L1148.8,108.84847928845566L1172.7333333333333,110.26978144122192L1196.6666666666667,110.56408469523744L1220.6,111.29914468517084L1244.5333333333333,111.18170264158499L1268.4666666666667,111.39047643419669L1292.4,111.23650169100071" style="fill: none;" fill="none"></path></g><g><path stroke="rgb(238, 51, 119)" stroke-width="2px" d="M119.66666666666666,377.6982773145037L143.6,225.19635893901224L167.53333333333333,160.96947000788978L191.46666666666667,122.20684054493833L215.4,96.53076788626983L239.33333333333331,78.80373608734378L263.26666666666665,66.34191643328339L287.2,57.174739212657485L311.1333333333333,51.70335771056728L335.06666666666666,48.03462578160245L359,45.567379929200335L382.93333333333334,44.092773616100274L406.8666666666667,43.21006684891622L430.8,42.68118120809351L454.7333333333333,42.364115200735924L478.66666666666663,42.17397103423775L502.59999999999997,42.05991887087617L526.5333333333333,41.99149992945686L550.4666666666667,41.950453011995556L574.4,41.925826462366274L598.3333333333334,41.91105110884968L622.2666666666667,41.902186104180714L646.2,41.89686717605922L670.1333333333333,41.89367584606888L694.0666666666667,41.89176105775198L718,41.890612188247225L741.9333333333334,41.88992286779798L765.8666666666667,41.88950927598044L789.8000000000001,41.88926112105162L813.7333333333333,41.88911222815289L837.6666666666667,41.88902289243505L861.6,41.888969291012735L885.5333333333334,41.88893713015988L909.4666666666666,41.888917833651355L933.4,41.88890625574601L957.3333333333333,41.888899309003016L981.2666666666667,41.888895140956855L1005.1999999999999,41.88889264012879L1029.1333333333334,41.888891139632875L1053.0666666666666,41.88889023933419L1077,41.88888969915574L1100.9333333333334,41.888889375047924L1124.8666666666666,41.88888918058397L1148.8,41.888889063906L1172.7333333333333,41.88888899389865L1196.6666666666667,41.888888951894394L1220.6,41.88888892669188L1244.5333333333333,41.88888891156998L1268.4666666666667,41.88888890249756L1292.4,41.8888888970536" style="fill: none;" fill="none"></path></g><g><path stroke="rgb(204, 51, 17)" stroke-width="2px" d="M119.66666666666666,614.3703237639534L143.6,334.6747077637245L167.53333333333333,245.49162387415282L191.46666666666667,205.5045119128593L215.4,177.53835108605801L239.33333333333331,157.5318561879862L263.26666666666665,144.41866293410084L287.2,136.5056858199972L311.1333333333333,135.51109094204043L335.06666666666666,130.14464533495664L359,125.82439726553598L382.93333333333334,121.56321237213562L406.8666666666667,118.73284142846047L430.8,117.31644459435847L454.7333333333333,116.18794681996928L478.66666666666663,114.67303458659114L502.59999999999997,114.60241946523578L526.5333333333333,114.28059089976338L550.4666666666667,112.97049053810127L574.4,113.0222291012628L598.3333333333334,111.37780016121212L622.2666666666667,110.94965127308379L646.2,110.97200677088466L670.1333333333333,111.54390064038357L694.0666666666667,112.72495440806307L718,112.59566629229805L741.9333333333334,112.23885425942733L765.8666666666667,112.30400646366763L789.8000000000001,111.78461951731349L813.7333333333333,111.47298747197955L837.6666666666667,110.72753017727496L861.6,110.00101682275584L885.5333333333334,109.00663078286341L909.4666666666666,109.80619432311074L933.4,111.40288852683231L957.3333333333333,110.96470992330654L981.2666666666667,110.98104178456892L1005.1999999999999,110.71160188146752L1029.1333333333334,109.99145990148715L1053.0666666666666,109.28013569539293L1077,109.13258019132925L1100.9333333333334,110.16100296453453L1124.8666666666666,110.49881760930347L1148.8,109.30531130206965L1172.7333333333333,108.86844653664876L1196.6666666666667,109.44404473375252L1220.6,109.51016463322293L1244.5333333333333,108.99135853537365L1268.4666666666667,109.5177919329577L1292.4,108.15801811715386" style="fill: none;" fill="none"></path></g><g><path stroke="rgb(0, 119, 187)" stroke-width="2px" d="M119.66666666666666,372.6368204222782L143.6,226.35280146863764L167.53333333333333,164.0293511360415L191.46666666666667,128.3521922074885L215.4,103.49294357779912L239.33333333333331,84.67551152620555L263.26666666666665,71.5212310805203L287.2,60.88605898734153L311.1333333333333,54.47920015676209L335.06666666666666,50.46605589210634L359,47.58320824193143L382.93333333333334,45.580359754262375L406.8666666666667,44.24164245979606L430.8,43.29980296678744L454.7333333333333,42.73517185455671L478.66666666666663,42.39656314305004L502.59999999999997,42.193459062649666L526.5333333333333,42.07161861903508L550.4666666666667,41.99852227277901L574.4,41.95466731581524L598.3333333333334,41.928355367840986L622.2666666666667,41.91256856847058L646.2,41.90309662183545L670.1333333333333,41.89741350172784L694.0666666666667,41.89400364689656L718,41.891957740203175L741.9333333333334,41.89073019842051L765.8666666666667,41.88999367415456L789.8000000000001,41.889551759886515L813.7333333333333,41.889286611428524L837.6666666666667,41.88912752239058L861.6,41.889032068982125L885.5333333333334,41.88897479694098L909.4666666666666,41.8889404337198L933.4,41.88891981578674L957.3333333333333,41.88890744502653L981.2666666666667,41.88890002257076L1005.1999999999999,41.88889556909766L1029.1333333333334,41.88889289701401L1053.0666666666666,41.88889129376307L1077,41.88889033181325L1100.9333333333334,41.888889754642996L1124.8666666666666,41.88888940834064L1148.8,41.88888920055926L1172.7333333333333,41.88888907589058L1196.6666666666667,41.88888900109032L1220.6,41.88888895620923L1244.5333333333333,41.888888929280384L1268.4666666666667,41.888888913123274L1292.4,41.88888890342864" style="fill: none;" fill="none"></path></g><g><path style="fill: none;" fill="none" stroke="none" stroke-width="1px"></path></g><g><path style="fill: none;" fill="none" stroke="none" stroke-width="1px"></path></g></g></g></g><g opacity="0.2"><g><g><g><path stroke="rgb(0, 119, 187)" stroke-width="2px" d="M119.66666666666666,280.6557273334923L143.6,176.63170252905888L167.53333333333333,194.7832374572748L191.46666666666667,161.9701559808513L215.4,145.9129136933214L239.33333333333331,150.10199832916192L263.26666666666665,140.32763396369018L287.2,140.32763396369018L311.1333333333333,129.85567140579155L335.06666666666666,136.1390486823181L359,131.9499640464776L382.93333333333334,134.04425668716362L406.8666666666667,127.0627818637417L430.8,131.25186649958223L454.7333333333333,129.85567140579155L478.66666666666663,129.85567140579155L502.59999999999997,133.34615914026827L526.5333333333333,127.76087941063705L550.4666666666667,124.96848922305567L574.4,129.1575738588962L598.3333333333334,129.1575738588962L622.2666666666667,131.9499640464776L646.2,127.0627818637417L670.1333333333333,128.45947631200087L694.0666666666667,130.5537689526869L718,131.25186649958223L741.9333333333334,134.04425668716362L765.8666666666667,130.5537689526869L789.8000000000001,137.5352437761088L813.7333333333333,123.57229412926498L837.6666666666667,129.1575738588962L861.6,127.76087941063705L885.5333333333334,127.76087941063705L909.4666666666666,123.57229412926498L933.4,129.1575738588962L957.3333333333333,127.0627818637417L981.2666666666667,125.66658676995101L1005.1999999999999,125.66658676995101L1029.1333333333334,124.27039167616034L1053.0666666666666,125.66658676995101L1077,123.57229412926498L1100.9333333333334,124.27039167616034L1124.8666666666666,127.76087941063705L1148.8,125.66658676995101L1172.7333333333333,124.96848922305567L1196.6666666666667,126.36468431684638L1220.6,124.96848922305567L1244.5333333333333,124.96848922305567L1268.4666666666667,125.66658676995101L1292.4,123.57229412926498" style="fill: none;" fill="none"></path></g><g><path stroke="rgb(255, 112, 67)" stroke-width="2px" d="M119.66666666666666,439.30963034099983L143.6,168.77735609478356L167.53333333333333,129.33184856838582L191.46666666666667,97.74068747626335L215.4,82.73059150907652L239.33333333333331,64.57855722639215L263.26666666666665,58.2951799498656L287.2,52.36135080125514L311.1333333333333,45.03032784991712L335.06666666666666,43.983181529574104L359,45.03032784991712L382.93333333333334,43.28508398267878L406.8666666666667,42.41271172629378L430.8,42.23793766233572L454.7333333333333,42.06366295284614L478.66666666666663,41.88888888888807L502.59999999999997,42.06366295284614L526.5333333333333,41.88888888888807L550.4666666666667,41.88888888888807L574.4,41.88888888888807L598.3333333333334,41.88888888888807L622.2666666666667,41.88888888888807L646.2,41.88888888888807L670.1333333333333,41.88888888888807L694.0666666666667,41.88888888888807L718,41.88888888888807L741.9333333333334,41.88888888888807L765.8666666666667,41.88888888888807L789.8000000000001,41.88888888888807L813.7333333333333,42.23793766233572L837.6666666666667,41.88888888888807L861.6,41.88888888888807L885.5333333333334,41.88888888888807L909.4666666666666,41.88888888888807L933.4,41.88888888888807L957.3333333333333,41.88888888888807L981.2666666666667,41.88888888888807L1005.1999999999999,41.88888888888807L1029.1333333333334,41.88888888888807L1053.0666666666666,41.88888888888807L1077,41.88888888888807L1100.9333333333334,41.88888888888807L1124.8666666666666,41.88888888888807L1148.8,41.88888888888807L1172.7333333333333,41.88888888888807L1196.6666666666667,41.88888888888807L1220.6,41.88888888888807L1244.5333333333333,41.88888888888807L1268.4666666666667,41.88888888888807L1292.4,41.88888888888807" style="fill: none;" fill="none"></path></g><g><path stroke="rgb(0, 153, 136)" stroke-width="2px" d="M119.66666666666666,296.7129696210221L143.6,169.650227705637L167.53333333333333,143.81862105263536L191.46666666666667,254.82412068049064L215.4,154.290583610534L239.33333333333331,151.49819342295262L263.26666666666665,118.68511194652912L287.2,115.89272175894772L311.1333333333333,122.87419658236963L335.06666666666666,114.496526665157L359,110.30744202931649L382.93333333333334,112.40173467000253L406.8666666666667,112.40173467000253L430.8,111.00553957621187L454.7333333333333,109.60934448242116L478.66666666666663,111.00553957621187L502.59999999999997,113.09983221689791L526.5333333333333,111.7036371231072L550.4666666666667,113.79792976379323L574.4,108.9112469355258L598.3333333333334,109.60934448242116L622.2666666666667,106.81645494037132L646.2,108.9112469355258L670.1333333333333,106.81645494037132L694.0666666666667,108.9112469355258L718,109.60934448242116L741.9333333333334,109.60934448242116L765.8666666666667,114.496526665157L789.8000000000001,110.30744202931649L813.7333333333333,109.60934448242116L837.6666666666667,111.00553957621187L861.6,111.00553957621187L885.5333333333334,111.00553957621187L909.4666666666666,109.60934448242116L933.4,110.30744202931649L957.3333333333333,109.60934448242116L981.2666666666667,110.30744202931649L1005.1999999999999,110.30744202931649L1029.1333333333334,108.21314938863046L1053.0666666666666,110.30744202931649L1077,109.60934448242116L1100.9333333333334,109.60934448242116L1124.8666666666666,107.51505184173513L1148.8,108.9112469355258L1172.7333333333333,112.40173467000253L1196.6666666666667,111.00553957621187L1220.6,112.40173467000253L1244.5333333333333,111.00553957621187L1268.4666666666667,111.7036371231072L1292.4,111.00553957621187" style="fill: none;" fill="none"></path></g><g><path stroke="rgb(238, 51, 119)" stroke-width="2px" d="M119.66666666666666,377.6982773145037L143.6,133.69520791371596L167.53333333333333,99.31165663401212L191.46666666666667,76.62198829650804L215.4,63.008087423111874L239.33333333333331,54.28086937798315L263.26666666666665,48.52131493886231L287.2,43.80890682008449L311.1333333333333,43.63413275612642L335.06666666666666,42.5869864357834L359,41.88888888888807L382.93333333333334,41.88888888888807L406.8666666666667,41.88888888888807L430.8,41.88888888888807L454.7333333333333,41.88888888888807L478.66666666666663,41.88888888888807L502.59999999999997,41.88888888888807L526.5333333333333,41.88888888888807L550.4666666666667,41.88888888888807L574.4,41.88888888888807L598.3333333333334,41.88888888888807L622.2666666666667,41.88888888888807L646.2,41.88888888888807L670.1333333333333,41.88888888888807L694.0666666666667,41.88888888888807L718,41.88888888888807L741.9333333333334,41.88888888888807L765.8666666666667,41.88888888888807L789.8000000000001,41.88888888888807L813.7333333333333,41.88888888888807L837.6666666666667,41.88888888888807L861.6,41.88888888888807L885.5333333333334,41.88888888888807L909.4666666666666,41.88888888888807L933.4,41.88888888888807L957.3333333333333,41.88888888888807L981.2666666666667,41.88888888888807L1005.1999999999999,41.88888888888807L1029.1333333333334,41.88888888888807L1053.0666666666666,41.88888888888807L1077,41.88888888888807L1100.9333333333334,41.88888888888807L1124.8666666666666,41.88888888888807L1148.8,41.88888888888807L1172.7333333333333,41.88888888888807L1196.6666666666667,41.88888888888807L1220.6,41.88888888888807L1244.5333333333333,41.88888888888807L1268.4666666666667,41.88888888888807L1292.4,41.88888888888807" style="fill: none;" fill="none"></path></g><g><path stroke="rgb(204, 51, 17)" stroke-width="2px" d="M119.66666666666666,614.3703237639534L143.6,166.85733816358714L167.53333333333333,159.8758633401652L191.46666666666667,158.47966824637456L215.4,141.02573151058553L239.33333333333331,129.85567140579155L263.26666666666665,125.66658676995101L287.2,124.96848922305567L311.1333333333333,134.04425668716362L335.06666666666666,122.17609903547427L359,119.38320949342446L382.93333333333334,115.19462421205239L406.8666666666667,114.496526665157L430.8,115.19462421205239L454.7333333333333,114.496526665157L478.66666666666663,112.40173467000253L502.59999999999997,114.496526665157L526.5333333333333,113.79792976379323L550.4666666666667,111.00553957621187L574.4,113.09983221689791L598.3333333333334,108.9112469355258L622.2666666666667,110.30744202931649L646.2,111.00553957621187L670.1333333333333,112.40173467000253L694.0666666666667,114.496526665157L718,112.40173467000253L741.9333333333334,111.7036371231072L765.8666666666667,112.40173467000253L789.8000000000001,111.00553957621187L813.7333333333333,111.00553957621187L837.6666666666667,109.60934448242116L861.6,108.9112469355258L885.5333333333334,107.51505184173513L909.4666666666666,111.00553957621187L933.4,113.79792976379323L957.3333333333333,110.30744202931649L981.2666666666667,111.00553957621187L1005.1999999999999,110.30744202931649L1029.1333333333334,108.9112469355258L1053.0666666666666,108.21314938863046L1077,108.9112469355258L1100.9333333333334,111.7036371231072L1124.8666666666666,111.00553957621187L1148.8,107.51505184173513L1172.7333333333333,108.21314938863046L1196.6666666666667,110.30744202931649L1220.6,109.60934448242116L1244.5333333333333,108.21314938863046L1268.4666666666667,110.30744202931649L1292.4,106.11835739347597" style="fill: none;" fill="none"></path></g><g><path stroke="rgb(0, 119, 187)" stroke-width="2px" d="M119.66666666666666,372.6368204222782L143.6,138.58239009645183L167.53333333333333,104.19883881674801L191.46666666666667,86.39585330751133L215.4,71.03670856687681L239.33333333333331,58.64422872331329L263.26666666666665,52.710399574702826L287.2,45.37987597783326L311.1333333333333,45.03032784991712L335.06666666666666,44.507004366979814L359,43.28508398267878L382.93333333333334,42.5869864357834L406.8666666666667,42.23793766233572L430.8,41.88888888888807L454.7333333333333,41.88888888888807L478.66666666666663,41.88888888888807L502.59999999999997,41.88888888888807L526.5333333333333,41.88888888888807L550.4666666666667,41.88888888888807L574.4,41.88888888888807L598.3333333333334,41.88888888888807L622.2666666666667,41.88888888888807L646.2,41.88888888888807L670.1333333333333,41.88888888888807L694.0666666666667,41.88888888888807L718,41.88888888888807L741.9333333333334,41.88888888888807L765.8666666666667,41.88888888888807L789.8000000000001,41.88888888888807L813.7333333333333,41.88888888888807L837.6666666666667,41.88888888888807L861.6,41.88888888888807L885.5333333333334,41.88888888888807L909.4666666666666,41.88888888888807L933.4,41.88888888888807L957.3333333333333,41.88888888888807L981.2666666666667,41.88888888888807L1005.1999999999999,41.88888888888807L1029.1333333333334,41.88888888888807L1053.0666666666666,41.88888888888807L1077,41.88888888888807L1100.9333333333334,41.88888888888807L1124.8666666666666,41.88888888888807L1148.8,41.88888888888807L1172.7333333333333,41.88888888888807L1196.6666666666667,41.88888888888807L1220.6,41.88888888888807L1244.5333333333333,41.88888888888807L1268.4666666666667,41.88888888888807L1292.4,41.88888888888807" style="fill: none;" fill="none"></path></g><g><path style="fill: none;" fill="none" stroke="none" stroke-width="1px"></path></g><g><path style="fill: none;" fill="none" stroke="none" stroke-width="1px"></path></g></g></g></g></g></g><g transform="translate(60, 377)" clip-path="url(#clip_1)"><clipPath id="clip_1"><rect width="1436" height="23"></rect></clipPath><g><g><line x1="0" y1="0" x2="0" y2="5" style="visibility: inherit;" fill="rgb(0, 0, 0)" stroke="rgb(204, 204, 204)" stroke-width="1px"></line><line x1="119.66666666666666" y1="0" x2="119.66666666666666" y2="5" style="visibility: inherit;" fill="rgb(0, 0, 0)" stroke="rgb(204, 204, 204)" stroke-width="1px"></line><line x1="239.33333333333331" y1="0" x2="239.33333333333331" y2="5" style="visibility: inherit;" fill="rgb(0, 0, 0)" stroke="rgb(204, 204, 204)" stroke-width="1px"></line><line x1="359" y1="0" x2="359" y2="5" style="visibility: inherit;" fill="rgb(0, 0, 0)" stroke="rgb(204, 204, 204)" stroke-width="1px"></line><line x1="478.66666666666663" y1="0" x2="478.66666666666663" y2="5" style="visibility: inherit;" fill="rgb(0, 0, 0)" stroke="rgb(204, 204, 204)" stroke-width="1px"></line><line x1="598.3333333333334" y1="0" x2="598.3333333333334" y2="5" style="visibility: inherit;" fill="rgb(0, 0, 0)" stroke="rgb(204, 204, 204)" stroke-width="1px"></line><line x1="718" y1="0" x2="718" y2="5" style="visibility: inherit;" fill="rgb(0, 0, 0)" stroke="rgb(204, 204, 204)" stroke-width="1px"></line><line x1="837.6666666666667" y1="0" x2="837.6666666666667" y2="5" style="visibility: inherit;" fill="rgb(0, 0, 0)" stroke="rgb(204, 204, 204)" stroke-width="1px"></line><line x1="957.3333333333333" y1="0" x2="957.3333333333333" y2="5" style="visibility: inherit;" fill="rgb(0, 0, 0)" stroke="rgb(204, 204, 204)" stroke-width="1px"></line><line x1="1077" y1="0" x2="1077" y2="5" style="visibility: inherit;" fill="rgb(0, 0, 0)" stroke="rgb(204, 204, 204)" stroke-width="1px"></line><line x1="1196.6666666666667" y1="0" x2="1196.6666666666667" y2="5" style="visibility: inherit;" fill="rgb(0, 0, 0)" stroke="rgb(204, 204, 204)" stroke-width="1px"></line><line x1="1316.3333333333333" y1="0" x2="1316.3333333333333" y2="5" style="visibility: inherit;" fill="rgb(0, 0, 0)" stroke="rgb(204, 204, 204)" stroke-width="1px"></line><line x1="1436" y1="0" x2="1436" y2="5" style="visibility: inherit;" fill="rgb(0, 0, 0)" stroke="rgb(204, 204, 204)" stroke-width="1px"></line></g><g transform="translate(0, 8)"><text x="0" y="0" dx="0em" dy="0.95em" style="text-anchor: middle; visibility: hidden; font-family: Roboto, sans-serif; font-size: 12px; font-weight: 200;" fill="rgb(33, 33, 33)" stroke="none" stroke-width="1px">-5</text><text x="119.66666666666666" y="0" dx="0em" dy="0.95em" style="text-anchor: middle; visibility: inherit; font-family: Roboto, sans-serif; font-size: 12px; font-weight: 200;" fill="rgb(33, 33, 33)" stroke="none" stroke-width="1px">0</text><text x="239.33333333333331" y="0" dx="0em" dy="0.95em" style="text-anchor: middle; visibility: inherit; font-family: Roboto, sans-serif; font-size: 12px; font-weight: 200;" fill="rgb(33, 33, 33)" stroke="none" stroke-width="1px">5</text><text x="359" y="0" dx="0em" dy="0.95em" style="text-anchor: middle; visibility: inherit; font-family: Roboto, sans-serif; font-size: 12px; font-weight: 200;" fill="rgb(33, 33, 33)" stroke="none" stroke-width="1px">10</text><text x="478.66666666666663" y="0" dx="0em" dy="0.95em" style="text-anchor: middle; visibility: inherit; font-family: Roboto, sans-serif; font-size: 12px; font-weight: 200;" fill="rgb(33, 33, 33)" stroke="none" stroke-width="1px">15</text><text x="598.3333333333334" y="0" dx="0em" dy="0.95em" style="text-anchor: middle; visibility: inherit; font-family: Roboto, sans-serif; font-size: 12px; font-weight: 200;" fill="rgb(33, 33, 33)" stroke="none" stroke-width="1px">20</text><text x="718" y="0" dx="0em" dy="0.95em" style="text-anchor: middle; visibility: inherit; font-family: Roboto, sans-serif; font-size: 12px; font-weight: 200;" fill="rgb(33, 33, 33)" stroke="none" stroke-width="1px">25</text><text x="837.6666666666667" y="0" dx="0em" dy="0.95em" style="text-anchor: middle; visibility: inherit; font-family: Roboto, sans-serif; font-size: 12px; font-weight: 200;" fill="rgb(33, 33, 33)" stroke="none" stroke-width="1px">30</text><text x="957.3333333333333" y="0" dx="0em" dy="0.95em" style="text-anchor: middle; visibility: inherit; font-family: Roboto, sans-serif; font-size: 12px; font-weight: 200;" fill="rgb(33, 33, 33)" stroke="none" stroke-width="1px">35</text><text x="1077" y="0" dx="0em" dy="0.95em" style="text-anchor: middle; visibility: inherit; font-family: Roboto, sans-serif; font-size: 12px; font-weight: 200;" fill="rgb(33, 33, 33)" stroke="none" stroke-width="1px">40</text><text x="1196.6666666666667" y="0" dx="0em" dy="0.95em" style="text-anchor: middle; visibility: inherit; font-family: Roboto, sans-serif; font-size: 12px; font-weight: 200;" fill="rgb(33, 33, 33)" stroke="none" stroke-width="1px">45</text><text x="1316.3333333333333" y="0" dx="0em" dy="0.95em" style="text-anchor: middle; visibility: inherit; font-family: Roboto, sans-serif; font-size: 12px; font-weight: 200;" fill="rgb(33, 33, 33)" stroke="none" stroke-width="1px">50</text><text x="1436" y="0" dx="0em" dy="0.95em" style="text-anchor: middle; visibility: hidden; font-family: Roboto, sans-serif; font-size: 12px; font-weight: 200;" fill="rgb(33, 33, 33)" stroke="none" stroke-width="1px">55</text></g><line x1="0" y1="0" x2="1436" y2="0" fill="rgb(0, 0, 0)" stroke="rgb(204, 204, 204)" stroke-width="1px"></line></g></g></g></g></svg>